<svg xmlns="http://www.w3.org/2000/svg" xmlns:xlink="http://www.w3.org/1999/xlink" xmlns:lucid="lucid" width="1804.99" height="1443.4"><g transform="translate(354.36925400577917 -74.11341349624513)" lucid:page-tab-id="0_0"><path d="M-259.63 123.86c0 10.9-8.84 19.75-19.75 19.75-10.9 0-19.75-8.83-19.75-19.74 0-10.9 8.85-19.75 19.75-19.75s19.75 8.86 19.75 19.76z" stroke="#5e5e5e" stroke-width="3" fill="#fff"/><path d="M-279.38 143.6v49.3c0 3.33 1.44 8.28 3.2 11.08l36.8 58.13m-40-63.2l-40 63.2m0-98.74h80" stroke="#5e5e5e" stroke-width="3" fill="none"/><path d="M-319.38 110.1c0-3.3 2.7-6 6-6h68c3.32 0 6 2.7 6 6v168c0 3.33-2.68 6-6 6h-68c-3.3 0-6-2.67-6-6z" fill="none"/><use xlink:href="#a" transform="matrix(1,0,0,1,-399.37542684528535,262.11341349624513) translate(67.00617283950618 17.77777777777778)"/><path d="M140.62 184.1c0 27.63-22.38 50-50 50-27.6 0-50-22.37-50-50 0-27.6 22.4-50 50-50 27.62 0 50 22.4 50 50z" stroke="#5e5e5e" stroke-width="3" fill="#fff"/><path d="M20.62 134.1v100m0-50h20" stroke="#5e5e5e" stroke-width="3" fill="none"/><use xlink:href="#b" transform="matrix(1,0,0,1,0.6245731547146534,234.11341349624513) translate(-20.674999999999983 14.4)"/><path d="M673.62 184.1c0 27.63-22.38 50-50 50-27.6 0-50-22.37-50-50 0-27.6 22.4-50 50-50 27.62 0 50 22.4 50 50z" stroke="#5e5e5e" stroke-width="3" fill="#fff"/><path d="M633.62 128.1l-10 6 10 7.2" stroke="#5e5e5e" stroke-width="3" fill="none"/><use xlink:href="#c" transform="matrix(1,0,0,1,533.6245731547147,234.11341349624502) translate(-3.7750000000000057 14.4)"/><path d="M1310.62 234.1c-27.6 0-50-22.37-50-50 0-27.6 22.4-50 50-50 27.62 0 50 22.4 50 50 0 27.63-22.38 50-50 50z" stroke="#5e5e5e" stroke-width="3" fill="#fff"/><path d="M1260.62 234.1h100" stroke="#5e5e5e" stroke-width="3" fill="none"/><use xlink:href="#d" transform="matrix(1,0,0,1,1220.6245731547147,234.11341349624513) translate(37.59259259259259 17.77777777777778)"/><path d="M-279.38 202.72v10m0 10v2m0 10.02v20m0 10v2.02m0 10v20m0 10.02v2m0 10v20.02m0 10v2m0 10v20.03m0 10v2m0 10v20.02m0 10v2m0 10v20.03m0 10v2m0 10v20.02m0 10v2m0 10.02v20m0 10v2m0 10.02v20m0 10.02v2m0 10V633m0 10v2m0 10V675m0 10v2m0 10.02v20m0 10.02v2m0 10v20m0 10.02v2m0 10v20.02m0 10v2m0 10v20.03m0 10v2m0 10.02v20m0 10.02v2m0 10v20.02m0 10v2m0 10v20.02m0 10v2m0 10.02v20m0 10v2.02m0 10v20m0 10.02v2m0 10v20.02m0 10v2m0 10v20.02m0 10v2m0 10.02v20m0 10.02v2m0 10v20.02m0 10v2m0 10v20.02m0 10v2m0 10v20.03m0 10v2m0 10v20m0 10.02v2m0 10v20.02m0 10v2m0 10v20.02m0 10v2m0 10.02v20m0 10v2.02m0 10v10M-279.38 1505.48v1.03M80.63 235.63v9.92m0 9.92v1.98m0 9.92v19.84m0 9.93v2m0 9.9v19.85m0 9.92v1.98m0 9.92v19.84m0 9.92v1.98m0 9.92v19.84m0 9.92v1.98m0 9.92v19.84m0 9.92v2m0 9.9v19.85m0 9.92v1.98m0 9.92v19.84m0 9.9v2m0 9.9v19.85m0 9.92v1.98m0 9.92v19.84m0 9.93v2m0 9.9v19.85m0 9.92v1.98m0 9.92v19.84m0 9.92v1.98m0 9.92v19.84m0 9.92v2m0 9.9v19.84m0 9.92v2m0 9.9v19.85m0 9.92v1.98m0 9.92v19.84m0 9.9v2m0 9.9v19.85m0 9.92v2m0 9.9v19.84m0 9.93v2m0 9.9v19.85m0 9.92v1.98m0 9.92v19.84m0 9.92v1.98m0 9.92v19.84m0 9.92v2m0 9.9v19.84m0 9.92v2m0 9.9v19.85m0 9.92v1.98m0 9.92v19.84m0 9.9v2m0 9.9v19.85m0 9.92v2m0 9.9v19.85m0 9.9v2m0 9.92v19.84m0 9.92v1.98m0 9.92v19.84m0 9.92v1.98m0 9.92v19.84m0 9.92v2m0 9.9v19.85m0 9.9v2m0 9.92v9.9" stroke="#5e5e5e" stroke-width="2" fill="none"/><path d="M80.34 234.6l1.3.18v.88h-2v-1.25z" fill="#5e5e5e"/><path d="M80.62 1485.48v1.03M623.62 236.6v10.1m0 10.06v2.02m0 10.07V289m0 10.08v2m0 10.1v20.14m0 10.07v2m0 10.08v20.15m0 10.07v2.02m0 10.07v20.14m0 10.08v2m0 10.1v20.13m0 10.08v2m0 10.1v20.14m0 10.07v2.02m0 10.07v20.15m0 10.08v2m0 10.08v20.15m0 10.07v2m0 10.1v20.14m0 10.08v2.02m0 10.07v20.15m0 10.07v2m0 10.08v20.15m0 10.08v2.02m0 10.08v20.15m0 10.07v2.02m0 10.07v20.16m0 10.07v2.02m0 10.07v20.15m0 10.08v2m0 10.1v20.14m0 10.06v2.02m0 10.07v20.15m0 10.07v2.02m0 10.06V966m0 10.1v2m0 10.08v20.15m0 10.07v2m0 10.1v20.14m0 10.07v2.03m0 10.07v20.15m0 10.08v2m0 10.1v20.13m0 10.08v2m0 10.1v20.14m0 10.07v2.02m0 10.07v20.15m0 10.07v2m0 10.1v20.13m0 10.08v2m0 10.1v20.14m0 10.07v2m0 10.08v20.15m0 10.08v2.02m0 10.07v20.14m0 10.08v2m0 10.1v20.14m0 10.07v2.02m0 10.07v20.15m0 10.07v2.02m0 10.07V1506l-.14.36-.36.15" stroke="#5e5e5e" stroke-width="2" fill="none"/><path d="M623.6 235.6l1.02-.02v1.06h-2v-1.07z" fill="#5e5e5e"/><path d="M623.15 1506.5h-1.03M1310.62 236.6v10.08m0 10.08v2m0 10.08v20.14m0 10.07v2.02m0 10.07v20.14m0 10.07v2m0 10.08v20.14m0 10.07v2.02m0 10.07v20.14m0 10.07v2.02m0 10.07v20.14m0 10.07v2m0 10.08v20.14m0 10.07v2.02m0 10.07v20.14m0 10.07v2m0 10.1v20.13m0 10.07v2m0 10.08v20.15m0 10.07v2.02m0 10.07v20.15m0 10.07v2m0 10.08v20.15m0 10.07v2m0 10.08v20.14m0 10.07v2.03m0 10.07v20.14m0 10.07v2.02m0 10.07v20.14m0 10.07v2.02m0 10.07v20.13m0 10.07v2.02m0 10.07v20.13m0 10.07v2m0 10.08v20.15m0 10.07v2m0 10.08v20.14m0 10.07v2m0 10.08v20.14m0 10.07v2m0 10.07v20.14m0 10.1v2m0 10.07v20.14m0 10.08v2.02m0 10.07v20.14m0 10.08v2m0 10.08v20.14m0 10.07v2.02m0 10.06v20.14m0 10.07v2.02m0 10.06v20.14m0 10.07v2m0 10.08v20.14m0 10.06v2.02m0 10.07v20.14m0 10.06v2m0 10.1v20.13m0 10.06v2m0 10.08v20.14m0 10.07v2.02m0 10.07v10.07" stroke="#5e5e5e" stroke-width="2" fill="none"/><path d="M1310.6 235.6h1.02v1.04h-2v-1.03z" fill="#5e5e5e"/><path d="M1310.62 1505.48v1.03" stroke="#5e5e5e" stroke-width="2" fill="none"/><path d="M-20 100.1c0-3.3 2.7-6 6-6h228c3.3 0 6 2.7 6 6v48c0 3.33-2.7 6-6 6H-14c-3.3 0-6-2.67-6-6z" stroke="#000" stroke-opacity="0" stroke-width="3" fill="#fff" fill-opacity="0"/><use xlink:href="#e" transform="matrix(1,0,0,1,-15,99.11341349624513) translate(65.03086419753086 30.27777777777778)"/><path d="M1190.62 100.1c0-3.3 2.7-6 6-6h228c3.32 0 6 2.7 6 6v48c0 3.33-2.68 6-6 6h-228c-3.3 0-6-2.67-6-6z" stroke="#000" stroke-opacity="0" stroke-width="3" fill="#fff" fill-opacity="0"/><use xlink:href="#f" transform="matrix(1,0,0,1,1195.6245731547147,99.11341349624513) translate(64.41358024691357 30.27777777777778)"/><path d="M503.62 100.1c0-3.3 2.7-6 6-6h228c3.32 0 6 2.7 6 6v48c0 3.33-2.68 6-6 6h-228c-3.3 0-6-2.67-6-6z" stroke="#000" stroke-opacity="0" stroke-width="3" fill="#fff" fill-opacity="0"/><use xlink:href="#g" transform="matrix(1,0,0,1,508.62457315471465,99.11341349624513) translate(44.1358024691358 30.27777777777778)"/><path d="M60.62 366c0-3.3 2.7-6 6-6h28c3.32 0 6 2.7 6 6v108c0 3.3-2.68 6-6 6h-28c-3.3 0-6-2.7-6-6zM603.62 366c0-3.3 2.7-6 6-6h28c3.32 0 6 2.7 6 6v108c0 3.3-2.68 6-6 6h-28c-3.3 0-6-2.7-6-6zM1290.62 366c0-3.3 2.7-6 6-6h28c3.32 0 6 2.7 6 6v108c0 3.3-2.68 6-6 6h-28c-3.3 0-6-2.7-6-6zM60.62 566c0-3.3 2.7-6 6-6h28c3.32 0 6 2.7 6 6v108c0 3.3-2.68 6-6 6h-28c-3.3 0-6-2.7-6-6zM603.62 566c0-3.3 2.7-6 6-6h28c3.32 0 6 2.7 6 6v108c0 3.3-2.68 6-6 6h-28c-3.3 0-6-2.7-6-6zM1290.62 566c0-3.3 2.7-6 6-6h28c3.32 0 6 2.7 6 6v108c0 3.3-2.68 6-6 6h-28c-3.3 0-6-2.7-6-6zM60.62 746c0-3.3 2.7-6 6-6h28c3.32 0 6 2.7 6 6v108c0 3.3-2.68 6-6 6h-28c-3.3 0-6-2.7-6-6zM603.62 746c0-3.3 2.7-6 6-6h28c3.32 0 6 2.7 6 6v108c0 3.3-2.68 6-6 6h-28c-3.3 0-6-2.7-6-6zM1290.62 746c0-3.3 2.7-6 6-6h28c3.32 0 6 2.7 6 6v108c0 3.3-2.68 6-6 6h-28c-3.3 0-6-2.7-6-6z" stroke="#5e5e5e" stroke-width="3" fill="#fff"/><path d="M40.62 373.72h-319" stroke="#5e5e5e" stroke-width="2" fill="none"/><path d="M55.9 373.72l-14.28 4.64v-9.27z" stroke="#5e5e5e" stroke-width="2" fill="#5e5e5e"/><path d="M-278.35 373.72h-1.03" stroke="#5e5e5e" stroke-width="2" fill="none"/><use xlink:href="#h" transform="matrix(1,0,0,1,-176.22421267136644,377.7234025832786) translate(0.0049999999999954525 14.222222222222223)"/><use xlink:href="#i" transform="matrix(1,0,0,1,-176.22421267136644,377.7234025832786) translate(48.35067901234568 14.222222222222223)"/><path d="M583.62 378.12h-480.5" stroke="#5e5e5e" stroke-width="2" fill="none"/><path d="M598.9 378.12l-14.28 4.64v-9.28z" stroke="#5e5e5e" stroke-width="2" fill="#5e5e5e"/><path d="M103.15 379.12h-1.03v-2h1.03z" fill="#5e5e5e"/><use xlink:href="#j" transform="matrix(1,0,0,1,240.24802994483812,382.1201501877345) translate(0.0049999999999954525 14.222222222222223)"/><path d="M1270.62 379.6h-624.5" stroke="#5e5e5e" stroke-width="2" fill="none"/><path d="M1285.9 379.6l-14.28 4.62v-9.27z" stroke="#5e5e5e" stroke-width="2" fill="#5e5e5e"/><path d="M646.15 380.6h-1.03v-2h1.03z" fill="#5e5e5e"/><use xlink:href="#k" transform="matrix(1,0,0,1,775.9393879695294,383.5857321652064) translate(0.0049999999999954525 14.222222222222223)"/><path d="M1288.12 460.2h-9.72m-9.73 0h-19.45m-9.73 0h-19.47m-9.72 0h-19.45m-9.73 0h-19.45m-9.73 0h-19.45m-9.74 0h-19.45m-9.72 0h-19.46m-9.72 0h-19.46m-9.72 0h-19.46m-9.73 0h-19.45m-9.73 0h-19.83m-10.13 0h-20.24m-10.12 0H896.3m-10.1 0h-20.24m-10.12 0H835.6m-10.1 0h-20.24m-10.12 0H774.9m-10.1 0h-20.24m-10.12 0H714.2m-10.1 0h-20.24m-10.12 0h-10.1" stroke="#5e5e5e" stroke-width="2" fill="none"/><path d="M1289.12 461.2h-1.02v-2h1.02z" fill="#5e5e5e"/><path d="M648.36 460.2l14.27-4.64v9.27z" stroke="#5e5e5e" stroke-width="2" fill="#5e5e5e"/><use xlink:href="#l" transform="matrix(1,0,0,1,884.3097583398999,464.1927409261576) translate(0.0049999999999954525 14.222222222222223)"/><use xlink:href="#m" transform="matrix(1,0,0,1,884.3097583398999,464.1927409261576) translate(104.49882716049385 14.222222222222223)"/><path d="M601.12 457.26h-10.37m-10.38 0h-20.75m-10.37 0H528.5m-10.38 0h-20.75m-10.37 0h-20.75m-10.38 0h-20.75m-10.37 0H404m-10.38 0h-20.75m-10.37 0H342.48m-9.65 0h-19.3m-9.63 0h-19.3m-9.64 0h-19.3m-9.64 0h-19.3m-9.64 0h-19.3m-9.63 0h-19.3m-9.64 0h-19.28m-9.65 0h-9.64" stroke="#5e5e5e" stroke-width="2" fill="none"/><path d="M602.12 458.26h-1.02v-2h1.02z" fill="#5e5e5e"/><path d="M105.36 457.26l14.27-4.63v9.27z" stroke="#5e5e5e" stroke-width="2" fill="#5e5e5e"/><path d="M58.12 461.66h-9.34m-9.35 0h-18.7m-9.34 0H-7.3m-9.35 0h-18.7m-9.34 0h-18.7m-9.34 0h-18.7m-9.34 0h-19.4m-10.05 0h-20.1m-10.05 0h-20.1m-10.04 0h-20.1m-10.05 0h-20.1m-10.05 0h-10.05" stroke="#5e5e5e" stroke-width="2" fill="none"/><path d="M59.12 462.66H58.1v-2h1.02z" fill="#5e5e5e"/><path d="M-276.14 461.66l14.27-4.64v9.27z" stroke="#5e5e5e" stroke-width="2" fill="#5e5e5e"/><path d="M583.62 580.37h-480.5" stroke="#5e5e5e" stroke-width="2" fill="none"/><path d="M598.9 580.37L584.6 585v-9.26z" stroke="#5e5e5e" stroke-width="2" fill="#5e5e5e"/><path d="M103.15 581.37h-1.03v-2h1.03z" fill="#5e5e5e"/><use xlink:href="#n" transform="matrix(1,0,0,1,240.24802994483812,584.3704630788484) translate(0.0049999999999954525 14.222222222222223)"/><path d="M40.62 584.77h-319" stroke="#5e5e5e" stroke-width="2" fill="none"/><path d="M55.9 584.77L41.6 589.4v-9.27z" stroke="#5e5e5e" stroke-width="2" fill="#5e5e5e"/><path d="M-278.35 584.77h-1.03" stroke="#5e5e5e" stroke-width="2" fill="none"/><use xlink:href="#o" transform="matrix(1,0,0,1,-192.47112261163477,588.7672078846713) translate(0.0049999999999954525 14.222222222222223)"/><use xlink:href="#i" transform="matrix(1,0,0,1,-192.47112261163477,588.7672078846713) translate(80.84450617283952 14.222222222222223)"/><path d="M646.12 584.77h624.5" stroke="#5e5e5e" stroke-width="2" fill="none"/><path d="M646.15 585.77h-1.03v-2h1.03z" fill="#5e5e5e"/><path d="M1285.9 584.77l-14.28 4.63v-9.27z" stroke="#5e5e5e" stroke-width="2" fill="#5e5e5e"/><use xlink:href="#p" transform="matrix(1,0,0,1,763.824790992896,588.7672090112641) translate(0.0049999999999954525 14.222222222222223)"/><path d="M1270.62 757.7h-624.5" stroke="#5e5e5e" stroke-width="2" fill="none"/><path d="M1285.9 757.7l-14.28 4.64v-9.27z" stroke="#5e5e5e" stroke-width="2" fill="#5e5e5e"/><path d="M646.15 758.7h-1.03v-2h1.03z" fill="#5e5e5e"/><use xlink:href="#q" transform="matrix(1,0,0,1,814.3097583398999,761.7058823529412) translate(0.0049999999999954525 14.222222222222221)"/><path d="M583.62 754.77h-480.5" stroke="#5e5e5e" stroke-width="2" fill="none"/><path d="M598.9 754.77l-14.28 4.64v-9.26z" stroke="#5e5e5e" stroke-width="2" fill="#5e5e5e"/><path d="M103.15 755.77h-1.03v-2h1.03z" fill="#5e5e5e"/><use xlink:href="#r" transform="matrix(1,0,0,1,117.48259784607257,758.7747183979974) translate(0.0049999999999954525 14.222222222222221)"/><path d="M40.62 756.24h-319" stroke="#5e5e5e" stroke-width="2" fill="none"/><path d="M55.9 756.24l-14.28 4.64v-9.27z" stroke="#5e5e5e" stroke-width="2" fill="#5e5e5e"/><path d="M-278.35 756.24h-1.03" stroke="#5e5e5e" stroke-width="2" fill="none"/><use xlink:href="#s" transform="matrix(1,0,0,1,-189.50816021273107,760.2402991714611) translate(0.0049999999999954525 14.222222222222223)"/><use xlink:href="#t" transform="matrix(1,0,0,1,-189.50816021273107,760.2402991714611) translate(84.79512345679012 14.222222222222223)"/><path d="M58.12 835.38h-9.34m-9.35 0h-18.7m-9.34 0H-7.3m-9.35 0h-18.7m-9.34 0h-18.7m-9.34 0h-18.7m-9.34 0h-19.4m-10.05 0h-20.1m-10.05 0h-20.1m-10.04 0h-20.1m-10.05 0h-20.1m-10.05 0h-10.05" stroke="#5e5e5e" stroke-width="2" fill="none"/><path d="M59.12 836.38H58.1v-2h1.02z" fill="#5e5e5e"/><path d="M-276.14 835.38l14.27-4.63v9.27z" stroke="#5e5e5e" stroke-width="2" fill="#5e5e5e"/><path d="M601.12 832.45h-10.37m-10.38 0h-20.75m-10.37 0H528.5m-10.38 0h-20.75m-10.37 0h-20.75m-10.38 0h-20.75m-10.37 0H404m-10.38 0h-20.75m-10.37 0H342.48m-9.65 0h-19.3m-9.63 0h-19.3m-9.64 0h-19.3m-9.64 0h-19.3m-9.64 0h-19.3m-9.63 0h-19.3m-9.64 0h-19.28m-9.65 0h-9.64" stroke="#5e5e5e" stroke-width="2" fill="none"/><path d="M602.12 833.45h-1.02v-2h1.02z" fill="#5e5e5e"/><path d="M105.36 832.45l14.27-4.63v9.27z" stroke="#5e5e5e" stroke-width="2" fill="#5e5e5e"/><path d="M1288.12 841.24h-9.72m-9.73 0h-19.45m-9.73 0h-19.47m-9.72 0h-19.45m-9.73 0h-19.45m-9.73 0h-19.45m-9.74 0h-19.45m-9.72 0h-19.46m-9.72 0h-19.46m-9.72 0h-19.46m-9.73 0h-19.45m-9.73 0h-19.83m-10.13 0h-20.24m-10.12 0H896.3m-10.1 0h-20.24m-10.12 0H835.6m-10.1 0h-20.24m-10.12 0H774.9m-10.1 0h-20.24m-10.12 0H714.2m-10.1 0h-20.24m-10.12 0h-10.1" stroke="#5e5e5e" stroke-width="2" fill="none"/><path d="M1289.12 842.24h-1.02v-2h1.02z" fill="#5e5e5e"/><path d="M648.36 841.24l14.27-4.63v9.28z" stroke="#5e5e5e" stroke-width="2" fill="#5e5e5e"/><use xlink:href="#u" transform="matrix(1,0,0,1,879.3714867349615,845.244055068836) translate(0.0049999999999954525 14.222222222222223)"/><use xlink:href="#m" transform="matrix(1,0,0,1,879.3714867349615,845.244055068836) translate(114.37537037037038 14.222222222222223)"/><path d="M58.12 666.84h-9.34m-9.35 0h-18.7m-9.34 0H-7.3m-9.35 0h-18.7m-9.34 0h-18.7m-9.34 0h-18.7m-9.34 0h-19.4m-10.05 0h-20.1m-10.05 0h-20.1m-10.04 0h-20.1m-10.05 0h-20.1m-10.05 0h-10.05" stroke="#5e5e5e" stroke-width="2" fill="none"/><path d="M59.12 667.84H58.1v-2h1.02z" fill="#5e5e5e"/><path d="M-276.14 666.84l14.27-4.64v9.27z" stroke="#5e5e5e" stroke-width="2" fill="#5e5e5e"/><path d="M601.12 665.37h-10.37m-10.38 0h-20.75m-10.37 0H528.5m-10.38 0h-20.75m-10.37 0h-20.75m-10.38 0h-20.75m-10.37 0H404m-10.38 0h-20.75m-10.37 0H342.48m-9.65 0h-19.3m-9.63 0h-19.3m-9.64 0h-19.3m-9.64 0h-19.3m-9.64 0h-19.3m-9.63 0h-19.3m-9.64 0h-19.28m-9.65 0h-9.64" stroke="#5e5e5e" stroke-width="2" fill="none"/><path d="M602.12 666.37h-1.02v-2h1.02z" fill="#5e5e5e"/><path d="M105.36 665.37l14.27-4.63V670z" stroke="#5e5e5e" stroke-width="2" fill="#5e5e5e"/><path d="M1288.12 666.84h-9.9m-9.92 0h-19.83m-9.9 0h-19.83m-9.92 0H1189m-9.9 0h-19.84m-9.9 0h-19.84m-9.9 0h-19.84m-9.9 0h-19.83m-9.92 0h-19.82m-9.9 0h-19.83m-9.9 0h-19.84m-9.9 0h-19.84m-9.92 0h-19.82m-9.92 0h-19.82m-9.9 0h-19.84m-9.9 0h-19.84m-9.9 0H802.4m-9.9 0h-19.83m-9.92 0h-19.82m-9.9 0h-19.84m-9.92 0h-19.83m-9.9 0h-9.92" stroke="#5e5e5e" stroke-width="2" fill="none"/><path d="M1289.12 667.84h-1.02v-2h1.02z" fill="#5e5e5e"/><path d="M648.36 666.84l14.27-4.64v9.28z" stroke="#5e5e5e" stroke-width="2" fill="#5e5e5e"/><use xlink:href="#v" transform="matrix(1,0,0,1,884.3097583398999,670.8397997496871) translate(0.0049999999999954525 14.222222222222223)"/><use xlink:href="#m" transform="matrix(1,0,0,1,884.3097583398999,670.8397997496871) translate(104.49882716049385 14.222222222222223)"/><path d="M60.62 906c0-3.3 2.7-6 6-6h28c3.32 0 6 2.7 6 6v108c0 3.3-2.68 6-6 6h-28c-3.3 0-6-2.7-6-6zM603.62 906c0-3.3 2.7-6 6-6h28c3.32 0 6 2.7 6 6v108c0 3.3-2.68 6-6 6h-28c-3.3 0-6-2.7-6-6zM1290.62 906c0-3.3 2.7-6 6-6h28c3.32 0 6 2.7 6 6v108c0 3.3-2.68 6-6 6h-28c-3.3 0-6-2.7-6-6z" stroke="#5e5e5e" stroke-width="3" fill="#fff"/><path d="M1270.62 917.7h-624.5" stroke="#5e5e5e" stroke-width="2" fill="none"/><path d="M1285.9 917.7l-14.28 4.64v-9.27z" stroke="#5e5e5e" stroke-width="2" fill="#5e5e5e"/><path d="M646.15 918.7h-1.03v-2h1.03z" fill="#5e5e5e"/><use xlink:href="#w" transform="matrix(1,0,0,1,800.5072892040973,921.7058823529413) translate(0.0049999999999954525 14.222222222222221)"/><path d="M583.62 914.77h-480.5" stroke="#5e5e5e" stroke-width="2" fill="none"/><path d="M598.9 914.77l-14.28 4.64v-9.26z" stroke="#5e5e5e" stroke-width="2" fill="#5e5e5e"/><path d="M103.15 915.77h-1.03v-2h1.03z" fill="#5e5e5e"/><use xlink:href="#x" transform="matrix(1,0,0,1,196.8653138954554,918.7747183979975) translate(0.0049999999999954525 14.222222222222221)"/><path d="M40.62 916.24h-319" stroke="#5e5e5e" stroke-width="2" fill="none"/><path d="M55.9 916.24l-14.28 4.64v-9.27z" stroke="#5e5e5e" stroke-width="2" fill="#5e5e5e"/><path d="M-278.35 916.24h-1.03" stroke="#5e5e5e" stroke-width="2" fill="none"/><use xlink:href="#y" transform="matrix(1,0,0,1,-193.38470269194295,920.2402992712457) translate(0.0049999999999954525 14.222222222222223)"/><use xlink:href="#z" transform="matrix(1,0,0,1,-193.38470269194295,920.2402992712457) translate(109.3877160493827 14.222222222222223)"/><path d="M58.12 995.38h-9.34m-9.35 0h-18.7m-9.34 0H-7.3m-9.35 0h-18.7m-9.34 0h-18.7m-9.34 0h-18.7m-9.34 0h-19.4m-10.05 0h-20.1m-10.05 0h-20.1m-10.04 0h-20.1m-10.05 0h-20.1m-10.05 0h-10.05" stroke="#5e5e5e" stroke-width="2" fill="none"/><path d="M59.12 996.38H58.1v-2h1.02z" fill="#5e5e5e"/><path d="M-276.14 995.38l14.27-4.63v9.27z" stroke="#5e5e5e" stroke-width="2" fill="#5e5e5e"/><path d="M601.12 992.45h-10.37m-10.38 0h-20.75m-10.37 0H528.5m-10.38 0h-20.75m-10.37 0h-20.75m-10.38 0h-20.75m-10.37 0H404m-10.38 0h-20.75m-10.37 0H342.48m-9.65 0h-19.3m-9.63 0h-19.3m-9.64 0h-19.3m-9.64 0h-19.3m-9.64 0h-19.3m-9.63 0h-19.3m-9.64 0h-19.28m-9.65 0h-9.64" stroke="#5e5e5e" stroke-width="2" fill="none"/><path d="M602.12 993.45h-1.02v-2h1.02z" fill="#5e5e5e"/><path d="M105.36 992.45l14.27-4.63v9.27z" stroke="#5e5e5e" stroke-width="2" fill="#5e5e5e"/><path d="M1288.12 1001.24h-9.72m-9.73 0h-19.45m-9.73 0h-19.47m-9.72 0h-19.45m-9.73 0h-19.45m-9.73 0h-19.45m-9.74 0h-19.45m-9.72 0h-19.46m-9.72 0h-19.46m-9.72 0h-19.46m-9.73 0h-19.45m-9.73 0h-19.83m-10.13 0h-20.24m-10.12 0H896.3m-10.1 0h-20.24m-10.12 0H835.6m-10.1 0h-20.24m-10.12 0H774.9m-10.1 0h-20.24m-10.12 0H714.2m-10.1 0h-20.24m-10.12 0h-10.1" stroke="#5e5e5e" stroke-width="2" fill="none"/><path d="M1289.12 1002.24h-1.02v-2h1.02z" fill="#5e5e5e"/><path d="M648.36 1001.24l14.27-4.63v9.28z" stroke="#5e5e5e" stroke-width="2" fill="#5e5e5e"/><g><use xlink:href="#A" transform="matrix(1,0,0,1,879.3714867349615,1005.2440550688362) translate(0.0049999999999954525 14.222222222222223)"/><use xlink:href="#m" transform="matrix(1,0,0,1,879.3714867349615,1005.2440550688362) translate(114.37537037037038 14.222222222222223)"/></g><defs><path fill="#333" d="M185-189c-5-48-123-54-124 2 14 75 158 14 163 119 3 78-121 87-175 55-17-10-28-26-33-46l33-7c5 56 141 63 141-1 0-78-155-14-162-118-5-82 145-84 179-34 5 7 8 16 11 25" id="B"/><path fill="#333" d="M84 4C-5 8 30-112 23-190h32v120c0 31 7 50 39 49 72-2 45-101 50-169h31l1 190h-30c-1-10 1-25-2-33-11 22-28 36-60 37" id="C"/><path fill="#333" d="M115-194c55 1 70 41 70 98S169 2 115 4C84 4 66-9 55-30l1 105H24l-1-265h31l2 30c10-21 28-34 59-34zm-8 174c40 0 45-34 45-75s-6-73-45-74c-42 0-51 32-51 76 0 43 10 73 51 73" id="D"/><path fill="#333" d="M100-194c63 0 86 42 84 106H49c0 40 14 67 53 68 26 1 43-12 49-29l28 8c-11 28-37 45-77 45C44 4 14-33 15-96c1-61 26-98 85-98zm52 81c6-60-76-77-97-28-3 7-6 17-6 28h103" id="E"/><path fill="#333" d="M114-163C36-179 61-72 57 0H25l-1-190h30c1 12-1 29 2 39 6-27 23-49 58-41v29" id="F"/><path fill="#333" d="M108 0H70L1-190h34L89-25l56-165h34" id="G"/><path fill="#333" d="M24-231v-30h32v30H24zM24 0v-190h32V0H24" id="H"/><path fill="#333" d="M135-143c-3-34-86-38-87 0 15 53 115 12 119 90S17 21 10-45l28-5c4 36 97 45 98 0-10-56-113-15-118-90-4-57 82-63 122-42 12 7 21 19 24 35" id="I"/><path fill="#333" d="M100-194c62-1 85 37 85 99 1 63-27 99-86 99S16-35 15-95c0-66 28-99 85-99zM99-20c44 1 53-31 53-75 0-43-8-75-51-75s-53 32-53 75 10 74 51 75" id="J"/><g id="a"><use transform="matrix(0.06172839506172839,0,0,0.06172839506172839,0,0)" xlink:href="#B"/><use transform="matrix(0.06172839506172839,0,0,0.06172839506172839,14.814814814814813,0)" xlink:href="#C"/><use transform="matrix(0.06172839506172839,0,0,0.06172839506172839,27.160493827160494,0)" xlink:href="#D"/><use transform="matrix(0.06172839506172839,0,0,0.06172839506172839,39.50617283950617,0)" xlink:href="#E"/><use transform="matrix(0.06172839506172839,0,0,0.06172839506172839,51.85185185185185,0)" xlink:href="#F"/><use transform="matrix(0.06172839506172839,0,0,0.06172839506172839,59.197530864197525,0)" xlink:href="#G"/><use transform="matrix(0.06172839506172839,0,0,0.06172839506172839,70.30864197530863,0)" xlink:href="#H"/><use transform="matrix(0.06172839506172839,0,0,0.06172839506172839,75.18518518518518,0)" xlink:href="#I"/><use transform="matrix(0.06172839506172839,0,0,0.06172839506172839,86.29629629629629,0)" xlink:href="#J"/><use transform="matrix(0.06172839506172839,0,0,0.06172839506172839,98.64197530864197,0)" xlink:href="#F"/></g><path d="M147 0H94L2-248h55l64 206c17-72 42-137 63-206h54" id="K"/><path d="M25-224v-37h50v37H25zM25 0v-190h50V0H25" id="L"/><path d="M137-138c1-29-70-34-71-4 15 46 118 7 119 86 1 83-164 76-172 9l43-7c4 19 20 25 44 25 33 8 57-30 24-41C81-84 22-81 20-136c-2-80 154-74 161-7" id="M"/><path d="M115-3C79 11 28 4 28-45v-112H4v-33h27l15-45h31v45h36v33H77v99c-1 23 16 31 38 25v30" id="N"/><path d="M133-34C117-15 103 5 69 4 32 3 11-16 11-54c-1-60 55-63 116-61 1-26-3-47-28-47-18 1-26 9-28 27l-52-2c7-38 36-58 82-57s74 22 75 68l1 82c-1 14 12 18 25 15v27c-30 8-71 5-69-32zm-48 3c29 0 43-24 42-57-32 0-66-3-65 30 0 17 8 27 23 27" id="O"/><path d="M240-174c0 40-23 61-54 70L253 0h-59l-57-94H76V0H24v-248c93 4 217-23 216 74zM76-134c48-2 112 12 112-38 0-48-66-32-112-35v73" id="P"/><path d="M185-48c-13 30-37 53-82 52C43 2 14-33 14-96s30-98 90-98c62 0 83 45 84 108H66c0 31 8 55 39 56 18 0 30-7 34-22zm-45-69c5-46-57-63-70-21-2 6-4 13-4 21h74" id="Q"/><path d="M190-63c-7 42-38 67-86 67-59 0-84-38-90-98-12-110 154-137 174-36l-49 2c-2-19-15-32-35-32-30 0-35 28-38 64-6 74 65 87 74 30" id="R"/><path d="M25 0v-261h50V0H25" id="S"/><path d="M220-157c-53 9-28 100-34 157h-49v-107c1-27-5-49-29-50C55-147 81-57 75 0H25l-1-190h47c2 12-1 28 3 38 10-53 101-56 108 0 13-22 24-43 59-42 82 1 51 116 57 194h-49v-107c-1-25-5-48-29-50" id="T"/><path d="M110-194c64 0 96 36 96 99 0 64-35 99-97 99-61 0-95-36-95-99 0-62 34-99 96-99zm-1 164c35 0 45-28 45-65 0-40-10-65-43-65-34 0-45 26-45 65 0 36 10 65 43 65" id="U"/><path d="M169-182c-1-43-94-46-97-3 18 66 151 10 154 114 3 95-165 93-204 36-6-8-10-19-12-30l50-8c3 46 112 56 116 5-17-69-150-10-154-114-4-87 153-88 188-35 5 8 8 18 10 28" id="V"/><path d="M85 4C-2 5 27-109 22-190h50c7 57-23 150 33 157 60-5 35-97 40-157h50l1 190h-47c-2-12 1-28-3-38-12 25-28 42-61 42" id="W"/><path d="M135-194c53 0 70 44 70 98 0 56-19 98-73 100-31 1-45-17-59-34 3 33 2 69 2 105H25l-1-265h48c2 10 0 23 3 31 11-24 29-35 60-35zM114-30c33 0 39-31 40-66 0-38-9-64-40-64-56 0-55 130 0 130" id="X"/><path d="M135-150c-39-12-60 13-60 57V0H25l-1-190h47c2 13-1 29 3 40 6-28 27-53 61-41v41" id="Y"/><path d="M128 0H69L1-190h53L99-40l48-150h52" id="Z"/><g id="b"><use transform="matrix(0.05,0,0,0.05,0,0)" xlink:href="#K"/><use transform="matrix(0.05,0,0,0.05,11.65,0)" xlink:href="#L"/><use transform="matrix(0.05,0,0,0.05,16.65,0)" xlink:href="#M"/><use transform="matrix(0.05,0,0,0.05,26.649999999999995,0)" xlink:href="#N"/><use transform="matrix(0.05,0,0,0.05,32.6,0)" xlink:href="#O"/><use transform="matrix(0.05,0,0,0.05,42.6,0)" xlink:href="#P"/><use transform="matrix(0.05,0,0,0.05,55.550000000000004,0)" xlink:href="#Q"/><use transform="matrix(0.05,0,0,0.05,65.55000000000001,0)" xlink:href="#R"/><use transform="matrix(0.05,0,0,0.05,75.55000000000001,0)" xlink:href="#S"/><use transform="matrix(0.05,0,0,0.05,80.55000000000001,0)" xlink:href="#O"/><use transform="matrix(0.05,0,0,0.05,90.55000000000001,0)" xlink:href="#T"/><use transform="matrix(0.05,0,0,0.05,106.55000000000001,0)" xlink:href="#U"/><use transform="matrix(0.05,0,0,0.05,117.5,0)" xlink:href="#M"/><use transform="matrix(0.05,0,0,0.05,127.5,0)" xlink:href="#V"/><use transform="matrix(0.05,0,0,0.05,139.5,0)" xlink:href="#W"/><use transform="matrix(0.05,0,0,0.05,150.45,0)" xlink:href="#X"/><use transform="matrix(0.05,0,0,0.05,161.39999999999998,0)" xlink:href="#Q"/><use transform="matrix(0.05,0,0,0.05,171.39999999999998,0)" xlink:href="#Y"/><use transform="matrix(0.05,0,0,0.05,178.39999999999998,0)" xlink:href="#Z"/><use transform="matrix(0.05,0,0,0.05,188.39999999999998,0)" xlink:href="#L"/><use transform="matrix(0.05,0,0,0.05,193.39999999999998,0)" xlink:href="#M"/><use transform="matrix(0.05,0,0,0.05,203.39999999999998,0)" xlink:href="#U"/><use transform="matrix(0.05,0,0,0.05,214.34999999999997,0)" xlink:href="#Y"/></g><path d="M67-125c0 53 21 87 73 88 37 1 54-22 65-47l45 17C233-25 199 4 140 4 58 4 20-42 15-125 8-235 124-281 211-232c18 10 29 29 36 50l-46 12c-8-25-30-41-62-41-52 0-71 34-72 86" id="aa"/><path d="M135-194c87-1 58 113 63 194h-50c-7-57 23-157-34-157-59 0-34 97-39 157H25l-1-190h47c2 12-1 28 3 38 12-26 28-41 61-42" id="ab"/><path d="M88-194c31-1 46 15 58 34l-1-101h50l1 261h-48c-2-10 0-23-3-31C134-8 116 4 84 4 32 4 16-41 15-95c0-56 19-97 73-99zm17 164c33 0 40-30 41-66 1-37-9-64-41-64s-38 30-39 65c0 43 13 65 39 65" id="ac"/><g id="c"><use transform="matrix(0.05,0,0,0.05,0,0)" xlink:href="#aa"/><use transform="matrix(0.05,0,0,0.05,12.950000000000001,0)" xlink:href="#U"/><use transform="matrix(0.05,0,0,0.05,23.900000000000002,0)" xlink:href="#ab"/><use transform="matrix(0.05,0,0,0.05,34.85,0)" xlink:href="#N"/><use transform="matrix(0.05,0,0,0.05,40.800000000000004,0)" xlink:href="#Y"/><use transform="matrix(0.05,0,0,0.05,47.800000000000004,0)" xlink:href="#U"/><use transform="matrix(0.05,0,0,0.05,58.75,0)" xlink:href="#S"/><use transform="matrix(0.05,0,0,0.05,63.75,0)" xlink:href="#O"/><use transform="matrix(0.05,0,0,0.05,73.75,0)" xlink:href="#ac"/><use transform="matrix(0.05,0,0,0.05,84.7,0)" xlink:href="#U"/><use transform="matrix(0.05,0,0,0.05,95.65,0)" xlink:href="#Y"/><use transform="matrix(0.05,0,0,0.05,102.65,0)" xlink:href="#P"/><use transform="matrix(0.05,0,0,0.05,115.60000000000001,0)" xlink:href="#Q"/><use transform="matrix(0.05,0,0,0.05,125.60000000000001,0)" xlink:href="#R"/><use transform="matrix(0.05,0,0,0.05,135.60000000000002,0)" xlink:href="#S"/><use transform="matrix(0.05,0,0,0.05,140.60000000000002,0)" xlink:href="#O"/><use transform="matrix(0.05,0,0,0.05,150.60000000000002,0)" xlink:href="#T"/><use transform="matrix(0.05,0,0,0.05,166.60000000000002,0)" xlink:href="#U"/><use transform="matrix(0.05,0,0,0.05,177.55,0)" xlink:href="#M"/></g><path fill="#333" d="M240-174c0 40-23 61-54 70L253 0h-59l-57-94H76V0H24v-248c93 4 217-23 216 74zM76-134c48-2 112 12 112-38 0-48-66-32-112-35v73" id="ad"/><path fill="#333" d="M185-48c-13 30-37 53-82 52C43 2 14-33 14-96s30-98 90-98c62 0 83 45 84 108H66c0 31 8 55 39 56 18 0 30-7 34-22zm-45-69c5-46-57-63-70-21-2 6-4 13-4 21h74" id="ae"/><path fill="#333" d="M190-63c-7 42-38 67-86 67-59 0-84-38-90-98-12-110 154-137 174-36l-49 2c-2-19-15-32-35-32-30 0-35 28-38 64-6 74 65 87 74 30" id="af"/><path fill="#333" d="M25 0v-261h50V0H25" id="ag"/><path fill="#333" d="M133-34C117-15 103 5 69 4 32 3 11-16 11-54c-1-60 55-63 116-61 1-26-3-47-28-47-18 1-26 9-28 27l-52-2c7-38 36-58 82-57s74 22 75 68l1 82c-1 14 12 18 25 15v27c-30 8-71 5-69-32zm-48 3c29 0 43-24 42-57-32 0-66-3-65 30 0 17 8 27 23 27" id="ah"/><path fill="#333" d="M220-157c-53 9-28 100-34 157h-49v-107c1-27-5-49-29-50C55-147 81-57 75 0H25l-1-190h47c2 12-1 28 3 38 10-53 101-56 108 0 13-22 24-43 59-42 82 1 51 116 57 194h-49v-107c-1-25-5-48-29-50" id="ai"/><path fill="#333" d="M110-194c64 0 96 36 96 99 0 64-35 99-97 99-61 0-95-36-95-99 0-62 34-99 96-99zm-1 164c35 0 45-28 45-65 0-40-10-65-43-65-34 0-45 26-45 65 0 36 10 65 43 65" id="aj"/><path fill="#333" d="M137-138c1-29-70-34-71-4 15 46 118 7 119 86 1 83-164 76-172 9l43-7c4 19 20 25 44 25 33 8 57-30 24-41C81-84 22-81 20-136c-2-80 154-74 161-7" id="ak"/><g id="d"><use transform="matrix(0.06172839506172839,0,0,0.06172839506172839,0,0)" xlink:href="#ad"/><use transform="matrix(0.06172839506172839,0,0,0.06172839506172839,15.987654320987653,0)" xlink:href="#ae"/><use transform="matrix(0.06172839506172839,0,0,0.06172839506172839,28.333333333333332,0)" xlink:href="#af"/><use transform="matrix(0.06172839506172839,0,0,0.06172839506172839,40.67901234567901,0)" xlink:href="#ag"/><use transform="matrix(0.06172839506172839,0,0,0.06172839506172839,46.851851851851855,0)" xlink:href="#ah"/><use transform="matrix(0.06172839506172839,0,0,0.06172839506172839,59.19753086419753,0)" xlink:href="#ai"/><use transform="matrix(0.06172839506172839,0,0,0.06172839506172839,78.95061728395062,0)" xlink:href="#aj"/><use transform="matrix(0.06172839506172839,0,0,0.06172839506172839,92.46913580246914,0)" xlink:href="#ak"/></g><path fill="#333" d="M18-100v-36l175-74v27L42-118l151 64v27" id="al"/><path fill="#333" d="M33 0v-248h34V0H33" id="am"/><path fill="#333" d="M117-194c89-4 53 116 60 194h-32v-121c0-31-8-49-39-48C34-167 62-67 57 0H25l-1-190h30c1 10-1 24 2 32 11-22 29-35 61-36" id="an"/><path fill="#333" d="M59-47c-2 24 18 29 38 22v24C64 9 27 4 27-40v-127H5v-23h24l9-43h21v43h35v23H59v120" id="ao"/><path fill="#333" d="M101-234c-31-9-42 10-38 44h38v23H63V0H32v-167H5v-23h27c-7-52 17-82 69-68v24" id="ap"/><path fill="#333" d="M141-36C126-15 110 5 73 4 37 3 15-17 15-53c-1-64 63-63 125-63 3-35-9-54-41-54-24 1-41 7-42 31l-33-3c5-37 33-52 76-52 45 0 72 20 72 64v82c-1 20 7 32 28 27v20c-31 9-61-2-59-35zM48-53c0 20 12 33 32 33 41-3 63-29 60-74-43 2-92-5-92 41" id="aq"/><path fill="#333" d="M9 0v-24l116-142H16v-24h144v24L44-24h123V0H9" id="ar"/><path fill="#333" d="M18-27v-27l151-64-151-65v-27l175 74v36" id="as"/><g id="e"><use transform="matrix(0.06172839506172839,0,0,0.06172839506172839,0,0)" xlink:href="#al"/><use transform="matrix(0.06172839506172839,0,0,0.06172839506172839,12.962962962962962,0)" xlink:href="#am"/><use transform="matrix(0.06172839506172839,0,0,0.06172839506172839,19.1358024691358,0)" xlink:href="#an"/><use transform="matrix(0.06172839506172839,0,0,0.06172839506172839,31.48148148148148,0)" xlink:href="#ao"/><use transform="matrix(0.06172839506172839,0,0,0.06172839506172839,37.65432098765432,0)" xlink:href="#E"/><use transform="matrix(0.06172839506172839,0,0,0.06172839506172839,50,0)" xlink:href="#F"/><use transform="matrix(0.06172839506172839,0,0,0.06172839506172839,57.34567901234568,0)" xlink:href="#ap"/><use transform="matrix(0.06172839506172839,0,0,0.06172839506172839,63.51851851851851,0)" xlink:href="#aq"/><use transform="matrix(0.06172839506172839,0,0,0.06172839506172839,75.8641975308642,0)" xlink:href="#ar"/><use transform="matrix(0.06172839506172839,0,0,0.06172839506172839,86.97530864197532,0)" xlink:href="#as"/></g><path fill="#333" d="M30 0v-248h187v28H63v79h144v27H63v87h162V0H30" id="at"/><path fill="#333" d="M85-194c31 0 48 13 60 33l-1-100h32l1 261h-30c-2-10 0-23-3-31C134-8 116 4 85 4 32 4 16-35 15-94c0-66 23-100 70-100zm9 24c-40 0-46 34-46 75 0 40 6 74 45 74 42 0 51-32 51-76 0-42-9-74-50-73" id="au"/><g id="f"><use transform="matrix(0.06172839506172839,0,0,0.06172839506172839,0,0)" xlink:href="#al"/><use transform="matrix(0.06172839506172839,0,0,0.06172839506172839,12.962962962962962,0)" xlink:href="#at"/><use transform="matrix(0.06172839506172839,0,0,0.06172839506172839,27.777777777777775,0)" xlink:href="#an"/><use transform="matrix(0.06172839506172839,0,0,0.06172839506172839,40.123456790123456,0)" xlink:href="#ao"/><use transform="matrix(0.06172839506172839,0,0,0.06172839506172839,46.2962962962963,0)" xlink:href="#H"/><use transform="matrix(0.06172839506172839,0,0,0.06172839506172839,51.17283950617284,0)" xlink:href="#au"/><use transform="matrix(0.06172839506172839,0,0,0.06172839506172839,63.51851851851851,0)" xlink:href="#aq"/><use transform="matrix(0.06172839506172839,0,0,0.06172839506172839,75.8641975308642,0)" xlink:href="#au"/><use transform="matrix(0.06172839506172839,0,0,0.06172839506172839,88.20987654320989,0)" xlink:href="#as"/></g><path fill="#333" d="M212-179c-10-28-35-45-73-45-59 0-87 40-87 99 0 60 29 101 89 101 43 0 62-24 78-52l27 14C228-24 195 4 139 4 59 4 22-46 18-125c-6-104 99-153 187-111 19 9 31 26 39 46" id="av"/><path fill="#333" d="M24 0v-261h32V0H24" id="aw"/><g id="g"><use transform="matrix(0.06172839506172839,0,0,0.06172839506172839,0,0)" xlink:href="#al"/><use transform="matrix(0.06172839506172839,0,0,0.06172839506172839,12.962962962962962,0)" xlink:href="#av"/><use transform="matrix(0.06172839506172839,0,0,0.06172839506172839,28.950617283950614,0)" xlink:href="#J"/><use transform="matrix(0.06172839506172839,0,0,0.06172839506172839,41.29629629629629,0)" xlink:href="#an"/><use transform="matrix(0.06172839506172839,0,0,0.06172839506172839,53.64197530864197,0)" xlink:href="#ao"/><use transform="matrix(0.06172839506172839,0,0,0.06172839506172839,59.81481481481481,0)" xlink:href="#F"/><use transform="matrix(0.06172839506172839,0,0,0.06172839506172839,67.1604938271605,0)" xlink:href="#J"/><use transform="matrix(0.06172839506172839,0,0,0.06172839506172839,79.50617283950618,0)" xlink:href="#aw"/><use transform="matrix(0.06172839506172839,0,0,0.06172839506172839,84.38271604938272,0)" xlink:href="#aq"/><use transform="matrix(0.06172839506172839,0,0,0.06172839506172839,96.7283950617284,0)" xlink:href="#au"/><use transform="matrix(0.06172839506172839,0,0,0.06172839506172839,109.07407407407409,0)" xlink:href="#J"/><use transform="matrix(0.06172839506172839,0,0,0.06172839506172839,121.41975308641977,0)" xlink:href="#F"/><use transform="matrix(0.06172839506172839,0,0,0.06172839506172839,128.76543209876544,0)" xlink:href="#as"/></g><path fill="#333" d="M23 0v-37h61v-169l-59 37v-38l62-41h46v211h57V0H23" id="ax"/><path fill="#333" d="M35-132v-50h50v50H35zM35 0v-49h50V0H35" id="ay"/><path fill="#333" d="M147 0H94L2-248h55l64 206c17-72 42-137 63-206h54" id="az"/><path fill="#333" d="M135-150c-39-12-60 13-60 57V0H25l-1-190h47c2 13-1 29 3 40 6-28 27-53 61-41v41" id="aA"/><g id="h"><use transform="matrix(0.04938271604938272,0,0,0.04938271604938272,0,0)" xlink:href="#ax"/><use transform="matrix(0.04938271604938272,0,0,0.04938271604938272,9.876543209876544,0)" xlink:href="#ay"/><use transform="matrix(0.04938271604938272,0,0,0.04938271604938272,15.753086419753087,0)" xlink:href="#az"/><use transform="matrix(0.04938271604938272,0,0,0.04938271604938272,26.617283950617285,0)" xlink:href="#ae"/><use transform="matrix(0.04938271604938272,0,0,0.04938271604938272,36.49382716049383,0)" xlink:href="#aA"/></g><g id="i"><use transform="matrix(0.04938271604938272,0,0,0.04938271604938272,0,0)" xlink:href="#ad"/><use transform="matrix(0.04938271604938272,0,0,0.04938271604938272,12.790123456790125,0)" xlink:href="#ae"/><use transform="matrix(0.04938271604938272,0,0,0.04938271604938272,22.66666666666667,0)" xlink:href="#af"/><use transform="matrix(0.04938271604938272,0,0,0.04938271604938272,32.543209876543216,0)" xlink:href="#ag"/><use transform="matrix(0.04938271604938272,0,0,0.04938271604938272,37.48148148148149,0)" xlink:href="#ah"/><use transform="matrix(0.04938271604938272,0,0,0.04938271604938272,47.35802469135803,0)" xlink:href="#ai"/><use transform="matrix(0.04938271604938272,0,0,0.04938271604938272,63.1604938271605,0)" xlink:href="#aj"/><use transform="matrix(0.04938271604938272,0,0,0.04938271604938272,73.97530864197532,0)" xlink:href="#ak"/></g><path fill="#333" d="M182-182c0 78-84 86-111 141h115V0H12c-6-101 99-100 120-180 1-22-12-31-33-32-23 0-32 14-35 34l-49-3c5-45 32-70 84-70 51 0 83 22 83 69" id="aB"/><path fill="#333" d="M115-3C79 11 28 4 28-45v-112H4v-33h27l15-45h31v45h36v33H77v99c-1 23 16 31 38 25v30" id="aC"/><path fill="#333" d="M-4 44V30h207v14H-4" id="aD"/><path fill="#333" d="M67-93c0 74 22 123 53 168H70C40 30 18-18 18-93s22-123 52-168h50c-32 44-53 94-53 168" id="aE"/><path fill="#333" d="M102-93c0 74-22 123-52 168H0C30 29 54-18 53-93c0-74-22-123-53-168h50c30 45 52 94 52 168" id="aF"/><path fill="#333" d="M128 0H69L1-190h53L99-40l48-150h52" id="aG"/><path fill="#333" d="M25-224v-37h50v37H25zM25 0v-190h50V0H25" id="aH"/><path fill="#333" d="M88-194c31-1 46 15 58 34l-1-101h50l1 261h-48c-2-10 0-23-3-31C134-8 116 4 84 4 32 4 16-41 15-95c0-56 19-97 73-99zm17 164c33 0 40-30 41-66 1-37-9-64-41-64s-38 30-39 65c0 43 13 65 39 65" id="aI"/><g id="j"><use transform="matrix(0.04938271604938272,0,0,0.04938271604938272,0,0)" xlink:href="#aB"/><use transform="matrix(0.04938271604938272,0,0,0.04938271604938272,9.876543209876544,0)" xlink:href="#ay"/><use transform="matrix(0.04938271604938272,0,0,0.04938271604938272,15.753086419753087,0)" xlink:href="#ai"/><use transform="matrix(0.04938271604938272,0,0,0.04938271604938272,31.555555555555557,0)" xlink:href="#aj"/><use transform="matrix(0.04938271604938272,0,0,0.04938271604938272,42.370370370370374,0)" xlink:href="#ak"/><use transform="matrix(0.04938271604938272,0,0,0.04938271604938272,52.24691358024692,0)" xlink:href="#aC"/><use transform="matrix(0.04938271604938272,0,0,0.04938271604938272,58.12345679012346,0)" xlink:href="#aA"/><use transform="matrix(0.04938271604938272,0,0,0.04938271604938272,65.03703703703704,0)" xlink:href="#ah"/><use transform="matrix(0.04938271604938272,0,0,0.04938271604938272,74.91358024691358,0)" xlink:href="#aA"/><use transform="matrix(0.04938271604938272,0,0,0.04938271604938272,81.82716049382717,0)" xlink:href="#aD"/><use transform="matrix(0.04938271604938272,0,0,0.04938271604938272,91.70370370370371,0)" xlink:href="#aA"/><use transform="matrix(0.04938271604938272,0,0,0.04938271604938272,98.61728395061729,0)" xlink:href="#ae"/><use transform="matrix(0.04938271604938272,0,0,0.04938271604938272,108.49382716049384,0)" xlink:href="#af"/><use transform="matrix(0.04938271604938272,0,0,0.04938271604938272,118.37037037037038,0)" xlink:href="#ag"/><use transform="matrix(0.04938271604938272,0,0,0.04938271604938272,123.30864197530865,0)" xlink:href="#ah"/><use transform="matrix(0.04938271604938272,0,0,0.04938271604938272,133.18518518518522,0)" xlink:href="#ai"/><use transform="matrix(0.04938271604938272,0,0,0.04938271604938272,148.9876543209877,0)" xlink:href="#aj"/><use transform="matrix(0.04938271604938272,0,0,0.04938271604938272,159.8024691358025,0)" xlink:href="#ak"/><use transform="matrix(0.04938271604938272,0,0,0.04938271604938272,169.67901234567904,0)" xlink:href="#aE"/><use transform="matrix(0.04938271604938272,0,0,0.04938271604938272,175.55555555555557,0)" xlink:href="#aF"/><use transform="matrix(0.04938271604938272,0,0,0.04938271604938272,181.4320987654321,0)" xlink:href="#ay"/><use transform="matrix(0.04938271604938272,0,0,0.04938271604938272,187.30864197530863,0)" xlink:href="#aG"/><use transform="matrix(0.04938271604938272,0,0,0.04938271604938272,197.18518518518516,0)" xlink:href="#aj"/><use transform="matrix(0.04938271604938272,0,0,0.04938271604938272,207.99999999999997,0)" xlink:href="#aH"/><use transform="matrix(0.04938271604938272,0,0,0.04938271604938272,212.93827160493825,0)" xlink:href="#aI"/></g><path fill="#333" d="M128-127c34 4 56 21 59 58 7 91-148 94-172 28-4-9-6-17-7-26l51-5c1 24 16 35 40 36 23 0 39-12 38-36-1-31-31-36-65-34v-40c32 2 59-3 59-33 0-20-13-33-34-33s-33 13-35 32l-50-3c6-44 37-68 86-68 50 0 83 20 83 66 0 35-22 52-53 58" id="aJ"/><path fill="#333" d="M135-194c52 0 70 43 70 98 0 56-19 99-73 100-30 1-46-15-58-35L72 0H24l1-261h50v104c11-23 29-37 60-37zM114-30c31 0 40-27 40-66 0-37-7-63-39-63s-41 28-41 65c0 36 8 64 40 64" id="aK"/><path fill="#333" d="M135-194c87-1 58 113 63 194h-50c-7-57 23-157-34-157-59 0-34 97-39 157H25l-1-190h47c2 12-1 28 3 38 12-26 28-41 61-42" id="aL"/><path fill="#333" d="M85 4C-2 5 27-109 22-190h50c7 57-23 150 33 157 60-5 35-97 40-157h50l1 190h-47c-2-12 1-28-3-38-12 25-28 42-61 42" id="aM"/><path fill="#333" d="M24 0v-54h51V0H24" id="aN"/><path fill="#333" d="M135-194c53 0 70 44 70 98 0 56-19 98-73 100-31 1-45-17-59-34 3 33 2 69 2 105H25l-1-265h48c2 10 0 23 3 31 11-24 29-35 60-35zM114-30c33 0 39-31 40-66 0-38-9-64-40-64-56 0-55 130 0 130" id="aO"/><g id="k"><use transform="matrix(0.04938271604938272,0,0,0.04938271604938272,0,0)" xlink:href="#aJ"/><use transform="matrix(0.04938271604938272,0,0,0.04938271604938272,9.876543209876544,0)" xlink:href="#ay"/><use transform="matrix(0.04938271604938272,0,0,0.04938271604938272,15.753086419753087,0)" xlink:href="#aj"/><use transform="matrix(0.04938271604938272,0,0,0.04938271604938272,26.567901234567902,0)" xlink:href="#aK"/><use transform="matrix(0.04938271604938272,0,0,0.04938271604938272,37.38271604938272,0)" xlink:href="#aC"/><use transform="matrix(0.04938271604938272,0,0,0.04938271604938272,43.25925925925927,0)" xlink:href="#ae"/><use transform="matrix(0.04938271604938272,0,0,0.04938271604938272,53.135802469135804,0)" xlink:href="#aL"/><use transform="matrix(0.04938271604938272,0,0,0.04938271604938272,63.95061728395062,0)" xlink:href="#ae"/><use transform="matrix(0.04938271604938272,0,0,0.04938271604938272,73.82716049382717,0)" xlink:href="#aA"/><use transform="matrix(0.04938271604938272,0,0,0.04938271604938272,80.74074074074075,0)" xlink:href="#aD"/><use transform="matrix(0.04938271604938272,0,0,0.04938271604938272,90.61728395061729,0)" xlink:href="#aA"/><use transform="matrix(0.04938271604938272,0,0,0.04938271604938272,97.53086419753087,0)" xlink:href="#ae"/><use transform="matrix(0.04938271604938272,0,0,0.04938271604938272,107.40740740740742,0)" xlink:href="#af"/><use transform="matrix(0.04938271604938272,0,0,0.04938271604938272,117.28395061728396,0)" xlink:href="#ag"/><use transform="matrix(0.04938271604938272,0,0,0.04938271604938272,122.22222222222223,0)" xlink:href="#ah"/><use transform="matrix(0.04938271604938272,0,0,0.04938271604938272,132.0987654320988,0)" xlink:href="#ai"/><use transform="matrix(0.04938271604938272,0,0,0.04938271604938272,147.90123456790127,0)" xlink:href="#aj"/><use transform="matrix(0.04938271604938272,0,0,0.04938271604938272,158.71604938271608,0)" xlink:href="#ak"/><use transform="matrix(0.04938271604938272,0,0,0.04938271604938272,168.5925925925926,0)" xlink:href="#aE"/><use transform="matrix(0.04938271604938272,0,0,0.04938271604938272,174.46913580246914,0)" xlink:href="#aM"/><use transform="matrix(0.04938271604938272,0,0,0.04938271604938272,185.28395061728395,0)" xlink:href="#ak"/><use transform="matrix(0.04938271604938272,0,0,0.04938271604938272,195.1604938271605,0)" xlink:href="#aM"/><use transform="matrix(0.04938271604938272,0,0,0.04938271604938272,205.97530864197532,0)" xlink:href="#ah"/><use transform="matrix(0.04938271604938272,0,0,0.04938271604938272,215.85185185185182,0)" xlink:href="#aA"/><use transform="matrix(0.04938271604938272,0,0,0.04938271604938272,222.76543209876542,0)" xlink:href="#aH"/><use transform="matrix(0.04938271604938272,0,0,0.04938271604938272,227.70370370370367,0)" xlink:href="#aj"/><use transform="matrix(0.04938271604938272,0,0,0.04938271604938272,238.5185185185185,0)" xlink:href="#aN"/><use transform="matrix(0.04938271604938272,0,0,0.04938271604938272,243.45679012345676,0)" xlink:href="#ak"/><use transform="matrix(0.04938271604938272,0,0,0.04938271604938272,253.33333333333331,0)" xlink:href="#aM"/><use transform="matrix(0.04938271604938272,0,0,0.04938271604938272,264.14814814814815,0)" xlink:href="#aO"/><use transform="matrix(0.04938271604938272,0,0,0.04938271604938272,274.962962962963,0)" xlink:href="#ae"/><use transform="matrix(0.04938271604938272,0,0,0.04938271604938272,284.83950617283955,0)" xlink:href="#aA"/><use transform="matrix(0.04938271604938272,0,0,0.04938271604938272,291.7530864197531,0)" xlink:href="#aG"/><use transform="matrix(0.04938271604938272,0,0,0.04938271604938272,301.6296296296297,0)" xlink:href="#aH"/><use transform="matrix(0.04938271604938272,0,0,0.04938271604938272,306.56790123456796,0)" xlink:href="#ak"/><use transform="matrix(0.04938271604938272,0,0,0.04938271604938272,316.4444444444445,0)" xlink:href="#aj"/><use transform="matrix(0.04938271604938272,0,0,0.04938271604938272,327.25925925925935,0)" xlink:href="#aA"/><use transform="matrix(0.04938271604938272,0,0,0.04938271604938272,334.1728395061729,0)" xlink:href="#aF"/><use transform="matrix(0.04938271604938272,0,0,0.04938271604938272,340.0493827160495,0)" xlink:href="#ay"/><use transform="matrix(0.04938271604938272,0,0,0.04938271604938272,345.92592592592604,0)" xlink:href="#aG"/><use transform="matrix(0.04938271604938272,0,0,0.04938271604938272,355.8024691358026,0)" xlink:href="#aj"/><use transform="matrix(0.04938271604938272,0,0,0.04938271604938272,366.61728395061743,0)" xlink:href="#aH"/><use transform="matrix(0.04938271604938272,0,0,0.04938271604938272,371.5555555555557,0)" xlink:href="#aI"/></g><path fill="#333" d="M165-50V0h-47v-50H5v-38l105-160h55v161h33v37h-33zm-47-37l2-116L46-87h72" id="aP"/><path fill="#333" d="M24 0v-248h195v40H76v63h132v40H76v65h150V0H24" id="aQ"/><path fill="#333" d="M25-224v-37h50v37H25zM75 22c2 45-34 59-81 51V38c22 5 31-5 31-27v-201h50V22" id="aR"/><path fill="#333" d="M110-194c64 0 96 36 96 99 0 64-35 99-97 99-61 0-95-36-95-99 0-62 34-99 96-99zm-1 164c35 0 45-28 45-65 0-40-10-65-43-65-34 0-45 26-45 65 0 36 10 65 43 65zM81-208v-5l45-51h45v8l-60 48H81" id="aS"/><g id="l"><use transform="matrix(0.04938271604938272,0,0,0.04938271604938272,0,0)" xlink:href="#aP"/><use transform="matrix(0.04938271604938272,0,0,0.04938271604938272,9.876543209876544,0)" xlink:href="#ay"/><use transform="matrix(0.04938271604938272,0,0,0.04938271604938272,15.753086419753087,0)" xlink:href="#aQ"/><use transform="matrix(0.04938271604938272,0,0,0.04938271604938272,27.604938271604947,0)" xlink:href="#aR"/><use transform="matrix(0.04938271604938272,0,0,0.04938271604938272,32.543209876543216,0)" xlink:href="#ae"/><use transform="matrix(0.04938271604938272,0,0,0.04938271604938272,42.41975308641976,0)" xlink:href="#af"/><use transform="matrix(0.04938271604938272,0,0,0.04938271604938272,52.2962962962963,0)" xlink:href="#aM"/><use transform="matrix(0.04938271604938272,0,0,0.04938271604938272,63.111111111111114,0)" xlink:href="#af"/><use transform="matrix(0.04938271604938272,0,0,0.04938271604938272,72.98765432098767,0)" xlink:href="#aH"/><use transform="matrix(0.04938271604938272,0,0,0.04938271604938272,77.92592592592595,0)" xlink:href="#aS"/><use transform="matrix(0.04938271604938272,0,0,0.04938271604938272,88.74074074074076,0)" xlink:href="#aL"/></g><path fill="#333" d="M144 0l-44-69L55 0H2l70-98-66-92h53l41 62 40-62h54l-67 91 71 99h-54" id="aT"/><g id="m"><use transform="matrix(0.04938271604938272,0,0,0.04938271604938272,0,0)" xlink:href="#ae"/><use transform="matrix(0.04938271604938272,0,0,0.04938271604938272,9.876543209876544,0)" xlink:href="#aT"/><use transform="matrix(0.04938271604938272,0,0,0.04938271604938272,19.75308641975309,0)" xlink:href="#aH"/><use transform="matrix(0.04938271604938272,0,0,0.04938271604938272,24.69135802469136,0)" xlink:href="#aC"/><use transform="matrix(0.04938271604938272,0,0,0.04938271604938272,30.567901234567906,0)" xlink:href="#aj"/><use transform="matrix(0.04938271604938272,0,0,0.04938271604938272,41.38271604938272,0)" xlink:href="#ak"/><use transform="matrix(0.04938271604938272,0,0,0.04938271604938272,51.25925925925927,0)" xlink:href="#ah"/></g><path fill="#333" d="M115-159c48 0 72 30 72 78 0 54-30 85-83 85-64 0-91-50-91-122 0-98 58-163 141-120 15 8 21 24 27 44l-47 6c-5-31-48-31-61-4-7 14-11 33-11 60 9-17 28-27 53-27zM102-35c24 0 36-20 36-45s-11-43-37-43c-23 0-36 14-36 38 0 27 11 50 37 50" id="aU"/><g id="n"><use transform="matrix(0.04938271604938272,0,0,0.04938271604938272,0,0)" xlink:href="#aU"/><use transform="matrix(0.04938271604938272,0,0,0.04938271604938272,9.876543209876544,0)" xlink:href="#ay"/><use transform="matrix(0.04938271604938272,0,0,0.04938271604938272,15.753086419753087,0)" xlink:href="#ai"/><use transform="matrix(0.04938271604938272,0,0,0.04938271604938272,31.555555555555557,0)" xlink:href="#aj"/><use transform="matrix(0.04938271604938272,0,0,0.04938271604938272,42.370370370370374,0)" xlink:href="#ak"/><use transform="matrix(0.04938271604938272,0,0,0.04938271604938272,52.24691358024692,0)" xlink:href="#aC"/><use transform="matrix(0.04938271604938272,0,0,0.04938271604938272,58.12345679012346,0)" xlink:href="#aA"/><use transform="matrix(0.04938271604938272,0,0,0.04938271604938272,65.03703703703704,0)" xlink:href="#ah"/><use transform="matrix(0.04938271604938272,0,0,0.04938271604938272,74.91358024691358,0)" xlink:href="#aA"/><use transform="matrix(0.04938271604938272,0,0,0.04938271604938272,81.82716049382717,0)" xlink:href="#aD"/><use transform="matrix(0.04938271604938272,0,0,0.04938271604938272,91.70370370370371,0)" xlink:href="#aA"/><use transform="matrix(0.04938271604938272,0,0,0.04938271604938272,98.61728395061729,0)" xlink:href="#ae"/><use transform="matrix(0.04938271604938272,0,0,0.04938271604938272,108.49382716049384,0)" xlink:href="#af"/><use transform="matrix(0.04938271604938272,0,0,0.04938271604938272,118.37037037037038,0)" xlink:href="#ag"/><use transform="matrix(0.04938271604938272,0,0,0.04938271604938272,123.30864197530865,0)" xlink:href="#ah"/><use transform="matrix(0.04938271604938272,0,0,0.04938271604938272,133.18518518518522,0)" xlink:href="#ai"/><use transform="matrix(0.04938271604938272,0,0,0.04938271604938272,148.9876543209877,0)" xlink:href="#aj"/><use transform="matrix(0.04938271604938272,0,0,0.04938271604938272,159.8024691358025,0)" xlink:href="#ak"/><use transform="matrix(0.04938271604938272,0,0,0.04938271604938272,169.67901234567904,0)" xlink:href="#aE"/><use transform="matrix(0.04938271604938272,0,0,0.04938271604938272,175.55555555555557,0)" xlink:href="#aF"/><use transform="matrix(0.04938271604938272,0,0,0.04938271604938272,181.4320987654321,0)" xlink:href="#ay"/><use transform="matrix(0.04938271604938272,0,0,0.04938271604938272,187.30864197530863,0)" xlink:href="#aG"/><use transform="matrix(0.04938271604938272,0,0,0.04938271604938272,197.18518518518516,0)" xlink:href="#aj"/><use transform="matrix(0.04938271604938272,0,0,0.04938271604938272,207.99999999999997,0)" xlink:href="#aH"/><use transform="matrix(0.04938271604938272,0,0,0.04938271604938272,212.93827160493825,0)" xlink:href="#aI"/></g><path fill="#333" d="M52 0c1-96 47-148 87-207H15v-41h169v40c-36 62-79 113-81 208H52" id="aV"/><path fill="#333" d="M182-130c37 4 62 22 62 59C244 23 116-4 24 0v-248c84 5 203-23 205 63 0 31-19 50-47 55zM76-148c40-3 101 13 101-30 0-44-60-28-101-31v61zm0 110c48-3 116 14 116-37 0-48-69-32-116-35v72" id="aW"/><g id="o"><use transform="matrix(0.04938271604938272,0,0,0.04938271604938272,0,0)" xlink:href="#aV"/><use transform="matrix(0.04938271604938272,0,0,0.04938271604938272,9.876543209876544,0)" xlink:href="#ay"/><use transform="matrix(0.04938271604938272,0,0,0.04938271604938272,15.753086419753087,0)" xlink:href="#aW"/><use transform="matrix(0.04938271604938272,0,0,0.04938271604938272,28.54320987654322,0)" xlink:href="#aM"/><use transform="matrix(0.04938271604938272,0,0,0.04938271604938272,39.35802469135803,0)" xlink:href="#ak"/><use transform="matrix(0.04938271604938272,0,0,0.04938271604938272,49.23456790123458,0)" xlink:href="#af"/><use transform="matrix(0.04938271604938272,0,0,0.04938271604938272,59.111111111111114,0)" xlink:href="#ah"/><use transform="matrix(0.04938271604938272,0,0,0.04938271604938272,68.98765432098767,0)" xlink:href="#aA"/></g><path fill="#333" d="M138-131c27 9 52 24 51 61 0 53-36 74-89 74S11-19 11-69c0-35 22-54 51-61-78-25-46-121 38-121 51 0 83 19 83 66 0 30-18 49-45 54zm-38-16c24 0 32-13 32-36 1-23-11-34-32-34-22 0-33 12-32 34 0 22 9 36 32 36zm1 116c27 0 37-17 37-43 0-25-13-39-39-39-24 0-37 15-37 40 0 27 11 42 39 42" id="aX"/><path fill="#333" d="M24 0v-248h52V0H24" id="aY"/><path fill="#333" d="M24-248c120-7 223 5 221 122C244-46 201 0 124 0H24v-248zM76-40c74 7 117-18 117-86 0-67-45-88-117-82v168" id="aZ"/><g id="p"><use transform="matrix(0.04938271604938272,0,0,0.04938271604938272,0,0)" xlink:href="#aX"/><use transform="matrix(0.04938271604938272,0,0,0.04938271604938272,9.876543209876544,0)" xlink:href="#ay"/><use transform="matrix(0.04938271604938272,0,0,0.04938271604938272,15.753086419753087,0)" xlink:href="#aK"/><use transform="matrix(0.04938271604938272,0,0,0.04938271604938272,26.567901234567902,0)" xlink:href="#aM"/><use transform="matrix(0.04938271604938272,0,0,0.04938271604938272,37.38271604938272,0)" xlink:href="#ak"/><use transform="matrix(0.04938271604938272,0,0,0.04938271604938272,47.25925925925927,0)" xlink:href="#af"/><use transform="matrix(0.04938271604938272,0,0,0.04938271604938272,57.135802469135804,0)" xlink:href="#ah"/><use transform="matrix(0.04938271604938272,0,0,0.04938271604938272,67.01234567901236,0)" xlink:href="#aA"/><use transform="matrix(0.04938271604938272,0,0,0.04938271604938272,73.92592592592594,0)" xlink:href="#aD"/><use transform="matrix(0.04938271604938272,0,0,0.04938271604938272,83.80246913580248,0)" xlink:href="#aA"/><use transform="matrix(0.04938271604938272,0,0,0.04938271604938272,90.71604938271606,0)" xlink:href="#ae"/><use transform="matrix(0.04938271604938272,0,0,0.04938271604938272,100.59259259259261,0)" xlink:href="#af"/><use transform="matrix(0.04938271604938272,0,0,0.04938271604938272,110.46913580246914,0)" xlink:href="#ag"/><use transform="matrix(0.04938271604938272,0,0,0.04938271604938272,115.40740740740742,0)" xlink:href="#ah"/><use transform="matrix(0.04938271604938272,0,0,0.04938271604938272,125.28395061728396,0)" xlink:href="#ai"/><use transform="matrix(0.04938271604938272,0,0,0.04938271604938272,141.08641975308643,0)" xlink:href="#aj"/><use transform="matrix(0.04938271604938272,0,0,0.04938271604938272,151.90123456790124,0)" xlink:href="#aE"/><use transform="matrix(0.04938271604938272,0,0,0.04938271604938272,157.77777777777777,0)" xlink:href="#aY"/><use transform="matrix(0.04938271604938272,0,0,0.04938271604938272,162.71604938271605,0)" xlink:href="#aZ"/><use transform="matrix(0.04938271604938272,0,0,0.04938271604938272,175.50617283950618,0)" xlink:href="#aD"/><use transform="matrix(0.04938271604938272,0,0,0.04938271604938272,185.38271604938274,0)" xlink:href="#aA"/><use transform="matrix(0.04938271604938272,0,0,0.04938271604938272,192.2962962962963,0)" xlink:href="#ae"/><use transform="matrix(0.04938271604938272,0,0,0.04938271604938272,202.17283950617286,0)" xlink:href="#af"/><use transform="matrix(0.04938271604938272,0,0,0.04938271604938272,212.0493827160494,0)" xlink:href="#ag"/><use transform="matrix(0.04938271604938272,0,0,0.04938271604938272,216.98765432098773,0)" xlink:href="#ah"/><use transform="matrix(0.04938271604938272,0,0,0.04938271604938272,226.86419753086426,0)" xlink:href="#ai"/><use transform="matrix(0.04938271604938272,0,0,0.04938271604938272,242.66666666666674,0)" xlink:href="#aj"/><use transform="matrix(0.04938271604938272,0,0,0.04938271604938272,253.48148148148155,0)" xlink:href="#aF"/><use transform="matrix(0.04938271604938272,0,0,0.04938271604938272,259.3580246913581,0)" xlink:href="#ay"/><use transform="matrix(0.04938271604938272,0,0,0.04938271604938272,265.23456790123464,0)" xlink:href="#aG"/><use transform="matrix(0.04938271604938272,0,0,0.04938271604938272,275.1111111111112,0)" xlink:href="#aj"/><use transform="matrix(0.04938271604938272,0,0,0.04938271604938272,285.92592592592604,0)" xlink:href="#aH"/><use transform="matrix(0.04938271604938272,0,0,0.04938271604938272,290.8641975308643,0)" xlink:href="#aI"/></g><g id="q"><use transform="matrix(0.049382716049382706,0,0,0.049382716049382706,0,0)" xlink:href="#ax"/><use transform="matrix(0.049382716049382706,0,0,0.049382716049382706,9.87654320987654,0)" xlink:href="#aB"/><use transform="matrix(0.049382716049382706,0,0,0.049382716049382706,19.75308641975308,0)" xlink:href="#ay"/><use transform="matrix(0.049382716049382706,0,0,0.049382716049382706,25.629629629629626,0)" xlink:href="#aK"/><use transform="matrix(0.049382716049382706,0,0,0.049382716049382706,36.444444444444436,0)" xlink:href="#aj"/><use transform="matrix(0.049382716049382706,0,0,0.049382716049382706,47.25925925925925,0)" xlink:href="#aA"/><use transform="matrix(0.049382716049382706,0,0,0.049382716049382706,54.17283950617284,0)" xlink:href="#aA"/><use transform="matrix(0.049382716049382706,0,0,0.049382716049382706,61.08641975308642,0)" xlink:href="#ah"/><use transform="matrix(0.049382716049382706,0,0,0.049382716049382706,70.96296296296296,0)" xlink:href="#aA"/><use transform="matrix(0.049382716049382706,0,0,0.049382716049382706,77.87654320987654,0)" xlink:href="#aD"/><use transform="matrix(0.049382716049382706,0,0,0.049382716049382706,87.75308641975309,0)" xlink:href="#aA"/><use transform="matrix(0.049382716049382706,0,0,0.049382716049382706,94.66666666666667,0)" xlink:href="#ae"/><use transform="matrix(0.049382716049382706,0,0,0.049382716049382706,104.54320987654322,0)" xlink:href="#af"/><use transform="matrix(0.049382716049382706,0,0,0.049382716049382706,114.41975308641975,0)" xlink:href="#ag"/><use transform="matrix(0.049382716049382706,0,0,0.049382716049382706,119.35802469135803,0)" xlink:href="#ah"/><use transform="matrix(0.049382716049382706,0,0,0.049382716049382706,129.23456790123456,0)" xlink:href="#ai"/><use transform="matrix(0.049382716049382706,0,0,0.049382716049382706,145.037037037037,0)" xlink:href="#aj"/><use transform="matrix(0.049382716049382706,0,0,0.049382716049382706,155.85185185185182,0)" xlink:href="#aE"/><use transform="matrix(0.049382716049382706,0,0,0.049382716049382706,161.72839506172835,0)" xlink:href="#aY"/><use transform="matrix(0.049382716049382706,0,0,0.049382716049382706,166.66666666666663,0)" xlink:href="#aZ"/><use transform="matrix(0.049382716049382706,0,0,0.049382716049382706,179.45679012345676,0)" xlink:href="#aD"/><use transform="matrix(0.049382716049382706,0,0,0.049382716049382706,189.3333333333333,0)" xlink:href="#aA"/><use transform="matrix(0.049382716049382706,0,0,0.049382716049382706,196.24691358024685,0)" xlink:href="#ae"/><use transform="matrix(0.049382716049382706,0,0,0.049382716049382706,206.12345679012338,0)" xlink:href="#af"/><use transform="matrix(0.049382716049382706,0,0,0.049382716049382706,215.99999999999991,0)" xlink:href="#ag"/><use transform="matrix(0.049382716049382706,0,0,0.049382716049382706,220.9382716049382,0)" xlink:href="#ah"/><use transform="matrix(0.049382716049382706,0,0,0.049382716049382706,230.81481481481472,0)" xlink:href="#ai"/><use transform="matrix(0.049382716049382706,0,0,0.049382716049382706,246.61728395061718,0)" xlink:href="#aj"/><use transform="matrix(0.049382716049382706,0,0,0.049382716049382706,257.432098765432,0)" xlink:href="#aF"/><use transform="matrix(0.049382716049382706,0,0,0.049382716049382706,263.30864197530855,0)" xlink:href="#ay"/><use transform="matrix(0.049382716049382706,0,0,0.049382716049382706,269.1851851851851,0)" xlink:href="#aG"/><use transform="matrix(0.049382716049382706,0,0,0.049382716049382706,279.06172839506166,0)" xlink:href="#aj"/><use transform="matrix(0.049382716049382706,0,0,0.049382716049382706,289.8765432098765,0)" xlink:href="#aH"/><use transform="matrix(0.049382716049382706,0,0,0.049382716049382706,294.8148148148148,0)" xlink:href="#aI"/></g><path fill="#333" d="M76-54c-1 42 2 86-19 110H24C36 42 46 24 48 0H25v-54h51" id="ba"/><g id="r"><use transform="matrix(0.049382716049382706,0,0,0.049382716049382706,0,0)" xlink:href="#ax"/><use transform="matrix(0.049382716049382706,0,0,0.049382716049382706,8.888888888888888,0)" xlink:href="#ax"/><use transform="matrix(0.049382716049382706,0,0,0.049382716049382706,18.76543209876543,0)" xlink:href="#ay"/><use transform="matrix(0.049382716049382706,0,0,0.049382716049382706,24.64197530864197,0)" xlink:href="#aK"/><use transform="matrix(0.049382716049382706,0,0,0.049382716049382706,35.456790123456784,0)" xlink:href="#aj"/><use transform="matrix(0.049382716049382706,0,0,0.049382716049382706,46.271604938271594,0)" xlink:href="#aA"/><use transform="matrix(0.049382716049382706,0,0,0.049382716049382706,53.185185185185176,0)" xlink:href="#aA"/><use transform="matrix(0.049382716049382706,0,0,0.049382716049382706,60.09876543209875,0)" xlink:href="#ah"/><use transform="matrix(0.049382716049382706,0,0,0.049382716049382706,69.9753086419753,0)" xlink:href="#aA"/><use transform="matrix(0.049382716049382706,0,0,0.049382716049382706,76.88888888888889,0)" xlink:href="#aD"/><use transform="matrix(0.049382716049382706,0,0,0.049382716049382706,86.76543209876543,0)" xlink:href="#aA"/><use transform="matrix(0.049382716049382706,0,0,0.049382716049382706,93.67901234567901,0)" xlink:href="#ae"/><use transform="matrix(0.049382716049382706,0,0,0.049382716049382706,103.55555555555556,0)" xlink:href="#af"/><use transform="matrix(0.049382716049382706,0,0,0.049382716049382706,113.4320987654321,0)" xlink:href="#ag"/><use transform="matrix(0.049382716049382706,0,0,0.049382716049382706,118.37037037037037,0)" xlink:href="#ah"/><use transform="matrix(0.049382716049382706,0,0,0.049382716049382706,128.2469135802469,0)" xlink:href="#ai"/><use transform="matrix(0.049382716049382706,0,0,0.049382716049382706,144.04938271604937,0)" xlink:href="#aj"/><use transform="matrix(0.049382716049382706,0,0,0.049382716049382706,154.86419753086417,0)" xlink:href="#aE"/><use transform="matrix(0.049382716049382706,0,0,0.049382716049382706,160.7407407407407,0)" xlink:href="#aY"/><use transform="matrix(0.049382716049382706,0,0,0.049382716049382706,165.67901234567898,0)" xlink:href="#aZ"/><use transform="matrix(0.049382716049382706,0,0,0.049382716049382706,178.4691358024691,0)" xlink:href="#aD"/><use transform="matrix(0.049382716049382706,0,0,0.049382716049382706,188.34567901234564,0)" xlink:href="#aA"/><use transform="matrix(0.049382716049382706,0,0,0.049382716049382706,195.2592592592592,0)" xlink:href="#ae"/><use transform="matrix(0.049382716049382706,0,0,0.049382716049382706,205.13580246913577,0)" xlink:href="#af"/><use transform="matrix(0.049382716049382706,0,0,0.049382716049382706,215.01234567901227,0)" xlink:href="#ag"/><use transform="matrix(0.049382716049382706,0,0,0.049382716049382706,219.95061728395052,0)" xlink:href="#ah"/><use transform="matrix(0.049382716049382706,0,0,0.049382716049382706,229.82716049382708,0)" xlink:href="#ai"/><use transform="matrix(0.049382716049382706,0,0,0.049382716049382706,245.62962962962953,0)" xlink:href="#aj"/><use transform="matrix(0.049382716049382706,0,0,0.049382716049382706,256.44444444444434,0)" xlink:href="#ba"/><use transform="matrix(0.049382716049382706,0,0,0.049382716049382706,261.3827160493826,0)" xlink:href="#aM"/><use transform="matrix(0.049382716049382706,0,0,0.049382716049382706,272.19753086419746,0)" xlink:href="#ak"/><use transform="matrix(0.049382716049382706,0,0,0.049382716049382706,282.074074074074,0)" xlink:href="#aM"/><use transform="matrix(0.049382716049382706,0,0,0.049382716049382706,292.88888888888886,0)" xlink:href="#ah"/><use transform="matrix(0.049382716049382706,0,0,0.049382716049382706,302.7654320987654,0)" xlink:href="#aA"/><use transform="matrix(0.049382716049382706,0,0,0.049382716049382706,309.679012345679,0)" xlink:href="#aH"/><use transform="matrix(0.049382716049382706,0,0,0.049382716049382706,314.61728395061726,0)" xlink:href="#aj"/><use transform="matrix(0.049382716049382706,0,0,0.049382716049382706,325.4320987654321,0)" xlink:href="#aN"/><use transform="matrix(0.049382716049382706,0,0,0.049382716049382706,330.3703703703704,0)" xlink:href="#ak"/><use transform="matrix(0.049382716049382706,0,0,0.049382716049382706,340.24691358024694,0)" xlink:href="#aM"/><use transform="matrix(0.049382716049382706,0,0,0.049382716049382706,351.0617283950618,0)" xlink:href="#aO"/><use transform="matrix(0.049382716049382706,0,0,0.049382716049382706,361.8765432098766,0)" xlink:href="#ae"/><use transform="matrix(0.049382716049382706,0,0,0.049382716049382706,371.7530864197532,0)" xlink:href="#aA"/><use transform="matrix(0.049382716049382706,0,0,0.049382716049382706,378.66666666666674,0)" xlink:href="#aG"/><use transform="matrix(0.049382716049382706,0,0,0.049382716049382706,388.5432098765433,0)" xlink:href="#aH"/><use transform="matrix(0.049382716049382706,0,0,0.049382716049382706,393.4814814814816,0)" xlink:href="#ak"/><use transform="matrix(0.049382716049382706,0,0,0.049382716049382706,403.35802469135814,0)" xlink:href="#aj"/><use transform="matrix(0.049382716049382706,0,0,0.049382716049382706,414.1728395061729,0)" xlink:href="#aA"/><use transform="matrix(0.049382716049382706,0,0,0.049382716049382706,421.0864197530865,0)" xlink:href="#aF"/><use transform="matrix(0.049382716049382706,0,0,0.049382716049382706,426.96296296296316,0)" xlink:href="#ay"/><use transform="matrix(0.049382716049382706,0,0,0.049382716049382706,432.83950617283966,0)" xlink:href="#aG"/><use transform="matrix(0.049382716049382706,0,0,0.049382716049382706,442.7160493827162,0)" xlink:href="#aj"/><use transform="matrix(0.049382716049382706,0,0,0.049382716049382706,453.53086419753106,0)" xlink:href="#aH"/><use transform="matrix(0.049382716049382706,0,0,0.049382716049382706,458.46913580246934,0)" xlink:href="#aI"/></g><path fill="#333" d="M101-251c68 0 84 54 84 127C185-50 166 4 99 4S15-52 14-124c-1-75 17-127 87-127zm-1 216c37-5 36-46 36-89s4-89-36-89c-39 0-36 45-36 89 0 43-3 85 36 89" id="bb"/><g id="s"><use transform="matrix(0.04938271604938272,0,0,0.04938271604938272,0,0)" xlink:href="#ax"/><use transform="matrix(0.04938271604938272,0,0,0.04938271604938272,9.876543209876544,0)" xlink:href="#bb"/><use transform="matrix(0.04938271604938272,0,0,0.04938271604938272,19.75308641975309,0)" xlink:href="#ay"/><use transform="matrix(0.04938271604938272,0,0,0.04938271604938272,25.629629629629633,0)" xlink:href="#aW"/><use transform="matrix(0.04938271604938272,0,0,0.04938271604938272,38.41975308641976,0)" xlink:href="#aj"/><use transform="matrix(0.04938271604938272,0,0,0.04938271604938272,49.23456790123458,0)" xlink:href="#aA"/><use transform="matrix(0.04938271604938272,0,0,0.04938271604938272,56.14814814814817,0)" xlink:href="#aA"/><use transform="matrix(0.04938271604938272,0,0,0.04938271604938272,63.06172839506174,0)" xlink:href="#ah"/><use transform="matrix(0.04938271604938272,0,0,0.04938271604938272,72.93827160493828,0)" xlink:href="#aA"/></g><g id="t"><use transform="matrix(0.04938271604938272,0,0,0.04938271604938272,0,0)" xlink:href="#ad"/><use transform="matrix(0.04938271604938272,0,0,0.04938271604938272,12.790123456790125,0)" xlink:href="#ae"/><use transform="matrix(0.04938271604938272,0,0,0.04938271604938272,22.66666666666667,0)" xlink:href="#af"/><use transform="matrix(0.04938271604938272,0,0,0.04938271604938272,32.543209876543216,0)" xlink:href="#ag"/><use transform="matrix(0.04938271604938272,0,0,0.04938271604938272,37.48148148148149,0)" xlink:href="#ah"/><use transform="matrix(0.04938271604938272,0,0,0.04938271604938272,47.35802469135803,0)" xlink:href="#ai"/><use transform="matrix(0.04938271604938272,0,0,0.04938271604938272,63.1604938271605,0)" xlink:href="#aj"/></g><g id="u"><use transform="matrix(0.04938271604938272,0,0,0.04938271604938272,0,0)" xlink:href="#ax"/><use transform="matrix(0.04938271604938272,0,0,0.04938271604938272,9.876543209876544,0)" xlink:href="#aJ"/><use transform="matrix(0.04938271604938272,0,0,0.04938271604938272,19.75308641975309,0)" xlink:href="#ay"/><use transform="matrix(0.04938271604938272,0,0,0.04938271604938272,25.629629629629633,0)" xlink:href="#aQ"/><use transform="matrix(0.04938271604938272,0,0,0.04938271604938272,37.48148148148149,0)" xlink:href="#aR"/><use transform="matrix(0.04938271604938272,0,0,0.04938271604938272,42.41975308641976,0)" xlink:href="#ae"/><use transform="matrix(0.04938271604938272,0,0,0.04938271604938272,52.2962962962963,0)" xlink:href="#af"/><use transform="matrix(0.04938271604938272,0,0,0.04938271604938272,62.17283950617284,0)" xlink:href="#aM"/><use transform="matrix(0.04938271604938272,0,0,0.04938271604938272,72.98765432098766,0)" xlink:href="#af"/><use transform="matrix(0.04938271604938272,0,0,0.04938271604938272,82.8641975308642,0)" xlink:href="#aH"/><use transform="matrix(0.04938271604938272,0,0,0.04938271604938272,87.80246913580248,0)" xlink:href="#aS"/><use transform="matrix(0.04938271604938272,0,0,0.04938271604938272,98.61728395061729,0)" xlink:href="#aL"/></g><path fill="#333" d="M99-251c69 0 84 53 88 123 5 99-61 162-144 118-15-8-21-25-26-45l46-6c4 31 50 33 63 7 7-15 12-36 12-60-9 18-29 28-54 28-48 0-72-32-72-82 0-55 31-83 87-83zm-1 128c24 0 37-16 37-39 0-27-10-51-37-51-25 0-35 19-35 45 0 25 10 45 35 45" id="bc"/><g id="v"><use transform="matrix(0.04938271604938272,0,0,0.04938271604938272,0,0)" xlink:href="#bc"/><use transform="matrix(0.04938271604938272,0,0,0.04938271604938272,9.876543209876544,0)" xlink:href="#ay"/><use transform="matrix(0.04938271604938272,0,0,0.04938271604938272,15.753086419753087,0)" xlink:href="#aQ"/><use transform="matrix(0.04938271604938272,0,0,0.04938271604938272,27.604938271604947,0)" xlink:href="#aR"/><use transform="matrix(0.04938271604938272,0,0,0.04938271604938272,32.543209876543216,0)" xlink:href="#ae"/><use transform="matrix(0.04938271604938272,0,0,0.04938271604938272,42.41975308641976,0)" xlink:href="#af"/><use transform="matrix(0.04938271604938272,0,0,0.04938271604938272,52.2962962962963,0)" xlink:href="#aM"/><use transform="matrix(0.04938271604938272,0,0,0.04938271604938272,63.111111111111114,0)" xlink:href="#af"/><use transform="matrix(0.04938271604938272,0,0,0.04938271604938272,72.98765432098767,0)" xlink:href="#aH"/><use transform="matrix(0.04938271604938272,0,0,0.04938271604938272,77.92592592592595,0)" xlink:href="#aS"/><use transform="matrix(0.04938271604938272,0,0,0.04938271604938272,88.74074074074076,0)" xlink:href="#aL"/></g><path fill="#333" d="M121-226c-27-7-43 5-38 36h38v33H83V0H34v-157H6v-33h28c-9-59 32-81 87-68v32" id="bd"/><g id="w"><use transform="matrix(0.049382716049382706,0,0,0.049382716049382706,0,0)" xlink:href="#ax"/><use transform="matrix(0.049382716049382706,0,0,0.049382716049382706,9.87654320987654,0)" xlink:href="#aU"/><use transform="matrix(0.049382716049382706,0,0,0.049382716049382706,19.75308641975308,0)" xlink:href="#ay"/><use transform="matrix(0.049382716049382706,0,0,0.049382716049382706,25.629629629629626,0)" xlink:href="#ai"/><use transform="matrix(0.049382716049382706,0,0,0.049382716049382706,41.43209876543209,0)" xlink:href="#aj"/><use transform="matrix(0.049382716049382706,0,0,0.049382716049382706,52.24691358024689,0)" xlink:href="#aI"/><use transform="matrix(0.049382716049382706,0,0,0.049382716049382706,63.06172839506171,0)" xlink:href="#aH"/><use transform="matrix(0.049382716049382706,0,0,0.049382716049382706,67.99999999999997,0)" xlink:href="#bd"/><use transform="matrix(0.049382716049382706,0,0,0.049382716049382706,73.87654320987652,0)" xlink:href="#aH"/><use transform="matrix(0.049382716049382706,0,0,0.049382716049382706,78.81481481481478,0)" xlink:href="#af"/><use transform="matrix(0.049382716049382706,0,0,0.049382716049382706,88.69135802469133,0)" xlink:href="#ah"/><use transform="matrix(0.049382716049382706,0,0,0.049382716049382706,98.56790123456787,0)" xlink:href="#aA"/><use transform="matrix(0.049382716049382706,0,0,0.049382716049382706,105.48148148148147,0)" xlink:href="#aD"/><use transform="matrix(0.049382716049382706,0,0,0.049382716049382706,115.358024691358,0)" xlink:href="#aA"/><use transform="matrix(0.049382716049382706,0,0,0.049382716049382706,122.27160493827158,0)" xlink:href="#ae"/><use transform="matrix(0.049382716049382706,0,0,0.049382716049382706,132.14814814814812,0)" xlink:href="#af"/><use transform="matrix(0.049382716049382706,0,0,0.049382716049382706,142.02469135802465,0)" xlink:href="#ag"/><use transform="matrix(0.049382716049382706,0,0,0.049382716049382706,146.96296296296293,0)" xlink:href="#ah"/><use transform="matrix(0.049382716049382706,0,0,0.049382716049382706,156.83950617283946,0)" xlink:href="#ai"/><use transform="matrix(0.049382716049382706,0,0,0.049382716049382706,172.64197530864192,0)" xlink:href="#aj"/><use transform="matrix(0.049382716049382706,0,0,0.049382716049382706,183.45679012345673,0)" xlink:href="#aE"/><use transform="matrix(0.049382716049382706,0,0,0.049382716049382706,189.33333333333326,0)" xlink:href="#aY"/><use transform="matrix(0.049382716049382706,0,0,0.049382716049382706,194.27160493827154,0)" xlink:href="#aZ"/><use transform="matrix(0.049382716049382706,0,0,0.049382716049382706,207.06172839506164,0)" xlink:href="#aD"/><use transform="matrix(0.049382716049382706,0,0,0.049382716049382706,216.9382716049382,0)" xlink:href="#aA"/><use transform="matrix(0.049382716049382706,0,0,0.049382716049382706,223.85185185185176,0)" xlink:href="#ae"/><use transform="matrix(0.049382716049382706,0,0,0.049382716049382706,233.7283950617283,0)" xlink:href="#af"/><use transform="matrix(0.049382716049382706,0,0,0.049382716049382706,243.6049382716048,0)" xlink:href="#ag"/><use transform="matrix(0.049382716049382706,0,0,0.049382716049382706,248.5432098765431,0)" xlink:href="#ah"/><use transform="matrix(0.049382716049382706,0,0,0.049382716049382706,258.41975308641963,0)" xlink:href="#ai"/><use transform="matrix(0.049382716049382706,0,0,0.049382716049382706,274.2222222222221,0)" xlink:href="#aj"/><use transform="matrix(0.049382716049382706,0,0,0.049382716049382706,285.03703703703695,0)" xlink:href="#aF"/><use transform="matrix(0.049382716049382706,0,0,0.049382716049382706,290.9135802469135,0)" xlink:href="#ay"/><use transform="matrix(0.049382716049382706,0,0,0.049382716049382706,296.79012345679007,0)" xlink:href="#aG"/><use transform="matrix(0.049382716049382706,0,0,0.049382716049382706,306.66666666666663,0)" xlink:href="#aj"/><use transform="matrix(0.049382716049382706,0,0,0.049382716049382706,317.48148148148147,0)" xlink:href="#aH"/><use transform="matrix(0.049382716049382706,0,0,0.049382716049382706,322.41975308641975,0)" xlink:href="#aI"/></g><path fill="#333" d="M139-81c0-46-55-55-73-27H18l9-140h149v37H72l-4 63c44-38 133-4 122 66C201 21 21 35 11-62l49-4c5 18 15 30 39 30 26 0 40-18 40-45" id="be"/><g id="x"><use transform="matrix(0.049382716049382706,0,0,0.049382716049382706,0,0)" xlink:href="#ax"/><use transform="matrix(0.049382716049382706,0,0,0.049382716049382706,9.87654320987654,0)" xlink:href="#be"/><use transform="matrix(0.049382716049382706,0,0,0.049382716049382706,19.75308641975308,0)" xlink:href="#ay"/><use transform="matrix(0.049382716049382706,0,0,0.049382716049382706,25.629629629629626,0)" xlink:href="#af"/><use transform="matrix(0.049382716049382706,0,0,0.049382716049382706,35.50617283950616,0)" xlink:href="#ah"/><use transform="matrix(0.049382716049382706,0,0,0.049382716049382706,45.38271604938271,0)" xlink:href="#ai"/><use transform="matrix(0.049382716049382706,0,0,0.049382716049382706,61.185185185185176,0)" xlink:href="#aK"/><use transform="matrix(0.049382716049382706,0,0,0.049382716049382706,71.99999999999999,0)" xlink:href="#aH"/><use transform="matrix(0.049382716049382706,0,0,0.049382716049382706,76.93827160493825,0)" xlink:href="#ah"/><use transform="matrix(0.049382716049382706,0,0,0.049382716049382706,86.8148148148148,0)" xlink:href="#aA"/><use transform="matrix(0.049382716049382706,0,0,0.049382716049382706,93.72839506172838,0)" xlink:href="#aD"/><use transform="matrix(0.049382716049382706,0,0,0.049382716049382706,103.60493827160492,0)" xlink:href="#ae"/><use transform="matrix(0.049382716049382706,0,0,0.049382716049382706,113.48148148148145,0)" xlink:href="#ak"/><use transform="matrix(0.049382716049382706,0,0,0.049382716049382706,123.358024691358,0)" xlink:href="#aC"/><use transform="matrix(0.049382716049382706,0,0,0.049382716049382706,129.23456790123456,0)" xlink:href="#ah"/><use transform="matrix(0.049382716049382706,0,0,0.049382716049382706,139.1111111111111,0)" xlink:href="#aI"/><use transform="matrix(0.049382716049382706,0,0,0.049382716049382706,149.9259259259259,0)" xlink:href="#aj"/><use transform="matrix(0.049382716049382706,0,0,0.049382716049382706,160.7407407407407,0)" xlink:href="#aE"/><use transform="matrix(0.049382716049382706,0,0,0.049382716049382706,166.61728395061724,0)" xlink:href="#aY"/><use transform="matrix(0.049382716049382706,0,0,0.049382716049382706,171.55555555555551,0)" xlink:href="#aZ"/><use transform="matrix(0.049382716049382706,0,0,0.049382716049382706,184.34567901234564,0)" xlink:href="#aD"/><use transform="matrix(0.049382716049382706,0,0,0.049382716049382706,194.22222222222217,0)" xlink:href="#aA"/><use transform="matrix(0.049382716049382706,0,0,0.049382716049382706,201.13580246913574,0)" xlink:href="#ae"/><use transform="matrix(0.049382716049382706,0,0,0.049382716049382706,211.01234567901227,0)" xlink:href="#af"/><use transform="matrix(0.049382716049382706,0,0,0.049382716049382706,220.8888888888888,0)" xlink:href="#ag"/><use transform="matrix(0.049382716049382706,0,0,0.049382716049382706,225.82716049382708,0)" xlink:href="#ah"/><use transform="matrix(0.049382716049382706,0,0,0.049382716049382706,235.7037037037036,0)" xlink:href="#ai"/><use transform="matrix(0.049382716049382706,0,0,0.049382716049382706,251.5061728395061,0)" xlink:href="#aj"/><use transform="matrix(0.049382716049382706,0,0,0.049382716049382706,262.3209876543209,0)" xlink:href="#aF"/><use transform="matrix(0.049382716049382706,0,0,0.049382716049382706,268.19753086419746,0)" xlink:href="#ay"/><use transform="matrix(0.049382716049382706,0,0,0.049382716049382706,274.074074074074,0)" xlink:href="#aG"/><use transform="matrix(0.049382716049382706,0,0,0.049382716049382706,283.9506172839506,0)" xlink:href="#aj"/><use transform="matrix(0.049382716049382706,0,0,0.049382716049382706,294.7654320987654,0)" xlink:href="#aH"/><use transform="matrix(0.049382716049382706,0,0,0.049382716049382706,299.7037037037037,0)" xlink:href="#aI"/></g><path fill="#333" d="M230 0l2-204L168 0h-37L68-204 70 0H24v-248h70l56 185 57-185h69V0h-46" id="bf"/><g id="y"><use transform="matrix(0.04938271604938272,0,0,0.04938271604938272,0,0)" xlink:href="#ax"/><use transform="matrix(0.04938271604938272,0,0,0.04938271604938272,9.876543209876544,0)" xlink:href="#aP"/><use transform="matrix(0.04938271604938272,0,0,0.04938271604938272,19.75308641975309,0)" xlink:href="#ay"/><use transform="matrix(0.04938271604938272,0,0,0.04938271604938272,25.629629629629633,0)" xlink:href="#bf"/><use transform="matrix(0.04938271604938272,0,0,0.04938271604938272,40.39506172839506,0)" xlink:href="#aj"/><use transform="matrix(0.04938271604938272,0,0,0.04938271604938272,51.20987654320988,0)" xlink:href="#aI"/><use transform="matrix(0.04938271604938272,0,0,0.04938271604938272,62.0246913580247,0)" xlink:href="#aH"/><use transform="matrix(0.04938271604938272,0,0,0.04938271604938272,66.96296296296296,0)" xlink:href="#bd"/><use transform="matrix(0.04938271604938272,0,0,0.04938271604938272,72.8395061728395,0)" xlink:href="#aH"/><use transform="matrix(0.04938271604938272,0,0,0.04938271604938272,77.77777777777777,0)" xlink:href="#af"/><use transform="matrix(0.04938271604938272,0,0,0.04938271604938272,87.65432098765432,0)" xlink:href="#ah"/><use transform="matrix(0.04938271604938272,0,0,0.04938271604938272,97.53086419753086,0)" xlink:href="#aA"/></g><g id="z"><use transform="matrix(0.04938271604938272,0,0,0.04938271604938272,0,0)" xlink:href="#ae"/><use transform="matrix(0.04938271604938272,0,0,0.04938271604938272,9.876543209876544,0)" xlink:href="#ak"/><use transform="matrix(0.04938271604938272,0,0,0.04938271604938272,19.75308641975309,0)" xlink:href="#aC"/><use transform="matrix(0.04938271604938272,0,0,0.04938271604938272,25.629629629629633,0)" xlink:href="#ah"/><use transform="matrix(0.04938271604938272,0,0,0.04938271604938272,35.50617283950618,0)" xlink:href="#aI"/><use transform="matrix(0.04938271604938272,0,0,0.04938271604938272,46.320987654320994,0)" xlink:href="#aj"/></g><g id="A"><use transform="matrix(0.04938271604938272,0,0,0.04938271604938272,0,0)" xlink:href="#ax"/><use transform="matrix(0.04938271604938272,0,0,0.04938271604938272,9.876543209876544,0)" xlink:href="#aV"/><use transform="matrix(0.04938271604938272,0,0,0.04938271604938272,19.75308641975309,0)" xlink:href="#ay"/><use transform="matrix(0.04938271604938272,0,0,0.04938271604938272,25.629629629629633,0)" xlink:href="#aQ"/><use transform="matrix(0.04938271604938272,0,0,0.04938271604938272,37.48148148148149,0)" xlink:href="#aR"/><use transform="matrix(0.04938271604938272,0,0,0.04938271604938272,42.41975308641976,0)" xlink:href="#ae"/><use transform="matrix(0.04938271604938272,0,0,0.04938271604938272,52.2962962962963,0)" xlink:href="#af"/><use transform="matrix(0.04938271604938272,0,0,0.04938271604938272,62.17283950617284,0)" xlink:href="#aM"/><use transform="matrix(0.04938271604938272,0,0,0.04938271604938272,72.98765432098766,0)" xlink:href="#af"/><use transform="matrix(0.04938271604938272,0,0,0.04938271604938272,82.8641975308642,0)" xlink:href="#aH"/><use transform="matrix(0.04938271604938272,0,0,0.04938271604938272,87.80246913580248,0)" xlink:href="#aS"/><use transform="matrix(0.04938271604938272,0,0,0.04938271604938272,98.61728395061729,0)" xlink:href="#aL"/></g></defs></g></svg>