<svg xmlns="http://www.w3.org/2000/svg" xmlns:xlink="http://www.w3.org/1999/xlink" xmlns:lucid="lucid" width="2551.43" height="1311"><g transform="translate(1.4320987654320874 0)" lucid:page-tab-id="0_0"><path d="M460 272.7H121" stroke="#5e5e5e" stroke-width="2" fill="none"/><path d="M475.26 272.7L461 277.33v-9.27z" stroke="#5e5e5e" stroke-width="2" fill="#5e5e5e"/><path d="M121.03 272.7H120" stroke="#5e5e5e" stroke-width="2" fill="none"/><use xlink:href="#a" transform="matrix(1,0,0,1,246.50925925925924,276.69510664993726) translate(0 14.222222222222223)"/><use xlink:href="#b" transform="matrix(1,0,0,1,246.50925925925924,276.69510664993726) translate(48.345679012345684 14.222222222222223)"/><path d="M463.06 460H121" stroke="#5e5e5e" stroke-width="2" fill="none"/><path d="M478.33 460l-14.27 4.64v-9.28z" stroke="#5e5e5e" stroke-width="2" fill="#5e5e5e"/><path d="M121.03 460H120" stroke="#5e5e5e" stroke-width="2" fill="none"/><use xlink:href="#c" transform="matrix(1,0,0,1,212.04125424043866,463.99999999999994) translate(0 14.222222222222223)"/><use xlink:href="#d" transform="matrix(1,0,0,1,212.04125424043866,463.99999999999994) translate(81.87654320987656 14.222222222222223)"/><path d="M525.56 452.53h317.5M525.6 452.53h-1.04" stroke="#5e5e5e" stroke-width="2" fill="none"/><path d="M858.33 452.53l-14.27 4.63v-9.27z" stroke="#5e5e5e" stroke-width="2" fill="#5e5e5e"/><use xlink:href="#e" transform="matrix(1,0,0,1,583.6812739129762,456.5273943956503) translate(0 14.222222222222221)"/><path d="M905.56 453.86H1610M905.6 453.86h-1.04" stroke="#5e5e5e" stroke-width="2" fill="none"/><path d="M1625.26 453.86L1611 458.5v-9.27z" stroke="#5e5e5e" stroke-width="2" fill="#5e5e5e"/><use xlink:href="#f" transform="matrix(1,0,0,1,1077.6393286080504,457.86072772898365) translate(0 14.222222222222223)"/><path d="M1627.5 533.86h-9.93m-9.93 0h-19.86m-9.93 0H1558m-9.94 0h-19.87m-9.94 0h-19.86m-9.93 0h-19.86m-9.92 0h-19.86m-9.93 0h-19.87m-9.93 0h-19.86m-9.93 0h-19.86m-9.93 0h-19.85m-9.93 0h-19.86m-9.93 0h-20.23m-10.3 0h-20.6m-10.3 0h-20.62m-10.3 0h-20.6m-10.3 0h-20.62m-10.3 0h-20.6m-10.3 0h-20.62m-10.3 0h-20.6m-10.3 0h-20.6m-10.32 0h-20.6m-10.3 0h-20.6m-10.3 0H930" stroke="#5e5e5e" stroke-width="2" fill="none"/><path d="M1628.5 534.86h-1.03v-2h1.03z" fill="#5e5e5e"/><path d="M914.74 533.86l14.26-4.63v9.27z" stroke="#5e5e5e" stroke-width="2" fill="#5e5e5e"/><use xlink:href="#g" transform="matrix(1,0,0,1,1187.1851851851852,537.8607277289839) translate(0 14.222222222222223)"/><use xlink:href="#h" transform="matrix(1,0,0,1,1187.1851851851852,537.8607277289839) translate(104.49382716049385 14.222222222222223)"/><path d="M860.56 533.86h-9.62m-9.62 0h-19.24m-9.62 0h-19.24m-9.63 0h-19.25m-9.62 0H735.5m-9.63 0h-19.24m-9.63 0h-19.24m-9.62 0H648.9m-9.62 0h-19.24m-9.63 0h-19.23m-9.62 0H562.3m-9.6 0h-9.63M860.54 533.86h1.02" stroke="#5e5e5e" stroke-width="2" fill="none"/><path d="M527.8 533.86l14.27-4.63v9.27z" stroke="#5e5e5e" stroke-width="2" fill="#5e5e5e"/><path d="M503.06 161.52v9.85m0 9.86v1.97m0 9.86v19.72m0 9.85v1.97m0 9.86v19.72m0 9.85V266m0 9.86v19.72m0 9.85v1.98m0 9.86v19.72m0 9.85v1.98m0 9.86v19.72m0 9.86v1.97m0 9.86v19.72m0 9.86v1.97m0 9.87v19.7m0 9.87V473m0 9.87v19.7m0 9.87v1.97m0 9.87v19.7m0 9.87v1.97m0 9.87v19.7m0 9.87v1.97m0 9.87v19.7m0 9.87v1.97m0 9.87v19.7m0 9.87V680m0 9.87v19.7m0 9.87v1.97m0 9.87v19.7m0 9.87v1.97m0 9.87v19.72m0 9.84v1.97m0 9.87v19.72m0 9.84v1.97m0 9.87v19.72m0 9.84v1.98m0 9.85v19.72m0 9.84v1.98m0 9.85V958m0 9.85v1.97m0 9.85v19.72m0 9.85v1.97m0 9.86v19.7m0 9.87v1.97m0 9.86v19.7m0 9.87v1.97m0 9.86v19.7m0 9.87v1.97m0 9.86v19.7m0 9.87v1.97m0 9.86v19.7m0 9.87v1.97m0 9.86v9.86l-.6 1.46-1.46.6" stroke="#5e5e5e" stroke-width="2" fill="none"/><path d="M502.78 160.47l1.28.2v.87h-2v-1.25z" fill="#5e5e5e"/><path d="M501.03 1240H500" stroke="#5e5e5e" stroke-width="2" fill="none"/><path d="M483.06 443.86c0-3.3 2.7-6 6-6h28c3.32 0 6 2.7 6 6v108c0 3.3-2.68 6-6 6h-28c-3.3 0-6-2.7-6-6zM480 266c0-3.3 2.7-6 6-6h28c3.3 0 6 2.7 6 6v108c0 3.3-2.7 6-6 6h-28c-3.3 0-6-2.7-6-6zM133.5 73.5c0 7.46-6.04 13.5-13.5 13.5s-13.5-6.04-13.5-13.5S112.54 60 120 60s13.5 6.04 13.5 13.5z" stroke="#5e5e5e" stroke-width="3" fill="#fff"/><path d="M120 87v31.8c0 3.3 1.83 7.97 4.08 10.4L160 168m-40-43.2L80 168m0-67.5h80" stroke="#5e5e5e" stroke-width="3" fill="none"/><path d="M80 66c0-3.3 2.7-6 6-6h68c3.3 0 6 2.7 6 6v118c0 3.3-2.7 6-6 6H86c-3.3 0-6-2.7-6-6z" fill="none"/><use xlink:href="#i" transform="matrix(1,0,0,1,0,168) translate(19.567901234567913 17.77777777777778)"/><path d="M477.5 369.76h-9.9m-9.9 0h-19.8m-9.9 0h-19.82m-9.9 0h-19.8m-9.9 0h-19.82m-9.9 0h-19.8m-9.9 0H288.52m-10.7 0h-21.45m-10.7 0h-21.45m-10.7 0h-21.44m-10.73 0h-21.43m-10.72 0H138.5" stroke="#5e5e5e" stroke-width="2" fill="none"/><path d="M478.5 370.76h-1.03v-2h1.03z" fill="#5e5e5e"/><path d="M123.24 369.76l14.26-4.64v9.27z" stroke="#5e5e5e" stroke-width="2" fill="#5e5e5e"/><path d="M563.06 110c0 27.6-22.38 50-50 50-27.6 0-50-22.4-50-50s22.4-50 50-50c27.62 0 50 22.4 50 50z" stroke="#5e5e5e" stroke-width="3" fill="#fff"/><path d="M443.06 60v100m0-50h20" stroke="#5e5e5e" stroke-width="3" fill="none"/><use xlink:href="#j" transform="matrix(1,0,0,1,423.06398996235885,160) translate(5.3500000000000085 14.4)"/><path d="M120 128v10.18m0 10.18v2.03m0 10.16v20.35m0 10.2v2.02m0 10.17v20.34m0 10.18v2.03m0 10.18v20.34m0 10.18v2.03m0 10.18v20.34m0 10.18v2.03m0 10.2v20.33m0 10.18v2.04m0 10.18v20.34m0 10.18v2.03m0 10.18v20.35m0 10.17v2.03m0 10.18v20.35m0 10.17v2.03m0 10.18v20.36m0 10.17v2.03m0 10.18v20.35m0 10.16v2.04m0 10.17v20.35m0 10.17v2.03m0 10.17v20.35m0 10.17v2.04m0 10.17v20.35m0 10.17v2.04m0 10.16v20.35m0 10.18v2.04m0 10.17v20.34m0 10.17v2.05m0 10.17v20.35m0 10.17v2.04m0 10.17v20.35m0 10.17v2.04m0 10.18v20.35m0 10.17v2.04m0 10.17v20.36m0 10.17v2.04m0 10.17v20.35m0 10.17v2.03m0 10.17v20.35m0 10.18v2.03m0 10.17v20.35m0 10.18v2.03m0 10.17v20.35m0 10.18v2.03m0 10.17v20.34m0 10.2v2.02m0 10.18v20.34m0 10.18v2.03m0 10.18V1239M120 128.03V124M120 1238.97v1.03M522.5 270.64H850" stroke="#5e5e5e" stroke-width="2" fill="none"/><path d="M522.53 271.64h-1.03v-2h1.03z" fill="#5e5e5e"/><path d="M865.26 270.64L851 275.27V266z" stroke="#5e5e5e" stroke-width="2" fill="#5e5e5e"/><use xlink:href="#k" transform="matrix(1,0,0,1,592.0617283950618,274.63828421114795) translate(0 14.222222222222223)"/><path d="M867.5 370.62h-9.92m-9.93 0H827.8m-9.92 0h-19.85m-9.92 0h-19.84m-9.93 0H738.5m-9.94 0H708.7m-9.9 0h-19.86m-9.92 0h-19.85m-9.93 0H619.4m-9.93 0h-19.85m-9.92 0h-19.85m-9.92 0H540" stroke="#5e5e5e" stroke-width="2" fill="none"/><path d="M868.5 371.62h-1.03v-2h1.03z" fill="#5e5e5e"/><path d="M524.74 370.62l14.26-4.64v9.27z" stroke="#5e5e5e" stroke-width="2" fill="#5e5e5e"/><path d="M380 26c0-3.3 2.7-6 6-6h228c3.3 0 6 2.7 6 6v48c0 3.3-2.7 6-6 6H386c-3.3 0-6-2.7-6-6z" stroke="#000" stroke-opacity="0" stroke-width="3" fill="#fff" fill-opacity="0"/><use xlink:href="#l" transform="matrix(1,0,0,1,385,25) translate(65.03086419753086 30.27777777777778)"/><path d="M902.5 275.78H1610M902.53 275.78h-1.03" stroke="#5e5e5e" stroke-width="2" fill="none"/><path d="M1625.26 275.78l-14.26 4.64v-9.27z" stroke="#5e5e5e" stroke-width="2" fill="#5e5e5e"/><use xlink:href="#m" transform="matrix(1,0,0,1,1159.1481481481483,279.784405341514) translate(0.0049999999999954525 14.222222222222221)"/><path d="M1627.5 367.7h-9.93m-9.93 0h-19.86m-9.93 0H1558m-9.94 0h-19.87m-9.94 0h-19.86m-9.93 0h-19.86m-9.92 0h-19.86m-9.93 0h-19.87m-9.93 0h-19.86m-9.93 0h-19.86m-9.93 0h-19.85m-9.93 0h-19.86m-9.93 0h-20.23m-10.3 0h-20.6m-10.3 0h-20.62m-10.3 0h-20.6m-10.3 0h-20.62m-10.3 0h-20.6m-10.3 0h-20.62m-10.3 0h-20.6m-10.3 0h-20.6m-10.32 0h-20.6m-10.3 0h-20.6m-10.3 0H930M1627.47 367.7h1.03" stroke="#5e5e5e" stroke-width="2" fill="none"/><path d="M914.74 367.7L929 363.1v9.27z" stroke="#5e5e5e" stroke-width="2" fill="#5e5e5e"/><use xlink:href="#n" transform="matrix(1,0,0,1,1187.1851851851852,371.712540455352) translate(0 14.222222222222223)"/><use xlink:href="#h" transform="matrix(1,0,0,1,1187.1851851851852,371.712540455352) translate(104.49382716049385 14.222222222222223)"/><path d="M480.56 535.48H470.2m-10.37 0H439.1m-10.36 0H408m-10.36 0H376.9m-10.36 0H345.8m-10.35 0h-20.73m-10.37 0h-20.73m-10.37 0h-20.73m-10.36 0h-20.73m-10.37 0h-20.73m-10.37 0h-20.73m-10.36 0H138.5" stroke="#5e5e5e" stroke-width="2" fill="none"/><path d="M481.56 536.48h-1.02v-2h1.02z" fill="#5e5e5e"/><path d="M123.24 535.48l14.26-4.63v9.27z" stroke="#5e5e5e" stroke-width="2" fill="#5e5e5e"/><path d="M1265 161.52v10.05m0 10.05v2m0 10.06v20.1m0 10.05v2m0 10.06V256m0 10.04v2m0 10.06v20.1m0 10.05v2m0 10.06v20.1m0 10.06v2m0 10.06v20.1m0 10.05v2m0 10.06v20.1m0 10.05v2m0 10.06v20.1m0 10.05v2m0 10.05v20.1m0 10.05v2m0 10.07v20.1m0 10.05v2m0 10.06v20.1m0 10.05v2m0 10.06v20.1m0 10.04v2m0 10.06v20.1m0 10.05v2m0 10.06v20.1m0 10.06v2m0 10.06v20.1m0 10.05v2m0 10.06v20.1m0 10.05v2m0 10.06v20.1m0 10.05v2m0 10.05v20.1m0 10.05v2m0 10.06v20.1m0 10.05v2.02m0 10.05v20.1m0 10.05v2m0 10.06v20.1m0 10.06v2m0 10.06v20.1m0 10.05v2m0 10.06v20.1m0 10.06v2m0 10.06v20.1m0 10.05v2m0 10.06v20.1m0 10.05v2m0 10.06v20.1m0 10.05v2m0 10.05V1259" stroke="#5e5e5e" stroke-width="2" fill="none"/><path d="M1264.7 160.47l1.3.2v.87h-2v-1.25z" fill="#5e5e5e"/><path d="M1265 1258.97v1.03" stroke="#5e5e5e" stroke-width="2" fill="none"/><path d="M1325 110c0 27.6-22.4 50-50 50s-50-22.4-50-50 22.4-50 50-50 50 22.4 50 50z" stroke="#5e5e5e" stroke-width="3" fill="#fff"/><path d="M1205 60v100m0-50h20" stroke="#5e5e5e" stroke-width="3" fill="none"/><use xlink:href="#o" transform="matrix(1,0,0,1,1185,160) translate(-7.174999999999997 14.4)"/><path d="M1160 26c0-3.3 2.7-6 6-6h228c3.3 0 6 2.7 6 6v48c0 3.3-2.7 6-6 6h-228c-3.3 0-6-2.7-6-6z" stroke="#000" stroke-opacity="0" stroke-width="3" fill="#fff" fill-opacity="0"/><use xlink:href="#l" transform="matrix(1,0,0,1,1165,25) translate(65.03086419753086 30.27777777777778)"/><path d="M890 162.5v10.04m0 10.04v2m0 10.05v20.1m0 10.03v2m0 10.05v20.1m0 10.03v2m0 10.05v20.08m0 10.04v2m0 10.05v20.08m0 10.05v2m0 10.04v20.1m0 10.03v2m0 10.05v20.08m0 10.04v2m0 10.05v20.08m0 10.04v2m0 10.04v20.1m0 10.03v2m0 10.05v20.08m0 10.04v2m0 10.05v20.07m0 10.04v2.02m0 10.04v20.1m0 10.03v2m0 10.04v20.08m0 10.04v2m0 10.05v20.1m0 10.03v2m0 10.05v20.08m0 10.05v2m0 10.06v20.08m0 10.04v2m0 10.05v20.08m0 10.05v2m0 10.05v20.08m0 10.05v2m0 10.04v20.1m0 10.03v2m0 10.05v20.08m0 10.04v2m0 10.05V1016m0 10.04v2m0 10.05v20.08m0 10.04v2m0 10.05v20.08m0 10.04v2m0 10.04v20.08m0 10.04v2m0 10.05v20.1m0 10.04v2m0 10.05v20.07m0 10.04v2.02m0 10.04V1259" stroke="#5e5e5e" stroke-width="2" fill="none"/><path d="M890 161.5l1-.03v1.06h-2v-1.08z" fill="#5e5e5e"/><path d="M890 1258.97v1.03M1650 162.5v9.85m0 9.84v1.96m0 9.85v19.7m0 9.84v1.97m0 9.86v19.7m0 9.84v1.97m0 9.84v19.7m0 9.85v1.97m0 9.84v19.7m0 9.84v1.97m0 9.84v19.7m0 9.85v1.97m0 9.85v19.7m0 9.83v1.97m0 9.85v19.7m0 9.83v1.97m0 9.85v19.7m0 9.84V515m0 9.84v19.7m0 9.84v1.97m0 9.84v19.7m0 9.84v1.98m0 9.85v19.7m0 9.83v1.97m0 9.85v19.7m0 9.83v1.98m0 9.85v19.7m0 9.84v1.97m0 9.84v19.7m0 9.84v1.97m0 9.83v19.7m0 9.84v1.97m0 9.84v19.7m0 9.84v1.97m0 9.84v19.7m0 9.83v1.97m0 9.85v19.68m0 9.84v1.97m0 9.84v19.7m0 9.84v1.97m0 9.84v19.68m0 9.85v1.97m0 9.84v19.7m0 9.84v1.97m0 9.85v19.7m0 9.83v1.97m0 9.85v19.7m0 9.83v1.97m0 9.85v19.7m0 9.84v1.97m0 9.85v19.7m0 9.84v1.96m0 9.84v19.7m0 9.84v1.97m0 9.85v9.85" stroke="#5e5e5e" stroke-width="2" fill="none"/><path d="M1649.96 161.5h1.03v1.03h-2v-1.03z" fill="#5e5e5e"/><path d="M1650 1278.97v1.03" stroke="#5e5e5e" stroke-width="2" fill="none"/><path d="M940 110c0 27.6-22.4 50-50 50s-50-22.4-50-50 22.4-50 50-50 50 22.4 50 50z" stroke="#5e5e5e" stroke-width="3" fill="#fff"/><path d="M900 54l-10 6 10 7.2" stroke="#5e5e5e" stroke-width="3" fill="none"/><use xlink:href="#p" transform="matrix(1,0,0,1,800,160) translate(3.750000000000014 14.4)"/><path d="M1650 160c-27.6 0-50-22.4-50-50s22.4-50 50-50 50 22.4 50 50-22.4 50-50 50z" stroke="#5e5e5e" stroke-width="3" fill="#fff"/><path d="M1600 160h100" stroke="#5e5e5e" stroke-width="3" fill="none"/><use xlink:href="#q" transform="matrix(1,0,0,1,1560,160) translate(46.882716049382715 17.77777777777778)"/><path d="M1520 26c0-3.3 2.7-6 6-6h228c3.3 0 6 2.7 6 6v48c0 3.3-2.7 6-6 6h-228c-3.3 0-6-2.7-6-6z" stroke="#000" stroke-opacity="0" stroke-width="3" fill="#fff" fill-opacity="0"/><use xlink:href="#r" transform="matrix(1,0,0,1,1525,25) translate(64.41358024691357 30.27777777777778)"/><path d="M770 26c0-3.3 2.7-6 6-6h228c3.3 0 6 2.7 6 6v48c0 3.3-2.7 6-6 6H776c-3.3 0-6-2.7-6-6z" stroke="#000" stroke-opacity="0" stroke-width="3" fill="#fff" fill-opacity="0"/><use xlink:href="#s" transform="matrix(1,0,0,1,775,25) translate(44.1358024691358 30.27777777777778)"/><path d="M1990 162.5v10.18m0 10.18v2.03m0 10.17v20.36m0 10.18v2.04m0 10.18v20.36m0 10.18v2.03m0 10.17v20.36m0 10.18v2.04m0 10.18v20.36m0 10.18v2.03m0 10.17v20.36m0 10.18v2.04m0 10.18v20.36m0 10.18v2.03m0 10.17v20.36m0 10.18v2.04m0 10.18v20.36m0 10.18v2.03m0 10.17v20.36m0 10.18v2.04m0 10.18v20.36m0 10.18v2.03m0 10.17v20.36m0 10.18v2.04m0 10.18v20.36m0 10.18v2.03m0 10.17v20.36m0 10.18v2.04m0 10.18v20.36m0 10.18v2.03m0 10.17v20.36m0 10.18v2.04m0 10.18v20.36m0 10.18v2.03m0 10.17v20.36m0 10.18v2.04m0 10.18v20.36m0 10.18v2.03m0 10.17v20.36m0 10.18v2.04m0 10.18v20.36m0 10.18v2.03m0 10.17v20.36m0 10.18v2.04m0 10.18v20.36m0 10.18v2.03m0 10.17v20.36m0 10.18v2.04m0 10.18v20.36m0 10.18v2.03m0 10.17v20.36m0 10.18v2.04m0 10.18V1274l.82 3.03 2.15 2.15 3.03.82h3" stroke="#5e5e5e" stroke-width="2" fill="none"/><path d="M1990 161.5l1-.03v1.06h-2v-1.08z" fill="#5e5e5e"/><path d="M1998.97 1280h1.03M2410 167.5v9.98m0 9.98v2m0 9.97v19.96m0 9.96v2m0 9.98v19.95m0 9.97v2m0 9.98v19.95m0 9.98v2m0 9.97v19.96m0 10v1.98m0 9.98v19.96m0 9.97v2m0 9.97v19.95m0 9.98v2m0 9.97v19.96m0 9.98v2m0 9.98v19.96m0 9.98v2m0 9.97v19.95m0 9.97v2m0 9.98v19.95m0 9.98v2m0 9.97v19.96m0 9.98v2m0 9.97v19.97m0 9.98v2m0 9.97v19.95m0 9.98v2m0 9.98v19.95m0 9.98v2m0 9.97v19.96m0 9.97v2m0 9.97V848m0 9.97v2m0 9.98v19.95m0 9.98v2m0 9.98v19.95m0 10v2m0 9.96v19.96m0 9.98v2m0 9.97v19.96m0 9.97v2m0 9.98v19.95m0 9.98v2m0 10v19.94m0 9.98v2m0 9.97v19.95m0 9.98v2m0 9.97v19.96m0 9.97v2m0 9.98v19.96m0 9.98v2m0 9.97v19.97m0 9.98v2m0 9.97v9.98" stroke="#5e5e5e" stroke-width="2" fill="none"/><path d="M2409.96 166.5h1.03v1.03h-2v-1.03z" fill="#5e5e5e"/><path d="M2410 1298.97v1.03" stroke="#5e5e5e" stroke-width="2" fill="none"/><path d="M2040 110c0 27.6-22.4 50-50 50s-50-22.4-50-50 22.4-50 50-50 50 22.4 50 50z" stroke="#5e5e5e" stroke-width="3" fill="#fff"/><path d="M2000 54l-10 6 10 7.2" stroke="#5e5e5e" stroke-width="3" fill="none"/><use xlink:href="#t" transform="matrix(1,0,0,1,1900,160) translate(-3.7750000000000057 14.4)"/><path d="M2410 165c-27.6 0-50-22.4-50-50s22.4-50 50-50 50 22.4 50 50-22.4 50-50 50z" stroke="#5e5e5e" stroke-width="3" fill="#fff"/><path d="M2360 165h100" stroke="#5e5e5e" stroke-width="3" fill="none"/><use xlink:href="#u" transform="matrix(1,0,0,1,2320,165) translate(37.59259259259259 17.77777777777778)"/><path d="M2290 26c0-3.3 2.7-6 6-6h228c3.3 0 6 2.7 6 6v48c0 3.3-2.7 6-6 6h-228c-3.3 0-6-2.7-6-6z" stroke="#000" stroke-opacity="0" stroke-width="3" fill="#fff" fill-opacity="0"/><use xlink:href="#r" transform="matrix(1,0,0,1,2295,25) translate(64.41358024691357 30.27777777777778)"/><path d="M1870 26c0-3.3 2.7-6 6-6h228c3.3 0 6 2.7 6 6v48c0 3.3-2.7 6-6 6h-228c-3.3 0-6-2.7-6-6z" stroke="#000" stroke-opacity="0" stroke-width="3" fill="#fff" fill-opacity="0"/><use xlink:href="#s" transform="matrix(1,0,0,1,1875,25) translate(44.1358024691358 30.27777777777778)"/><path d="M1225 631.9H121" stroke="#5e5e5e" stroke-width="2" fill="none"/><path d="M1240.26 631.9l-14.26 4.63v-9.27z" stroke="#5e5e5e" stroke-width="2" fill="#5e5e5e"/><path d="M121.03 631.9H120" stroke="#5e5e5e" stroke-width="2" fill="none"/><use xlink:href="#v" transform="matrix(1,0,0,1,733.5749271498609,635.8923001518434) translate(0 14.222222222222223)"/><use xlink:href="#w" transform="matrix(1,0,0,1,733.5749271498609,635.8923001518434) translate(88.79012345679013 14.222222222222223)"/><path d="M870 266c0-3.3 2.7-6 6-6h28c3.3 0 6 2.7 6 6v108c0 3.3-2.7 6-6 6h-28c-3.3 0-6-2.7-6-6zM870 443.86c0-3.3 2.7-6 6-6h28c3.3 0 6 2.7 6 6v108c0 3.3-2.7 6-6 6h-28c-3.3 0-6-2.7-6-6zM1630 443.86c0-3.3 2.7-6 6-6h28c3.3 0 6 2.7 6 6v108c0 3.3-2.7 6-6 6h-28c-3.3 0-6-2.7-6-6zM1630 266c0-3.3 2.7-6 6-6h28c3.3 0 6 2.7 6 6v108c0 3.3-2.7 6-6 6h-28c-3.3 0-6-2.7-6-6zM1245 621.3c0-3.32 2.7-6 6-6h28c3.3 0 6 2.68 6 6v108c0 3.3-2.7 6-6 6h-28c-3.3 0-6-2.7-6-6z" stroke="#5e5e5e" stroke-width="3" fill="#fff"/><path d="M1287.5 631.9H1950" stroke="#5e5e5e" stroke-width="2" fill="none"/><path d="M1287.53 632.9h-1.03v-2h1.03z" fill="#5e5e5e"/><path d="M1965.26 631.9l-14.26 4.63v-9.27z" stroke="#5e5e5e" stroke-width="2" fill="#5e5e5e"/><use xlink:href="#x" transform="matrix(1,0,0,1,1399.9529555354304,635.8923001518434) translate(0 14.222222222222223)"/><path d="M1970 621.3c0-3.32 2.7-6 6-6h28c3.3 0 6 2.68 6 6v108c0 3.3-2.7 6-6 6h-28c-3.3 0-6-2.7-6-6zM2390 621.3c0-3.32 2.7-6 6-6h28c3.3 0 6 2.68 6 6v108c0 3.3-2.7 6-6 6h-28c-3.3 0-6-2.7-6-6z" stroke="#5e5e5e" stroke-width="3" fill="#fff"/><path d="M2012.5 633.04H2370" stroke="#5e5e5e" stroke-width="2" fill="none"/><path d="M2012.53 634.04h-1.03v-2h1.03z" fill="#5e5e5e"/><path d="M2385.26 633.04l-14.26 4.64v-9.27z" stroke="#5e5e5e" stroke-width="2" fill="#5e5e5e"/><use xlink:href="#y" transform="matrix(1,0,0,1,2010.0196611299903,637.0414018407664) translate(0.0049999999999954525 14.222222222222221)"/><use xlink:href="#z" transform="matrix(1,0,0,1,2010.0196611299903,637.0414018407664) translate(328.35067901234567 14.222222222222221)"/><path d="M2387.5 715.78h-10.42m-10.4 0h-20.85m-10.4 0h-20.85m-10.4 0h-20.85m-10.4 0h-20.85m-10.4 0h-20.85m-10.4 0H2190.55m-9.45 0h-18.88m-9.44 0h-18.9m-9.43 0h-18.9m-9.44 0h-18.88m-9.44 0h-18.9m-9.43 0H2030" stroke="#5e5e5e" stroke-width="2" fill="none"/><path d="M2388.5 716.78h-1.03v-2h1.03z" fill="#5e5e5e"/><path d="M2014.74 715.78l14.26-4.64v9.27z" stroke="#5e5e5e" stroke-width="2" fill="#5e5e5e"/><use xlink:href="#A" transform="matrix(1,0,0,1,2112.246913580247,719.7767234432206) translate(0 14.222222222222223)"/><use xlink:href="#h" transform="matrix(1,0,0,1,2112.246913580247,719.7767234432206) translate(114.37037037037038 14.222222222222223)"/><path d="M1967.5 718.07h-10.3m-10.3 0h-20.6m-10.32 0h-20.6m-10.3 0h-20.6m-10.3 0h-20.62m-10.3 0h-20.6m-10.3 0h-20.62m-10.3 0h-20.6m-10.3 0h-20.62m-10.3 0h-20.6m-10.3 0h-20.6m-10.32 0h-20.07m-9.78 0h-19.54m-9.76 0h-19.55m-9.78 0h-19.55m-9.77 0h-19.54m-9.78 0h-19.54m-9.77 0h-19.55m-9.77 0h-19.55m-9.77 0h-19.55m-9.77 0h-19.53m-9.78 0h-19.55m-9.77 0H1305" stroke="#5e5e5e" stroke-width="2" fill="none"/><path d="M1968.5 719.07h-1.03v-2h1.03z" fill="#5e5e5e"/><path d="M1289.74 718.07l14.26-4.63v9.27z" stroke="#5e5e5e" stroke-width="2" fill="#5e5e5e"/><path d="M1242.5 715.78h-9.95m-9.94 0h-19.88m-9.95 0h-19.9m-9.94 0h-19.9m-9.94 0h-19.9m-9.94 0h-19.9m-9.94 0h-19.9m-9.94 0h-19.9m-9.94 0h-19.9m-9.93 0H964m-9.93 0h-19.9m-9.94 0h-19.9m-9.94 0h-19.9m-9.95 0h-19.9m-9.93 0h-19.9m-9.94 0h-19.9m-9.94 0h-19.9m-9.94 0h-19.9m-9.93 0h-19.9m-9.94 0h-19.9m-9.94 0h-19.9m-9.95 0h-19.9m-9.94 0h-19.88m-9.94 0h-19.9m-9.94 0h-19.9m-9.94 0h-19.9m-9.94 0h-19.9m-9.93 0h-19.9m-9.94 0h-19.9m-9.95 0h-19.9m-9.94 0h-19.88m-9.95 0h-19.9m-9.93 0h-19.9m-9.94 0h-19.9m-9.94 0h-19.9m-9.94 0h-19.9m-9.93 0h-19.9m-9.95 0h-9.95" stroke="#5e5e5e" stroke-width="2" fill="none"/><path d="M1243.5 716.78h-1.03v-2h1.03z" fill="#5e5e5e"/><path d="M123.24 715.78l14.26-4.64v9.27z" stroke="#5e5e5e" stroke-width="2" fill="#5e5e5e"/><path d="M1225 796.6H121" stroke="#5e5e5e" stroke-width="2" fill="none"/><path d="M1240.26 796.6l-14.26 4.64v-9.27z" stroke="#5e5e5e" stroke-width="2" fill="#5e5e5e"/><path d="M121.03 796.6H120" stroke="#5e5e5e" stroke-width="2" fill="none"/><use xlink:href="#B" transform="matrix(1,0,0,1,743.9206061622066,800.6023356633282) translate(0 14.222222222222223)"/><use xlink:href="#C" transform="matrix(1,0,0,1,743.9206061622066,800.6023356633282) translate(58.22222222222223 14.222222222222223)"/><path d="M1245 786c0-3.3 2.7-6 6-6h28c3.3 0 6 2.7 6 6v108c0 3.3-2.7 6-6 6h-28c-3.3 0-6-2.7-6-6z" stroke="#5e5e5e" stroke-width="3" fill="#fff"/><path d="M1287.5 796.6H1950" stroke="#5e5e5e" stroke-width="2" fill="none"/><path d="M1287.53 797.6h-1.03v-2h1.03z" fill="#5e5e5e"/><path d="M1965.26 796.6l-14.26 4.64v-9.27z" stroke="#5e5e5e" stroke-width="2" fill="#5e5e5e"/><use xlink:href="#D" transform="matrix(1,0,0,1,1463.5578938070355,800.6023356633283) translate(0 14.222222222222221)"/><path d="M1970 786c0-3.3 2.7-6 6-6h28c3.3 0 6 2.7 6 6v108c0 3.3-2.7 6-6 6h-28c-3.3 0-6-2.7-6-6zM2390 786c0-3.3 2.7-6 6-6h28c3.3 0 6 2.7 6 6v108c0 3.3-2.7 6-6 6h-28c-3.3 0-6-2.7-6-6z" stroke="#5e5e5e" stroke-width="3" fill="#fff"/><path d="M2012.5 797.75H2370" stroke="#5e5e5e" stroke-width="2" fill="none"/><path d="M2012.53 798.75h-1.03v-2h1.03z" fill="#5e5e5e"/><path d="M2385.26 797.75L2371 802.4v-9.28z" stroke="#5e5e5e" stroke-width="2" fill="#5e5e5e"/><use xlink:href="#E" transform="matrix(1,0,0,1,2010.868426562089,801.7514373522512) translate(0.0049999999999954525 12.444444444444443)"/><path d="M2387.5 880.5h-10.42m-10.4 0h-20.85m-10.4 0h-20.85m-10.4 0h-20.85m-10.4 0h-20.85m-10.4 0h-20.85m-10.4 0H2190.55m-9.45 0h-18.88m-9.44 0h-18.9m-9.43 0h-18.9m-9.44 0h-18.88m-9.44 0h-18.9m-9.43 0H2030" stroke="#5e5e5e" stroke-width="2" fill="none"/><path d="M2388.5 881.5h-1.03v-2h1.03z" fill="#5e5e5e"/><path d="M2014.74 880.5l14.26-4.65v9.27z" stroke="#5e5e5e" stroke-width="2" fill="#5e5e5e"/><g><use xlink:href="#F" transform="matrix(1,0,0,1,2112.246913580247,884.4867589547055) translate(0 14.222222222222223)"/><use xlink:href="#h" transform="matrix(1,0,0,1,2112.246913580247,884.4867589547055) translate(114.37037037037038 14.222222222222223)"/></g><path d="M1967.5 882.78h-10.3m-10.3 0h-20.6m-10.32 0h-20.6m-10.3 0h-20.6m-10.3 0h-20.62m-10.3 0h-20.6m-10.3 0h-20.62m-10.3 0h-20.6m-10.3 0h-20.62m-10.3 0h-20.6m-10.3 0h-20.6m-10.32 0h-20.07m-9.78 0h-19.54m-9.76 0h-19.55m-9.78 0h-19.55m-9.77 0h-19.54m-9.78 0h-19.54m-9.77 0h-19.55m-9.77 0h-19.55m-9.77 0h-19.55m-9.77 0h-19.53m-9.78 0h-19.55m-9.77 0H1305" stroke="#5e5e5e" stroke-width="2" fill="none"/><path d="M1968.5 883.78h-1.03v-2h1.03z" fill="#5e5e5e"/><path d="M1289.74 882.78l14.26-4.63v9.27z" stroke="#5e5e5e" stroke-width="2" fill="#5e5e5e"/><path d="M1242.5 880.5h-9.95m-9.94 0h-19.88m-9.95 0h-19.9m-9.94 0h-19.9m-9.94 0h-19.9m-9.94 0h-19.9m-9.94 0h-19.9m-9.94 0h-19.9m-9.94 0h-19.9m-9.93 0H964m-9.93 0h-19.9m-9.94 0h-19.9m-9.94 0h-19.9m-9.95 0h-19.9m-9.93 0h-19.9m-9.94 0h-19.9m-9.94 0h-19.9m-9.94 0h-19.9m-9.93 0h-19.9m-9.94 0h-19.9m-9.94 0h-19.9m-9.95 0h-19.9m-9.94 0h-19.88m-9.94 0h-19.9m-9.94 0h-19.9m-9.94 0h-19.9m-9.94 0h-19.9m-9.93 0h-19.9m-9.94 0h-19.9m-9.95 0h-19.9m-9.94 0h-19.88m-9.95 0h-19.9m-9.93 0h-19.9m-9.94 0h-19.9m-9.94 0h-19.9m-9.94 0h-19.9m-9.93 0h-19.9m-9.95 0h-9.95" stroke="#5e5e5e" stroke-width="2" fill="none"/><path d="M1243.5 881.5h-1.03v-2h1.03z" fill="#5e5e5e"/><path d="M123.24 880.5l14.26-4.65v9.27z" stroke="#5e5e5e" stroke-width="2" fill="#5e5e5e"/><defs><path fill="#333" d="M23 0v-37h61v-169l-59 37v-38l62-41h46v211h57V0H23" id="G"/><path fill="#333" d="M35-132v-50h50v50H35zM35 0v-49h50V0H35" id="H"/><path fill="#333" d="M147 0H94L2-248h55l64 206c17-72 42-137 63-206h54" id="I"/><path fill="#333" d="M185-48c-13 30-37 53-82 52C43 2 14-33 14-96s30-98 90-98c62 0 83 45 84 108H66c0 31 8 55 39 56 18 0 30-7 34-22zm-45-69c5-46-57-63-70-21-2 6-4 13-4 21h74" id="J"/><path fill="#333" d="M135-150c-39-12-60 13-60 57V0H25l-1-190h47c2 13-1 29 3 40 6-28 27-53 61-41v41" id="K"/><g id="a"><use transform="matrix(0.04938271604938272,0,0,0.04938271604938272,0,0)" xlink:href="#G"/><use transform="matrix(0.04938271604938272,0,0,0.04938271604938272,9.876543209876544,0)" xlink:href="#H"/><use transform="matrix(0.04938271604938272,0,0,0.04938271604938272,15.753086419753087,0)" xlink:href="#I"/><use transform="matrix(0.04938271604938272,0,0,0.04938271604938272,26.617283950617285,0)" xlink:href="#J"/><use transform="matrix(0.04938271604938272,0,0,0.04938271604938272,36.49382716049383,0)" xlink:href="#K"/></g><path fill="#333" d="M128 0H69L1-190h53L99-40l48-150h52" id="L"/><path fill="#333" d="M135-194c87-1 58 113 63 194h-50c-7-57 23-157-34-157-59 0-34 97-39 157H25l-1-190h47c2 12-1 28 3 38 12-26 28-41 61-42" id="M"/><path fill="#333" d="M115-3C79 11 28 4 28-45v-112H4v-33h27l15-45h31v45h36v33H77v99c-1 23 16 31 38 25v30" id="N"/><path fill="#333" d="M110-194c64 0 96 36 96 99 0 64-35 99-97 99-61 0-95-36-95-99 0-62 34-99 96-99zm-1 164c35 0 45-28 45-65 0-40-10-65-43-65-34 0-45 26-45 65 0 36 10 65 43 65" id="O"/><g id="b"><use transform="matrix(0.04938271604938272,0,0,0.04938271604938272,0,0)" xlink:href="#J"/><use transform="matrix(0.04938271604938272,0,0,0.04938271604938272,9.876543209876544,0)" xlink:href="#L"/><use transform="matrix(0.04938271604938272,0,0,0.04938271604938272,19.75308641975309,0)" xlink:href="#J"/><use transform="matrix(0.04938271604938272,0,0,0.04938271604938272,29.629629629629633,0)" xlink:href="#M"/><use transform="matrix(0.04938271604938272,0,0,0.04938271604938272,40.44444444444445,0)" xlink:href="#N"/><use transform="matrix(0.04938271604938272,0,0,0.04938271604938272,46.320987654320994,0)" xlink:href="#O"/></g><path fill="#333" d="M139-81c0-46-55-55-73-27H18l9-140h149v37H72l-4 63c44-38 133-4 122 66C201 21 21 35 11-62l49-4c5 18 15 30 39 30 26 0 40-18 40-45" id="P"/><path fill="#333" d="M240-174c0 40-23 61-54 70L253 0h-59l-57-94H76V0H24v-248c93 4 217-23 216 74zM76-134c48-2 112 12 112-38 0-48-66-32-112-35v73" id="Q"/><path fill="#333" d="M133-34C117-15 103 5 69 4 32 3 11-16 11-54c-1-60 55-63 116-61 1-26-3-47-28-47-18 1-26 9-28 27l-52-2c7-38 36-58 82-57s74 22 75 68l1 82c-1 14 12 18 25 15v27c-30 8-71 5-69-32zm-48 3c29 0 43-24 42-57-32 0-66-3-65 30 0 17 8 27 23 27" id="R"/><path fill="#333" d="M25 0v-261h50V0H25" id="S"/><path fill="#333" d="M25-224v-37h50v37H25zM25 0v-190h50V0H25" id="T"/><path fill="#333" d="M12 0v-35l95-120H19v-35h142v35L67-36h103V0H12" id="U"/><g id="c"><use transform="matrix(0.04938271604938272,0,0,0.04938271604938272,0,0)" xlink:href="#P"/><use transform="matrix(0.04938271604938272,0,0,0.04938271604938272,9.876543209876544,0)" xlink:href="#H"/><use transform="matrix(0.04938271604938272,0,0,0.04938271604938272,15.753086419753087,0)" xlink:href="#Q"/><use transform="matrix(0.04938271604938272,0,0,0.04938271604938272,28.54320987654322,0)" xlink:href="#J"/><use transform="matrix(0.04938271604938272,0,0,0.04938271604938272,38.41975308641976,0)" xlink:href="#R"/><use transform="matrix(0.04938271604938272,0,0,0.04938271604938272,48.296296296296305,0)" xlink:href="#S"/><use transform="matrix(0.04938271604938272,0,0,0.04938271604938272,53.23456790123457,0)" xlink:href="#T"/><use transform="matrix(0.04938271604938272,0,0,0.04938271604938272,58.17283950617284,0)" xlink:href="#U"/><use transform="matrix(0.04938271604938272,0,0,0.04938271604938272,67.06172839506173,0)" xlink:href="#R"/></g><path fill="#333" d="M190-63c-7 42-38 67-86 67-59 0-84-38-90-98-12-110 154-137 174-36l-49 2c-2-19-15-32-35-32-30 0-35 28-38 64-6 74 65 87 74 30" id="V"/><path fill="#333" d="M220-157c-53 9-28 100-34 157h-49v-107c1-27-5-49-29-50C55-147 81-57 75 0H25l-1-190h47c2 12-1 28 3 38 10-53 101-56 108 0 13-22 24-43 59-42 82 1 51 116 57 194h-49v-107c-1-25-5-48-29-50" id="W"/><g id="d"><use transform="matrix(0.04938271604938272,0,0,0.04938271604938272,0,0)" xlink:href="#V"/><use transform="matrix(0.04938271604938272,0,0,0.04938271604938272,9.876543209876544,0)" xlink:href="#O"/><use transform="matrix(0.04938271604938272,0,0,0.04938271604938272,20.69135802469136,0)" xlink:href="#W"/><use transform="matrix(0.04938271604938272,0,0,0.04938271604938272,36.49382716049383,0)" xlink:href="#J"/><use transform="matrix(0.04938271604938272,0,0,0.04938271604938272,46.370370370370374,0)" xlink:href="#M"/><use transform="matrix(0.04938271604938272,0,0,0.04938271604938272,57.18518518518519,0)" xlink:href="#N"/><use transform="matrix(0.04938271604938272,0,0,0.04938271604938272,63.061728395061735,0)" xlink:href="#R"/><use transform="matrix(0.04938271604938272,0,0,0.04938271604938272,72.93827160493828,0)" xlink:href="#K"/><use transform="matrix(0.04938271604938272,0,0,0.04938271604938272,79.85185185185186,0)" xlink:href="#T"/><use transform="matrix(0.04938271604938272,0,0,0.04938271604938272,84.79012345679013,0)" xlink:href="#O"/></g><path fill="#333" d="M115-159c48 0 72 30 72 78 0 54-30 85-83 85-64 0-91-50-91-122 0-98 58-163 141-120 15 8 21 24 27 44l-47 6c-5-31-48-31-61-4-7 14-11 33-11 60 9-17 28-27 53-27zM102-35c24 0 36-20 36-45s-11-43-37-43c-23 0-36 14-36 38 0 27 11 50 37 50" id="X"/><path fill="#333" d="M-4 44V30h207v14H-4" id="Y"/><path fill="#333" d="M67-93c0 74 22 123 53 168H70C40 30 18-18 18-93s22-123 52-168h50c-32 44-53 94-53 168" id="Z"/><path fill="#333" d="M102-93c0 74-22 123-52 168H0C30 29 54-18 53-93c0-74-22-123-53-168h50c30 45 52 94 52 168" id="aa"/><path fill="#333" d="M88-194c31-1 46 15 58 34l-1-101h50l1 261h-48c-2-10 0-23-3-31C134-8 116 4 84 4 32 4 16-41 15-95c0-56 19-97 73-99zm17 164c33 0 40-30 41-66 1-37-9-64-41-64s-38 30-39 65c0 43 13 65 39 65" id="ab"/><g id="e"><use transform="matrix(0.049382716049382706,0,0,0.049382716049382706,0,0)" xlink:href="#X"/><use transform="matrix(0.049382716049382706,0,0,0.049382716049382706,9.87654320987654,0)" xlink:href="#H"/><use transform="matrix(0.049382716049382706,0,0,0.049382716049382706,15.75308641975308,0)" xlink:href="#V"/><use transform="matrix(0.049382716049382706,0,0,0.049382716049382706,25.629629629629626,0)" xlink:href="#K"/><use transform="matrix(0.049382716049382706,0,0,0.049382716049382706,32.5432098765432,0)" xlink:href="#J"/><use transform="matrix(0.049382716049382706,0,0,0.049382716049382706,42.419753086419746,0)" xlink:href="#R"/><use transform="matrix(0.049382716049382706,0,0,0.049382716049382706,52.29629629629628,0)" xlink:href="#K"/><use transform="matrix(0.049382716049382706,0,0,0.049382716049382706,59.20987654320987,0)" xlink:href="#Y"/><use transform="matrix(0.049382716049382706,0,0,0.049382716049382706,69.08641975308642,0)" xlink:href="#V"/><use transform="matrix(0.049382716049382706,0,0,0.049382716049382706,78.96296296296296,0)" xlink:href="#O"/><use transform="matrix(0.049382716049382706,0,0,0.049382716049382706,89.77777777777777,0)" xlink:href="#W"/><use transform="matrix(0.049382716049382706,0,0,0.049382716049382706,105.58024691358025,0)" xlink:href="#J"/><use transform="matrix(0.049382716049382706,0,0,0.049382716049382706,115.45679012345678,0)" xlink:href="#M"/><use transform="matrix(0.049382716049382706,0,0,0.049382716049382706,126.27160493827161,0)" xlink:href="#N"/><use transform="matrix(0.049382716049382706,0,0,0.049382716049382706,132.14814814814812,0)" xlink:href="#R"/><use transform="matrix(0.049382716049382706,0,0,0.049382716049382706,142.02469135802465,0)" xlink:href="#K"/><use transform="matrix(0.049382716049382706,0,0,0.049382716049382706,148.93827160493822,0)" xlink:href="#T"/><use transform="matrix(0.049382716049382706,0,0,0.049382716049382706,153.8765432098765,0)" xlink:href="#O"/><use transform="matrix(0.049382716049382706,0,0,0.049382716049382706,164.6913580246913,0)" xlink:href="#Z"/><use transform="matrix(0.049382716049382706,0,0,0.049382716049382706,170.56790123456784,0)" xlink:href="#aa"/><use transform="matrix(0.049382716049382706,0,0,0.049382716049382706,176.44444444444437,0)" xlink:href="#H"/><use transform="matrix(0.049382716049382706,0,0,0.049382716049382706,182.3209876543209,0)" xlink:href="#L"/><use transform="matrix(0.049382716049382706,0,0,0.049382716049382706,192.19753086419743,0)" xlink:href="#O"/><use transform="matrix(0.049382716049382706,0,0,0.049382716049382706,203.01234567901227,0)" xlink:href="#T"/><use transform="matrix(0.049382716049382706,0,0,0.049382716049382706,207.95061728395052,0)" xlink:href="#ab"/></g><path fill="#333" d="M52 0c1-96 47-148 87-207H15v-41h169v40c-36 62-79 113-81 208H52" id="ac"/><path fill="#333" d="M25-224v-37h50v37H25zM75 22c2 45-34 59-81 51V38c22 5 31-5 31-27v-201h50V22" id="ad"/><path fill="#333" d="M137-138c1-29-70-34-71-4 15 46 118 7 119 86 1 83-164 76-172 9l43-7c4 19 20 25 44 25 33 8 57-30 24-41C81-84 22-81 20-136c-2-80 154-74 161-7" id="ae"/><g id="f"><use transform="matrix(0.04938271604938272,0,0,0.04938271604938272,0,0)" xlink:href="#ac"/><use transform="matrix(0.04938271604938272,0,0,0.04938271604938272,9.876543209876544,0)" xlink:href="#H"/><use transform="matrix(0.04938271604938272,0,0,0.04938271604938272,15.753086419753087,0)" xlink:href="#V"/><use transform="matrix(0.04938271604938272,0,0,0.04938271604938272,25.629629629629633,0)" xlink:href="#K"/><use transform="matrix(0.04938271604938272,0,0,0.04938271604938272,32.543209876543216,0)" xlink:href="#J"/><use transform="matrix(0.04938271604938272,0,0,0.04938271604938272,42.41975308641976,0)" xlink:href="#R"/><use transform="matrix(0.04938271604938272,0,0,0.04938271604938272,52.2962962962963,0)" xlink:href="#K"/><use transform="matrix(0.04938271604938272,0,0,0.04938271604938272,59.209876543209894,0)" xlink:href="#Y"/><use transform="matrix(0.04938271604938272,0,0,0.04938271604938272,69.08641975308643,0)" xlink:href="#V"/><use transform="matrix(0.04938271604938272,0,0,0.04938271604938272,78.96296296296298,0)" xlink:href="#O"/><use transform="matrix(0.04938271604938272,0,0,0.04938271604938272,89.77777777777779,0)" xlink:href="#W"/><use transform="matrix(0.04938271604938272,0,0,0.04938271604938272,105.58024691358025,0)" xlink:href="#J"/><use transform="matrix(0.04938271604938272,0,0,0.04938271604938272,115.4567901234568,0)" xlink:href="#M"/><use transform="matrix(0.04938271604938272,0,0,0.04938271604938272,126.27160493827162,0)" xlink:href="#N"/><use transform="matrix(0.04938271604938272,0,0,0.04938271604938272,132.14814814814815,0)" xlink:href="#R"/><use transform="matrix(0.04938271604938272,0,0,0.04938271604938272,142.0246913580247,0)" xlink:href="#K"/><use transform="matrix(0.04938271604938272,0,0,0.04938271604938272,148.93827160493828,0)" xlink:href="#T"/><use transform="matrix(0.04938271604938272,0,0,0.04938271604938272,153.87654320987656,0)" xlink:href="#O"/><use transform="matrix(0.04938271604938272,0,0,0.04938271604938272,164.69135802469137,0)" xlink:href="#Z"/><use transform="matrix(0.04938271604938272,0,0,0.04938271604938272,170.5679012345679,0)" xlink:href="#aa"/><use transform="matrix(0.04938271604938272,0,0,0.04938271604938272,176.44444444444443,0)" xlink:href="#H"/><use transform="matrix(0.04938271604938272,0,0,0.04938271604938272,182.32098765432096,0)" xlink:href="#ad"/><use transform="matrix(0.04938271604938272,0,0,0.04938271604938272,187.25925925925924,0)" xlink:href="#ae"/><use transform="matrix(0.04938271604938272,0,0,0.04938271604938272,197.1358024691358,0)" xlink:href="#O"/><use transform="matrix(0.04938271604938272,0,0,0.04938271604938272,207.95061728395058,0)" xlink:href="#M"/></g><path fill="#333" d="M138-131c27 9 52 24 51 61 0 53-36 74-89 74S11-19 11-69c0-35 22-54 51-61-78-25-46-121 38-121 51 0 83 19 83 66 0 30-18 49-45 54zm-38-16c24 0 32-13 32-36 1-23-11-34-32-34-22 0-33 12-32 34 0 22 9 36 32 36zm1 116c27 0 37-17 37-43 0-25-13-39-39-39-24 0-37 15-37 40 0 27 11 42 39 42" id="af"/><path fill="#333" d="M24 0v-248h195v40H76v63h132v40H76v65h150V0H24" id="ag"/><path fill="#333" d="M85 4C-2 5 27-109 22-190h50c7 57-23 150 33 157 60-5 35-97 40-157h50l1 190h-47c-2-12 1-28-3-38-12 25-28 42-61 42" id="ah"/><g id="g"><use transform="matrix(0.04938271604938272,0,0,0.04938271604938272,0,0)" xlink:href="#af"/><use transform="matrix(0.04938271604938272,0,0,0.04938271604938272,9.876543209876544,0)" xlink:href="#H"/><use transform="matrix(0.04938271604938272,0,0,0.04938271604938272,15.753086419753087,0)" xlink:href="#ag"/><use transform="matrix(0.04938271604938272,0,0,0.04938271604938272,27.604938271604947,0)" xlink:href="#ad"/><use transform="matrix(0.04938271604938272,0,0,0.04938271604938272,32.543209876543216,0)" xlink:href="#J"/><use transform="matrix(0.04938271604938272,0,0,0.04938271604938272,42.41975308641976,0)" xlink:href="#V"/><use transform="matrix(0.04938271604938272,0,0,0.04938271604938272,52.2962962962963,0)" xlink:href="#ah"/><use transform="matrix(0.04938271604938272,0,0,0.04938271604938272,63.111111111111114,0)" xlink:href="#V"/><use transform="matrix(0.04938271604938272,0,0,0.04938271604938272,72.98765432098767,0)" xlink:href="#T"/><use transform="matrix(0.04938271604938272,0,0,0.04938271604938272,77.92592592592595,0)" xlink:href="#O"/><use transform="matrix(0.04938271604938272,0,0,0.04938271604938272,88.74074074074076,0)" xlink:href="#M"/></g><path fill="#333" d="M144 0l-44-69L55 0H2l70-98-66-92h53l41 62 40-62h54l-67 91 71 99h-54" id="ai"/><g id="h"><use transform="matrix(0.04938271604938272,0,0,0.04938271604938272,0,0)" xlink:href="#J"/><use transform="matrix(0.04938271604938272,0,0,0.04938271604938272,9.876543209876544,0)" xlink:href="#ai"/><use transform="matrix(0.04938271604938272,0,0,0.04938271604938272,19.75308641975309,0)" xlink:href="#T"/><use transform="matrix(0.04938271604938272,0,0,0.04938271604938272,24.69135802469136,0)" xlink:href="#N"/><use transform="matrix(0.04938271604938272,0,0,0.04938271604938272,30.567901234567906,0)" xlink:href="#O"/><use transform="matrix(0.04938271604938272,0,0,0.04938271604938272,41.38271604938272,0)" xlink:href="#ae"/><use transform="matrix(0.04938271604938272,0,0,0.04938271604938272,51.25925925925927,0)" xlink:href="#R"/></g><path fill="#333" d="M232-93c-1 65-40 97-104 97C67 4 28-28 28-90v-158h33c8 89-33 224 67 224 102 0 64-133 71-224h33v155" id="aj"/><path fill="#333" d="M135-143c-3-34-86-38-87 0 15 53 115 12 119 90S17 21 10-45l28-5c4 36 97 45 98 0-10-56-113-15-118-90-4-57 82-63 122-42 12 7 21 19 24 35" id="ak"/><path fill="#333" d="M84 4C-5 8 30-112 23-190h32v120c0 31 7 50 39 49 72-2 45-101 50-169h31l1 190h-30c-1-10 1-25-2-33-11 22-28 36-60 37" id="al"/><path fill="#333" d="M141-36C126-15 110 5 73 4 37 3 15-17 15-53c-1-64 63-63 125-63 3-35-9-54-41-54-24 1-41 7-42 31l-33-3c5-37 33-52 76-52 45 0 72 20 72 64v82c-1 20 7 32 28 27v20c-31 9-61-2-59-35zM48-53c0 20 12 33 32 33 41-3 63-29 60-74-43 2-92-5-92 41" id="am"/><path fill="#333" d="M114-163C36-179 61-72 57 0H25l-1-190h30c1 12-1 29 2 39 6-27 23-49 58-41v29" id="an"/><path fill="#333" d="M24-231v-30h32v30H24zM24 0v-190h32V0H24" id="ao"/><path fill="#333" d="M100-194c62-1 85 37 85 99 1 63-27 99-86 99S16-35 15-95c0-66 28-99 85-99zM99-20c44 1 53-31 53-75 0-43-8-75-51-75s-53 32-53 75 10 74 51 75" id="ap"/><path fill="#333" d="M18-100v-36l175-74v27L42-118l151 64v27" id="aq"/><path fill="#333" d="M100-194c63 0 86 42 84 106H49c0 40 14 67 53 68 26 1 43-12 49-29l28 8c-11 28-37 45-77 45C44 4 14-33 15-96c1-61 26-98 85-98zm52 81c6-60-76-77-97-28-3 7-6 17-6 28h103" id="ar"/><path fill="#333" d="M177-190C167-65 218 103 67 71c-23-6-38-20-44-43l32-5c15 47 100 32 89-28v-30C133-14 115 1 83 1 29 1 15-40 15-95c0-56 16-97 71-98 29-1 48 16 59 35 1-10 0-23 2-32h30zM94-22c36 0 50-32 50-73 0-42-14-75-50-75-39 0-46 34-46 75s6 73 46 73" id="as"/><path fill="#333" d="M59-47c-2 24 18 29 38 22v24C64 9 27 4 27-40v-127H5v-23h24l9-43h21v43h35v23H59v120" id="at"/><path fill="#333" d="M85-194c31 0 48 13 60 33l-1-100h32l1 261h-30c-2-10 0-23-3-31C134-8 116 4 85 4 32 4 16-35 15-94c0-66 23-100 70-100zm9 24c-40 0-46 34-46 75 0 40 6 74 45 74 42 0 51-32 51-76 0-42-9-74-50-73" id="au"/><path fill="#333" d="M18-27v-27l151-64-151-65v-27l175 74v36" id="av"/><g id="i"><use transform="matrix(0.06172839506172839,0,0,0.06172839506172839,0,0)" xlink:href="#aj"/><use transform="matrix(0.06172839506172839,0,0,0.06172839506172839,15.987654320987653,0)" xlink:href="#ak"/><use transform="matrix(0.06172839506172839,0,0,0.06172839506172839,27.098765432098766,0)" xlink:href="#al"/><use transform="matrix(0.06172839506172839,0,0,0.06172839506172839,39.44444444444444,0)" xlink:href="#am"/><use transform="matrix(0.06172839506172839,0,0,0.06172839506172839,51.79012345679012,0)" xlink:href="#an"/><use transform="matrix(0.06172839506172839,0,0,0.06172839506172839,59.1358024691358,0)" xlink:href="#ao"/><use transform="matrix(0.06172839506172839,0,0,0.06172839506172839,64.01234567901234,0)" xlink:href="#ap"/><use transform="matrix(0.06172839506172839,0,0,0.06172839506172839,76.35802469135803,0)" xlink:href="#aq"/><use transform="matrix(0.06172839506172839,0,0,0.06172839506172839,89.32098765432099,0)" xlink:href="#an"/><use transform="matrix(0.06172839506172839,0,0,0.06172839506172839,96.66666666666667,0)" xlink:href="#ar"/><use transform="matrix(0.06172839506172839,0,0,0.06172839506172839,109.01234567901236,0)" xlink:href="#as"/><use transform="matrix(0.06172839506172839,0,0,0.06172839506172839,121.35802469135804,0)" xlink:href="#ao"/><use transform="matrix(0.06172839506172839,0,0,0.06172839506172839,126.23456790123458,0)" xlink:href="#ak"/><use transform="matrix(0.06172839506172839,0,0,0.06172839506172839,137.3456790123457,0)" xlink:href="#at"/><use transform="matrix(0.06172839506172839,0,0,0.06172839506172839,143.51851851851853,0)" xlink:href="#an"/><use transform="matrix(0.06172839506172839,0,0,0.06172839506172839,150.8641975308642,0)" xlink:href="#am"/><use transform="matrix(0.06172839506172839,0,0,0.06172839506172839,163.20987654320987,0)" xlink:href="#au"/><use transform="matrix(0.06172839506172839,0,0,0.06172839506172839,175.55555555555554,0)" xlink:href="#ap"/><use transform="matrix(0.06172839506172839,0,0,0.06172839506172839,187.9012345679012,0)" xlink:href="#av"/></g><path d="M147 0H94L2-248h55l64 206c17-72 42-137 63-206h54" id="aw"/><path d="M25-224v-37h50v37H25zM25 0v-190h50V0H25" id="ax"/><path d="M137-138c1-29-70-34-71-4 15 46 118 7 119 86 1 83-164 76-172 9l43-7c4 19 20 25 44 25 33 8 57-30 24-41C81-84 22-81 20-136c-2-80 154-74 161-7" id="ay"/><path d="M115-3C79 11 28 4 28-45v-112H4v-33h27l15-45h31v45h36v33H77v99c-1 23 16 31 38 25v30" id="az"/><path d="M133-34C117-15 103 5 69 4 32 3 11-16 11-54c-1-60 55-63 116-61 1-26-3-47-28-47-18 1-26 9-28 27l-52-2c7-38 36-58 82-57s74 22 75 68l1 82c-1 14 12 18 25 15v27c-30 8-71 5-69-32zm-48 3c29 0 43-24 42-57-32 0-66-3-65 30 0 17 8 27 23 27" id="aA"/><path d="M24 0v-248h195v40H76v63h132v40H76v65h150V0H24" id="aB"/><path d="M128 0H69L1-190h53L99-40l48-150h52" id="aC"/><path d="M185-48c-13 30-37 53-82 52C43 2 14-33 14-96s30-98 90-98c62 0 83 45 84 108H66c0 31 8 55 39 56 18 0 30-7 34-22zm-45-69c5-46-57-63-70-21-2 6-4 13-4 21h74" id="aD"/><path d="M135-194c87-1 58 113 63 194h-50c-7-57 23-157-34-157-59 0-34 97-39 157H25l-1-190h47c2 12-1 28 3 38 12-26 28-41 61-42" id="aE"/><path d="M110-194c64 0 96 36 96 99 0 64-35 99-97 99-61 0-95-36-95-99 0-62 34-99 96-99zm-1 164c35 0 45-28 45-65 0-40-10-65-43-65-34 0-45 26-45 65 0 36 10 65 43 65" id="aF"/><path d="M238-95c0 69-44 99-111 99C63 4 22-25 22-93v-155h51v151c-1 38 19 59 55 60 90 1 49-130 58-211h52v153" id="aG"/><path d="M85 4C-2 5 27-109 22-190h50c7 57-23 150 33 157 60-5 35-97 40-157h50l1 190h-47c-2-12 1-28-3-38-12 25-28 42-61 42" id="aH"/><path d="M135-150c-39-12-60 13-60 57V0H25l-1-190h47c2 13-1 29 3 40 6-28 27-53 61-41v41" id="aI"/><g id="j"><use transform="matrix(0.05,0,0,0.05,0,0)" xlink:href="#aw"/><use transform="matrix(0.05,0,0,0.05,11.65,0)" xlink:href="#ax"/><use transform="matrix(0.05,0,0,0.05,16.65,0)" xlink:href="#ay"/><use transform="matrix(0.05,0,0,0.05,26.649999999999995,0)" xlink:href="#az"/><use transform="matrix(0.05,0,0,0.05,32.6,0)" xlink:href="#aA"/><use transform="matrix(0.05,0,0,0.05,42.6,0)" xlink:href="#aB"/><use transform="matrix(0.05,0,0,0.05,54.6,0)" xlink:href="#aC"/><use transform="matrix(0.05,0,0,0.05,64.6,0)" xlink:href="#aD"/><use transform="matrix(0.05,0,0,0.05,74.6,0)" xlink:href="#aE"/><use transform="matrix(0.05,0,0,0.05,85.55,0)" xlink:href="#az"/><use transform="matrix(0.05,0,0,0.05,91.5,0)" xlink:href="#aF"/><use transform="matrix(0.05,0,0,0.05,102.45,0)" xlink:href="#aG"/><use transform="matrix(0.05,0,0,0.05,115.4,0)" xlink:href="#ay"/><use transform="matrix(0.05,0,0,0.05,125.4,0)" xlink:href="#aH"/><use transform="matrix(0.05,0,0,0.05,136.35,0)" xlink:href="#aA"/><use transform="matrix(0.05,0,0,0.05,146.35,0)" xlink:href="#aI"/><use transform="matrix(0.05,0,0,0.05,153.35,0)" xlink:href="#ax"/><use transform="matrix(0.05,0,0,0.05,158.35,0)" xlink:href="#aF"/></g><path fill="#333" d="M182-182c0 78-84 86-111 141h115V0H12c-6-101 99-100 120-180 1-22-12-31-33-32-23 0-32 14-35 34l-49-3c5-45 32-70 84-70 51 0 83 22 83 69" id="aJ"/><g id="k"><use transform="matrix(0.04938271604938272,0,0,0.04938271604938272,0,0)" xlink:href="#aJ"/><use transform="matrix(0.04938271604938272,0,0,0.04938271604938272,9.876543209876544,0)" xlink:href="#H"/><use transform="matrix(0.04938271604938272,0,0,0.04938271604938272,15.753086419753087,0)" xlink:href="#W"/><use transform="matrix(0.04938271604938272,0,0,0.04938271604938272,31.555555555555557,0)" xlink:href="#O"/><use transform="matrix(0.04938271604938272,0,0,0.04938271604938272,42.370370370370374,0)" xlink:href="#ae"/><use transform="matrix(0.04938271604938272,0,0,0.04938271604938272,52.24691358024692,0)" xlink:href="#N"/><use transform="matrix(0.04938271604938272,0,0,0.04938271604938272,58.12345679012346,0)" xlink:href="#R"/><use transform="matrix(0.04938271604938272,0,0,0.04938271604938272,68,0)" xlink:href="#K"/><use transform="matrix(0.04938271604938272,0,0,0.04938271604938272,74.91358024691358,0)" xlink:href="#Y"/><use transform="matrix(0.04938271604938272,0,0,0.04938271604938272,84.79012345679013,0)" xlink:href="#J"/><use transform="matrix(0.04938271604938272,0,0,0.04938271604938272,94.66666666666667,0)" xlink:href="#L"/><use transform="matrix(0.04938271604938272,0,0,0.04938271604938272,104.54320987654322,0)" xlink:href="#J"/><use transform="matrix(0.04938271604938272,0,0,0.04938271604938272,114.41975308641976,0)" xlink:href="#M"/><use transform="matrix(0.04938271604938272,0,0,0.04938271604938272,125.23456790123458,0)" xlink:href="#N"/><use transform="matrix(0.04938271604938272,0,0,0.04938271604938272,131.11111111111111,0)" xlink:href="#O"/><use transform="matrix(0.04938271604938272,0,0,0.04938271604938272,141.92592592592592,0)" xlink:href="#ae"/><use transform="matrix(0.04938271604938272,0,0,0.04938271604938272,151.80246913580248,0)" xlink:href="#Z"/><use transform="matrix(0.04938271604938272,0,0,0.04938271604938272,157.679012345679,0)" xlink:href="#aa"/><use transform="matrix(0.04938271604938272,0,0,0.04938271604938272,163.55555555555554,0)" xlink:href="#H"/><use transform="matrix(0.04938271604938272,0,0,0.04938271604938272,169.43209876543207,0)" xlink:href="#L"/><use transform="matrix(0.04938271604938272,0,0,0.04938271604938272,179.3086419753086,0)" xlink:href="#O"/><use transform="matrix(0.04938271604938272,0,0,0.04938271604938272,190.1234567901234,0)" xlink:href="#T"/><use transform="matrix(0.04938271604938272,0,0,0.04938271604938272,195.0617283950617,0)" xlink:href="#ab"/></g><path fill="#333" d="M33 0v-248h34V0H33" id="aK"/><path fill="#333" d="M117-194c89-4 53 116 60 194h-32v-121c0-31-8-49-39-48C34-167 62-67 57 0H25l-1-190h30c1 10-1 24 2 32 11-22 29-35 61-36" id="aL"/><path fill="#333" d="M101-234c-31-9-42 10-38 44h38v23H63V0H32v-167H5v-23h27c-7-52 17-82 69-68v24" id="aM"/><path fill="#333" d="M9 0v-24l116-142H16v-24h144v24L44-24h123V0H9" id="aN"/><g id="l"><use transform="matrix(0.06172839506172839,0,0,0.06172839506172839,0,0)" xlink:href="#aq"/><use transform="matrix(0.06172839506172839,0,0,0.06172839506172839,12.962962962962962,0)" xlink:href="#aK"/><use transform="matrix(0.06172839506172839,0,0,0.06172839506172839,19.1358024691358,0)" xlink:href="#aL"/><use transform="matrix(0.06172839506172839,0,0,0.06172839506172839,31.48148148148148,0)" xlink:href="#at"/><use transform="matrix(0.06172839506172839,0,0,0.06172839506172839,37.65432098765432,0)" xlink:href="#ar"/><use transform="matrix(0.06172839506172839,0,0,0.06172839506172839,50,0)" xlink:href="#an"/><use transform="matrix(0.06172839506172839,0,0,0.06172839506172839,57.34567901234568,0)" xlink:href="#aM"/><use transform="matrix(0.06172839506172839,0,0,0.06172839506172839,63.51851851851851,0)" xlink:href="#am"/><use transform="matrix(0.06172839506172839,0,0,0.06172839506172839,75.8641975308642,0)" xlink:href="#aN"/><use transform="matrix(0.06172839506172839,0,0,0.06172839506172839,86.97530864197532,0)" xlink:href="#av"/></g><path fill="#333" d="M128-127c34 4 56 21 59 58 7 91-148 94-172 28-4-9-6-17-7-26l51-5c1 24 16 35 40 36 23 0 39-12 38-36-1-31-31-36-65-34v-40c32 2 59-3 59-33 0-20-13-33-34-33s-33 13-35 32l-50-3c6-44 37-68 86-68 50 0 83 20 83 66 0 35-22 52-53 58" id="aO"/><path fill="#333" d="M135-194c52 0 70 43 70 98 0 56-19 99-73 100-30 1-46-15-58-35L72 0H24l1-261h50v104c11-23 29-37 60-37zM114-30c31 0 40-27 40-66 0-37-7-63-39-63s-41 28-41 65c0 36 8 64 40 64" id="aP"/><g id="m"><use transform="matrix(0.049382716049382706,0,0,0.049382716049382706,0,0)" xlink:href="#aO"/><use transform="matrix(0.049382716049382706,0,0,0.049382716049382706,9.87654320987654,0)" xlink:href="#H"/><use transform="matrix(0.049382716049382706,0,0,0.049382716049382706,15.75308641975308,0)" xlink:href="#O"/><use transform="matrix(0.049382716049382706,0,0,0.049382716049382706,26.567901234567895,0)" xlink:href="#aP"/><use transform="matrix(0.049382716049382706,0,0,0.049382716049382706,37.38271604938271,0)" xlink:href="#N"/><use transform="matrix(0.049382716049382706,0,0,0.049382716049382706,43.25925925925925,0)" xlink:href="#J"/><use transform="matrix(0.049382716049382706,0,0,0.049382716049382706,53.13580246913579,0)" xlink:href="#M"/><use transform="matrix(0.049382716049382706,0,0,0.049382716049382706,63.950617283950606,0)" xlink:href="#J"/><use transform="matrix(0.049382716049382706,0,0,0.049382716049382706,73.82716049382715,0)" xlink:href="#K"/><use transform="matrix(0.049382716049382706,0,0,0.049382716049382706,80.74074074074073,0)" xlink:href="#Y"/><use transform="matrix(0.049382716049382706,0,0,0.049382716049382706,90.61728395061728,0)" xlink:href="#J"/><use transform="matrix(0.049382716049382706,0,0,0.049382716049382706,100.49382716049382,0)" xlink:href="#L"/><use transform="matrix(0.049382716049382706,0,0,0.049382716049382706,110.37037037037037,0)" xlink:href="#J"/><use transform="matrix(0.049382716049382706,0,0,0.049382716049382706,120.24691358024691,0)" xlink:href="#M"/><use transform="matrix(0.049382716049382706,0,0,0.049382716049382706,131.06172839506172,0)" xlink:href="#N"/><use transform="matrix(0.049382716049382706,0,0,0.049382716049382706,136.93827160493825,0)" xlink:href="#O"/><use transform="matrix(0.049382716049382706,0,0,0.049382716049382706,147.75308641975306,0)" xlink:href="#ae"/><use transform="matrix(0.049382716049382706,0,0,0.049382716049382706,157.6296296296296,0)" xlink:href="#Z"/><use transform="matrix(0.049382716049382706,0,0,0.049382716049382706,163.50617283950612,0)" xlink:href="#aa"/><use transform="matrix(0.049382716049382706,0,0,0.049382716049382706,169.38271604938265,0)" xlink:href="#H"/><use transform="matrix(0.049382716049382706,0,0,0.049382716049382706,175.25925925925918,0)" xlink:href="#L"/><use transform="matrix(0.049382716049382706,0,0,0.049382716049382706,185.1358024691357,0)" xlink:href="#O"/><use transform="matrix(0.049382716049382706,0,0,0.049382716049382706,195.95061728395052,0)" xlink:href="#T"/><use transform="matrix(0.049382716049382706,0,0,0.049382716049382706,200.8888888888888,0)" xlink:href="#ab"/></g><path fill="#333" d="M165-50V0h-47v-50H5v-38l105-160h55v161h33v37h-33zm-47-37l2-116L46-87h72" id="aQ"/><g id="n"><use transform="matrix(0.04938271604938272,0,0,0.04938271604938272,0,0)" xlink:href="#aQ"/><use transform="matrix(0.04938271604938272,0,0,0.04938271604938272,9.876543209876544,0)" xlink:href="#H"/><use transform="matrix(0.04938271604938272,0,0,0.04938271604938272,15.753086419753087,0)" xlink:href="#ag"/><use transform="matrix(0.04938271604938272,0,0,0.04938271604938272,27.604938271604947,0)" xlink:href="#ad"/><use transform="matrix(0.04938271604938272,0,0,0.04938271604938272,32.543209876543216,0)" xlink:href="#J"/><use transform="matrix(0.04938271604938272,0,0,0.04938271604938272,42.41975308641976,0)" xlink:href="#V"/><use transform="matrix(0.04938271604938272,0,0,0.04938271604938272,52.2962962962963,0)" xlink:href="#ah"/><use transform="matrix(0.04938271604938272,0,0,0.04938271604938272,63.111111111111114,0)" xlink:href="#V"/><use transform="matrix(0.04938271604938272,0,0,0.04938271604938272,72.98765432098767,0)" xlink:href="#T"/><use transform="matrix(0.04938271604938272,0,0,0.04938271604938272,77.92592592592595,0)" xlink:href="#O"/><use transform="matrix(0.04938271604938272,0,0,0.04938271604938272,88.74074074074076,0)" xlink:href="#M"/></g><path d="M240-174c0 40-23 61-54 70L253 0h-59l-57-94H76V0H24v-248c93 4 217-23 216 74zM76-134c48-2 112 12 112-38 0-48-66-32-112-35v73" id="aR"/><path d="M190-63c-7 42-38 67-86 67-59 0-84-38-90-98-12-110 154-137 174-36l-49 2c-2-19-15-32-35-32-30 0-35 28-38 64-6 74 65 87 74 30" id="aS"/><path d="M25 0v-261h50V0H25" id="aT"/><path d="M220-157c-53 9-28 100-34 157h-49v-107c1-27-5-49-29-50C55-147 81-57 75 0H25l-1-190h47c2 12-1 28 3 38 10-53 101-56 108 0 13-22 24-43 59-42 82 1 51 116 57 194h-49v-107c-1-25-5-48-29-50" id="aU"/><g id="o"><use transform="matrix(0.05,0,0,0.05,0,0)" xlink:href="#aw"/><use transform="matrix(0.05,0,0,0.05,11.65,0)" xlink:href="#ax"/><use transform="matrix(0.05,0,0,0.05,16.65,0)" xlink:href="#ay"/><use transform="matrix(0.05,0,0,0.05,26.649999999999995,0)" xlink:href="#az"/><use transform="matrix(0.05,0,0,0.05,32.6,0)" xlink:href="#aA"/><use transform="matrix(0.05,0,0,0.05,42.6,0)" xlink:href="#aR"/><use transform="matrix(0.05,0,0,0.05,55.550000000000004,0)" xlink:href="#aD"/><use transform="matrix(0.05,0,0,0.05,65.55000000000001,0)" xlink:href="#aS"/><use transform="matrix(0.05,0,0,0.05,75.55000000000001,0)" xlink:href="#aT"/><use transform="matrix(0.05,0,0,0.05,80.55000000000001,0)" xlink:href="#aA"/><use transform="matrix(0.05,0,0,0.05,90.55000000000001,0)" xlink:href="#aU"/><use transform="matrix(0.05,0,0,0.05,106.55000000000001,0)" xlink:href="#aF"/><use transform="matrix(0.05,0,0,0.05,117.5,0)" xlink:href="#ay"/><use transform="matrix(0.05,0,0,0.05,127.5,0)" xlink:href="#aG"/><use transform="matrix(0.05,0,0,0.05,140.45000000000002,0)" xlink:href="#ay"/><use transform="matrix(0.05,0,0,0.05,150.45000000000002,0)" xlink:href="#aH"/><use transform="matrix(0.05,0,0,0.05,161.4,0)" xlink:href="#aA"/><use transform="matrix(0.05,0,0,0.05,171.4,0)" xlink:href="#aI"/><use transform="matrix(0.05,0,0,0.05,178.4,0)" xlink:href="#ax"/><use transform="matrix(0.05,0,0,0.05,183.4,0)" xlink:href="#aF"/></g><path d="M67-125c0 53 21 87 73 88 37 1 54-22 65-47l45 17C233-25 199 4 140 4 58 4 20-42 15-125 8-235 124-281 211-232c18 10 29 29 36 50l-46 12c-8-25-30-41-62-41-52 0-71 34-72 86" id="aV"/><path d="M88-194c31-1 46 15 58 34l-1-101h50l1 261h-48c-2-10 0-23-3-31C134-8 116 4 84 4 32 4 16-41 15-95c0-56 19-97 73-99zm17 164c33 0 40-30 41-66 1-37-9-64-41-64s-38 30-39 65c0 43 13 65 39 65" id="aW"/><g id="p"><use transform="matrix(0.05,0,0,0.05,0,0)" xlink:href="#aV"/><use transform="matrix(0.05,0,0,0.05,12.950000000000001,0)" xlink:href="#aF"/><use transform="matrix(0.05,0,0,0.05,23.900000000000002,0)" xlink:href="#aE"/><use transform="matrix(0.05,0,0,0.05,34.85,0)" xlink:href="#az"/><use transform="matrix(0.05,0,0,0.05,40.800000000000004,0)" xlink:href="#aI"/><use transform="matrix(0.05,0,0,0.05,47.800000000000004,0)" xlink:href="#aF"/><use transform="matrix(0.05,0,0,0.05,58.75,0)" xlink:href="#aT"/><use transform="matrix(0.05,0,0,0.05,63.75,0)" xlink:href="#aA"/><use transform="matrix(0.05,0,0,0.05,73.75,0)" xlink:href="#aW"/><use transform="matrix(0.05,0,0,0.05,84.7,0)" xlink:href="#aF"/><use transform="matrix(0.05,0,0,0.05,95.65,0)" xlink:href="#aI"/><use transform="matrix(0.05,0,0,0.05,102.65,0)" xlink:href="#aB"/><use transform="matrix(0.05,0,0,0.05,114.65,0)" xlink:href="#aC"/><use transform="matrix(0.05,0,0,0.05,124.65,0)" xlink:href="#aD"/><use transform="matrix(0.05,0,0,0.05,134.65,0)" xlink:href="#aE"/><use transform="matrix(0.05,0,0,0.05,145.6,0)" xlink:href="#az"/><use transform="matrix(0.05,0,0,0.05,151.54999999999998,0)" xlink:href="#aF"/><use transform="matrix(0.05,0,0,0.05,162.49999999999997,0)" xlink:href="#ay"/></g><g id="q"><use transform="matrix(0.06172839506172839,0,0,0.06172839506172839,0,0)" xlink:href="#ag"/><use transform="matrix(0.06172839506172839,0,0,0.06172839506172839,14.814814814814813,0)" xlink:href="#L"/><use transform="matrix(0.06172839506172839,0,0,0.06172839506172839,27.160493827160494,0)" xlink:href="#J"/><use transform="matrix(0.06172839506172839,0,0,0.06172839506172839,39.50617283950617,0)" xlink:href="#M"/><use transform="matrix(0.06172839506172839,0,0,0.06172839506172839,53.02469135802469,0)" xlink:href="#N"/><use transform="matrix(0.06172839506172839,0,0,0.06172839506172839,60.37037037037037,0)" xlink:href="#O"/><use transform="matrix(0.06172839506172839,0,0,0.06172839506172839,73.88888888888889,0)" xlink:href="#ae"/></g><path fill="#333" d="M30 0v-248h187v28H63v79h144v27H63v87h162V0H30" id="aX"/><g id="r"><use transform="matrix(0.06172839506172839,0,0,0.06172839506172839,0,0)" xlink:href="#aq"/><use transform="matrix(0.06172839506172839,0,0,0.06172839506172839,12.962962962962962,0)" xlink:href="#aX"/><use transform="matrix(0.06172839506172839,0,0,0.06172839506172839,27.777777777777775,0)" xlink:href="#aL"/><use transform="matrix(0.06172839506172839,0,0,0.06172839506172839,40.123456790123456,0)" xlink:href="#at"/><use transform="matrix(0.06172839506172839,0,0,0.06172839506172839,46.2962962962963,0)" xlink:href="#ao"/><use transform="matrix(0.06172839506172839,0,0,0.06172839506172839,51.17283950617284,0)" xlink:href="#au"/><use transform="matrix(0.06172839506172839,0,0,0.06172839506172839,63.51851851851851,0)" xlink:href="#am"/><use transform="matrix(0.06172839506172839,0,0,0.06172839506172839,75.8641975308642,0)" xlink:href="#au"/><use transform="matrix(0.06172839506172839,0,0,0.06172839506172839,88.20987654320989,0)" xlink:href="#av"/></g><path fill="#333" d="M212-179c-10-28-35-45-73-45-59 0-87 40-87 99 0 60 29 101 89 101 43 0 62-24 78-52l27 14C228-24 195 4 139 4 59 4 22-46 18-125c-6-104 99-153 187-111 19 9 31 26 39 46" id="aY"/><path fill="#333" d="M24 0v-261h32V0H24" id="aZ"/><g id="s"><use transform="matrix(0.06172839506172839,0,0,0.06172839506172839,0,0)" xlink:href="#aq"/><use transform="matrix(0.06172839506172839,0,0,0.06172839506172839,12.962962962962962,0)" xlink:href="#aY"/><use transform="matrix(0.06172839506172839,0,0,0.06172839506172839,28.950617283950614,0)" xlink:href="#ap"/><use transform="matrix(0.06172839506172839,0,0,0.06172839506172839,41.29629629629629,0)" xlink:href="#aL"/><use transform="matrix(0.06172839506172839,0,0,0.06172839506172839,53.64197530864197,0)" xlink:href="#at"/><use transform="matrix(0.06172839506172839,0,0,0.06172839506172839,59.81481481481481,0)" xlink:href="#an"/><use transform="matrix(0.06172839506172839,0,0,0.06172839506172839,67.1604938271605,0)" xlink:href="#ap"/><use transform="matrix(0.06172839506172839,0,0,0.06172839506172839,79.50617283950618,0)" xlink:href="#aZ"/><use transform="matrix(0.06172839506172839,0,0,0.06172839506172839,84.38271604938272,0)" xlink:href="#am"/><use transform="matrix(0.06172839506172839,0,0,0.06172839506172839,96.7283950617284,0)" xlink:href="#au"/><use transform="matrix(0.06172839506172839,0,0,0.06172839506172839,109.07407407407409,0)" xlink:href="#ap"/><use transform="matrix(0.06172839506172839,0,0,0.06172839506172839,121.41975308641977,0)" xlink:href="#an"/><use transform="matrix(0.06172839506172839,0,0,0.06172839506172839,128.76543209876544,0)" xlink:href="#av"/></g><g id="t"><use transform="matrix(0.05,0,0,0.05,0,0)" xlink:href="#aV"/><use transform="matrix(0.05,0,0,0.05,12.950000000000001,0)" xlink:href="#aF"/><use transform="matrix(0.05,0,0,0.05,23.900000000000002,0)" xlink:href="#aE"/><use transform="matrix(0.05,0,0,0.05,34.85,0)" xlink:href="#az"/><use transform="matrix(0.05,0,0,0.05,40.800000000000004,0)" xlink:href="#aI"/><use transform="matrix(0.05,0,0,0.05,47.800000000000004,0)" xlink:href="#aF"/><use transform="matrix(0.05,0,0,0.05,58.75,0)" xlink:href="#aT"/><use transform="matrix(0.05,0,0,0.05,63.75,0)" xlink:href="#aA"/><use transform="matrix(0.05,0,0,0.05,73.75,0)" xlink:href="#aW"/><use transform="matrix(0.05,0,0,0.05,84.7,0)" xlink:href="#aF"/><use transform="matrix(0.05,0,0,0.05,95.65,0)" xlink:href="#aI"/><use transform="matrix(0.05,0,0,0.05,102.65,0)" xlink:href="#aR"/><use transform="matrix(0.05,0,0,0.05,115.60000000000001,0)" xlink:href="#aD"/><use transform="matrix(0.05,0,0,0.05,125.60000000000001,0)" xlink:href="#aS"/><use transform="matrix(0.05,0,0,0.05,135.60000000000002,0)" xlink:href="#aT"/><use transform="matrix(0.05,0,0,0.05,140.60000000000002,0)" xlink:href="#aA"/><use transform="matrix(0.05,0,0,0.05,150.60000000000002,0)" xlink:href="#aU"/><use transform="matrix(0.05,0,0,0.05,166.60000000000002,0)" xlink:href="#aF"/><use transform="matrix(0.05,0,0,0.05,177.55,0)" xlink:href="#ay"/></g><g id="u"><use transform="matrix(0.06172839506172839,0,0,0.06172839506172839,0,0)" xlink:href="#Q"/><use transform="matrix(0.06172839506172839,0,0,0.06172839506172839,15.987654320987653,0)" xlink:href="#J"/><use transform="matrix(0.06172839506172839,0,0,0.06172839506172839,28.333333333333332,0)" xlink:href="#V"/><use transform="matrix(0.06172839506172839,0,0,0.06172839506172839,40.67901234567901,0)" xlink:href="#S"/><use transform="matrix(0.06172839506172839,0,0,0.06172839506172839,46.851851851851855,0)" xlink:href="#R"/><use transform="matrix(0.06172839506172839,0,0,0.06172839506172839,59.19753086419753,0)" xlink:href="#W"/><use transform="matrix(0.06172839506172839,0,0,0.06172839506172839,78.95061728395062,0)" xlink:href="#O"/><use transform="matrix(0.06172839506172839,0,0,0.06172839506172839,92.46913580246914,0)" xlink:href="#ae"/></g><path fill="#333" d="M99-251c69 0 84 53 88 123 5 99-61 162-144 118-15-8-21-25-26-45l46-6c4 31 50 33 63 7 7-15 12-36 12-60-9 18-29 28-54 28-48 0-72-32-72-82 0-55 31-83 87-83zm-1 128c24 0 37-16 37-39 0-27-10-51-37-51-25 0-35 19-35 45 0 25 10 45 35 45" id="ba"/><g id="v"><use transform="matrix(0.04938271604938272,0,0,0.04938271604938272,0,0)" xlink:href="#ba"/><use transform="matrix(0.04938271604938272,0,0,0.04938271604938272,9.876543209876544,0)" xlink:href="#H"/><use transform="matrix(0.04938271604938272,0,0,0.04938271604938272,15.753086419753087,0)" xlink:href="#Q"/><use transform="matrix(0.04938271604938272,0,0,0.04938271604938272,28.54320987654322,0)" xlink:href="#J"/><use transform="matrix(0.04938271604938272,0,0,0.04938271604938272,38.41975308641976,0)" xlink:href="#R"/><use transform="matrix(0.04938271604938272,0,0,0.04938271604938272,48.296296296296305,0)" xlink:href="#S"/><use transform="matrix(0.04938271604938272,0,0,0.04938271604938272,53.23456790123457,0)" xlink:href="#T"/><use transform="matrix(0.04938271604938272,0,0,0.04938271604938272,58.17283950617284,0)" xlink:href="#U"/><use transform="matrix(0.04938271604938272,0,0,0.04938271604938272,67.06172839506173,0)" xlink:href="#R"/><use transform="matrix(0.04938271604938272,0,0,0.04938271604938272,76.93827160493828,0)" xlink:href="#K"/></g><g id="w"><use transform="matrix(0.04938271604938272,0,0,0.04938271604938272,0,0)" xlink:href="#K"/><use transform="matrix(0.04938271604938272,0,0,0.04938271604938272,6.913580246913581,0)" xlink:href="#J"/><use transform="matrix(0.04938271604938272,0,0,0.04938271604938272,16.790123456790127,0)" xlink:href="#V"/><use transform="matrix(0.04938271604938272,0,0,0.04938271604938272,26.666666666666668,0)" xlink:href="#S"/><use transform="matrix(0.04938271604938272,0,0,0.04938271604938272,31.60493827160494,0)" xlink:href="#R"/><use transform="matrix(0.04938271604938272,0,0,0.04938271604938272,41.48148148148149,0)" xlink:href="#W"/><use transform="matrix(0.04938271604938272,0,0,0.04938271604938272,57.283950617283956,0)" xlink:href="#O"/></g><path fill="#333" d="M101-251c68 0 84 54 84 127C185-50 166 4 99 4S15-52 14-124c-1-75 17-127 87-127zm-1 216c37-5 36-46 36-89s4-89-36-89c-39 0-36 45-36 89 0 43-3 85 36 89" id="bb"/><path fill="#333" d="M24 0v-54h51V0H24" id="bc"/><path fill="#333" d="M135-194c53 0 70 44 70 98 0 56-19 98-73 100-31 1-45-17-59-34 3 33 2 69 2 105H25l-1-265h48c2 10 0 23 3 31 11-24 29-35 60-35zM114-30c33 0 39-31 40-66 0-38-9-64-40-64-56 0-55 130 0 130" id="bd"/><g id="x"><use transform="matrix(0.04938271604938272,0,0,0.04938271604938272,0,0)" xlink:href="#G"/><use transform="matrix(0.04938271604938272,0,0,0.04938271604938272,9.876543209876544,0)" xlink:href="#bb"/><use transform="matrix(0.04938271604938272,0,0,0.04938271604938272,19.75308641975309,0)" xlink:href="#H"/><use transform="matrix(0.04938271604938272,0,0,0.04938271604938272,25.629629629629633,0)" xlink:href="#V"/><use transform="matrix(0.04938271604938272,0,0,0.04938271604938272,35.50617283950618,0)" xlink:href="#K"/><use transform="matrix(0.04938271604938272,0,0,0.04938271604938272,42.41975308641976,0)" xlink:href="#J"/><use transform="matrix(0.04938271604938272,0,0,0.04938271604938272,52.2962962962963,0)" xlink:href="#R"/><use transform="matrix(0.04938271604938272,0,0,0.04938271604938272,62.17283950617284,0)" xlink:href="#K"/><use transform="matrix(0.04938271604938272,0,0,0.04938271604938272,69.08641975308643,0)" xlink:href="#Y"/><use transform="matrix(0.04938271604938272,0,0,0.04938271604938272,78.96296296296298,0)" xlink:href="#K"/><use transform="matrix(0.04938271604938272,0,0,0.04938271604938272,85.87654320987656,0)" xlink:href="#J"/><use transform="matrix(0.04938271604938272,0,0,0.04938271604938272,95.7530864197531,0)" xlink:href="#V"/><use transform="matrix(0.04938271604938272,0,0,0.04938271604938272,105.62962962962963,0)" xlink:href="#S"/><use transform="matrix(0.04938271604938272,0,0,0.04938271604938272,110.56790123456793,0)" xlink:href="#R"/><use transform="matrix(0.04938271604938272,0,0,0.04938271604938272,120.44444444444447,0)" xlink:href="#W"/><use transform="matrix(0.04938271604938272,0,0,0.04938271604938272,136.24691358024694,0)" xlink:href="#O"/><use transform="matrix(0.04938271604938272,0,0,0.04938271604938272,147.06172839506175,0)" xlink:href="#Z"/><use transform="matrix(0.04938271604938272,0,0,0.04938271604938272,152.93827160493828,0)" xlink:href="#ah"/><use transform="matrix(0.04938271604938272,0,0,0.04938271604938272,163.7530864197531,0)" xlink:href="#ae"/><use transform="matrix(0.04938271604938272,0,0,0.04938271604938272,173.62962962962962,0)" xlink:href="#ah"/><use transform="matrix(0.04938271604938272,0,0,0.04938271604938272,184.44444444444443,0)" xlink:href="#R"/><use transform="matrix(0.04938271604938272,0,0,0.04938271604938272,194.32098765432096,0)" xlink:href="#K"/><use transform="matrix(0.04938271604938272,0,0,0.04938271604938272,201.23456790123453,0)" xlink:href="#T"/><use transform="matrix(0.04938271604938272,0,0,0.04938271604938272,206.1728395061728,0)" xlink:href="#O"/><use transform="matrix(0.04938271604938272,0,0,0.04938271604938272,216.98765432098762,0)" xlink:href="#bc"/><use transform="matrix(0.04938271604938272,0,0,0.04938271604938272,221.9259259259259,0)" xlink:href="#ae"/><use transform="matrix(0.04938271604938272,0,0,0.04938271604938272,231.80246913580245,0)" xlink:href="#ah"/><use transform="matrix(0.04938271604938272,0,0,0.04938271604938272,242.6172839506172,0)" xlink:href="#bd"/><use transform="matrix(0.04938271604938272,0,0,0.04938271604938272,253.43209876543202,0)" xlink:href="#J"/><use transform="matrix(0.04938271604938272,0,0,0.04938271604938272,263.3086419753086,0)" xlink:href="#K"/><use transform="matrix(0.04938271604938272,0,0,0.04938271604938272,270.2222222222222,0)" xlink:href="#L"/><use transform="matrix(0.04938271604938272,0,0,0.04938271604938272,280.09876543209873,0)" xlink:href="#T"/><use transform="matrix(0.04938271604938272,0,0,0.04938271604938272,285.037037037037,0)" xlink:href="#ae"/><use transform="matrix(0.04938271604938272,0,0,0.04938271604938272,294.91358024691357,0)" xlink:href="#O"/><use transform="matrix(0.04938271604938272,0,0,0.04938271604938272,305.7283950617284,0)" xlink:href="#K"/><use transform="matrix(0.04938271604938272,0,0,0.04938271604938272,312.641975308642,0)" xlink:href="#aa"/><use transform="matrix(0.04938271604938272,0,0,0.04938271604938272,318.51851851851853,0)" xlink:href="#H"/><use transform="matrix(0.04938271604938272,0,0,0.04938271604938272,324.3950617283951,0)" xlink:href="#L"/><use transform="matrix(0.04938271604938272,0,0,0.04938271604938272,334.27160493827165,0)" xlink:href="#O"/><use transform="matrix(0.04938271604938272,0,0,0.04938271604938272,345.0864197530865,0)" xlink:href="#T"/><use transform="matrix(0.04938271604938272,0,0,0.04938271604938272,350.02469135802477,0)" xlink:href="#ab"/></g><g id="y"><use transform="matrix(0.049382716049382706,0,0,0.049382716049382706,0,0)" xlink:href="#G"/><use transform="matrix(0.049382716049382706,0,0,0.049382716049382706,8.888888888888888,0)" xlink:href="#G"/><use transform="matrix(0.049382716049382706,0,0,0.049382716049382706,18.76543209876543,0)" xlink:href="#H"/><use transform="matrix(0.049382716049382706,0,0,0.049382716049382706,24.64197530864197,0)" xlink:href="#V"/><use transform="matrix(0.049382716049382706,0,0,0.049382716049382706,34.51851851851851,0)" xlink:href="#K"/><use transform="matrix(0.049382716049382706,0,0,0.049382716049382706,41.43209876543209,0)" xlink:href="#J"/><use transform="matrix(0.049382716049382706,0,0,0.049382716049382706,51.30864197530863,0)" xlink:href="#R"/><use transform="matrix(0.049382716049382706,0,0,0.049382716049382706,61.185185185185176,0)" xlink:href="#K"/><use transform="matrix(0.049382716049382706,0,0,0.049382716049382706,68.09876543209876,0)" xlink:href="#Y"/><use transform="matrix(0.049382716049382706,0,0,0.049382716049382706,77.9753086419753,0)" xlink:href="#K"/><use transform="matrix(0.049382716049382706,0,0,0.049382716049382706,84.88888888888889,0)" xlink:href="#J"/><use transform="matrix(0.049382716049382706,0,0,0.049382716049382706,94.76543209876543,0)" xlink:href="#V"/><use transform="matrix(0.049382716049382706,0,0,0.049382716049382706,104.64197530864197,0)" xlink:href="#S"/><use transform="matrix(0.049382716049382706,0,0,0.049382716049382706,109.58024691358025,0)" xlink:href="#R"/><use transform="matrix(0.049382716049382706,0,0,0.049382716049382706,119.45679012345678,0)" xlink:href="#W"/><use transform="matrix(0.049382716049382706,0,0,0.049382716049382706,135.25925925925924,0)" xlink:href="#O"/><use transform="matrix(0.049382716049382706,0,0,0.049382716049382706,146.07407407407405,0)" xlink:href="#Z"/><use transform="matrix(0.049382716049382706,0,0,0.049382716049382706,151.95061728395058,0)" xlink:href="#ah"/><use transform="matrix(0.049382716049382706,0,0,0.049382716049382706,162.7654320987654,0)" xlink:href="#ae"/><use transform="matrix(0.049382716049382706,0,0,0.049382716049382706,172.64197530864192,0)" xlink:href="#ah"/><use transform="matrix(0.049382716049382706,0,0,0.049382716049382706,183.45679012345673,0)" xlink:href="#R"/><use transform="matrix(0.049382716049382706,0,0,0.049382716049382706,193.33333333333326,0)" xlink:href="#K"/><use transform="matrix(0.049382716049382706,0,0,0.049382716049382706,200.24691358024683,0)" xlink:href="#T"/><use transform="matrix(0.049382716049382706,0,0,0.049382716049382706,205.1851851851851,0)" xlink:href="#O"/><use transform="matrix(0.049382716049382706,0,0,0.049382716049382706,215.99999999999991,0)" xlink:href="#bc"/><use transform="matrix(0.049382716049382706,0,0,0.049382716049382706,220.9382716049382,0)" xlink:href="#ae"/><use transform="matrix(0.049382716049382706,0,0,0.049382716049382706,230.81481481481472,0)" xlink:href="#ah"/><use transform="matrix(0.049382716049382706,0,0,0.049382716049382706,241.62962962962953,0)" xlink:href="#bd"/><use transform="matrix(0.049382716049382706,0,0,0.049382716049382706,252.44444444444434,0)" xlink:href="#J"/><use transform="matrix(0.049382716049382706,0,0,0.049382716049382706,262.3209876543209,0)" xlink:href="#K"/><use transform="matrix(0.049382716049382706,0,0,0.049382716049382706,269.23456790123447,0)" xlink:href="#L"/><use transform="matrix(0.049382716049382706,0,0,0.049382716049382706,279.11111111111103,0)" xlink:href="#T"/><use transform="matrix(0.049382716049382706,0,0,0.049382716049382706,284.0493827160493,0)" xlink:href="#ae"/><use transform="matrix(0.049382716049382706,0,0,0.049382716049382706,293.92592592592587,0)" xlink:href="#O"/><use transform="matrix(0.049382716049382706,0,0,0.049382716049382706,304.7407407407407,0)" xlink:href="#K"/><use transform="matrix(0.049382716049382706,0,0,0.049382716049382706,311.6543209876543,0)" xlink:href="#aa"/><use transform="matrix(0.049382716049382706,0,0,0.049382716049382706,317.53086419753083,0)" xlink:href="#H"/></g><g id="z"><use transform="matrix(0.049382716049382706,0,0,0.049382716049382706,0,0)" xlink:href="#O"/><use transform="matrix(0.049382716049382706,0,0,0.049382716049382706,10.814814814814813,0)" xlink:href="#aP"/><use transform="matrix(0.049382716049382706,0,0,0.049382716049382706,21.629629629629626,0)" xlink:href="#ad"/></g><g id="A"><use transform="matrix(0.04938271604938272,0,0,0.04938271604938272,0,0)" xlink:href="#G"/><use transform="matrix(0.04938271604938272,0,0,0.04938271604938272,9.876543209876544,0)" xlink:href="#aJ"/><use transform="matrix(0.04938271604938272,0,0,0.04938271604938272,19.75308641975309,0)" xlink:href="#H"/><use transform="matrix(0.04938271604938272,0,0,0.04938271604938272,25.629629629629633,0)" xlink:href="#ag"/><use transform="matrix(0.04938271604938272,0,0,0.04938271604938272,37.48148148148149,0)" xlink:href="#ad"/><use transform="matrix(0.04938271604938272,0,0,0.04938271604938272,42.41975308641976,0)" xlink:href="#J"/><use transform="matrix(0.04938271604938272,0,0,0.04938271604938272,52.2962962962963,0)" xlink:href="#V"/><use transform="matrix(0.04938271604938272,0,0,0.04938271604938272,62.17283950617284,0)" xlink:href="#ah"/><use transform="matrix(0.04938271604938272,0,0,0.04938271604938272,72.98765432098766,0)" xlink:href="#V"/><use transform="matrix(0.04938271604938272,0,0,0.04938271604938272,82.8641975308642,0)" xlink:href="#T"/><use transform="matrix(0.04938271604938272,0,0,0.04938271604938272,87.80246913580248,0)" xlink:href="#O"/><use transform="matrix(0.04938271604938272,0,0,0.04938271604938272,98.61728395061729,0)" xlink:href="#M"/></g><g id="B"><use transform="matrix(0.04938271604938272,0,0,0.04938271604938272,0,0)" xlink:href="#G"/><use transform="matrix(0.04938271604938272,0,0,0.04938271604938272,9.876543209876544,0)" xlink:href="#aO"/><use transform="matrix(0.04938271604938272,0,0,0.04938271604938272,19.75308641975309,0)" xlink:href="#H"/><use transform="matrix(0.04938271604938272,0,0,0.04938271604938272,25.629629629629633,0)" xlink:href="#I"/><use transform="matrix(0.04938271604938272,0,0,0.04938271604938272,36.49382716049383,0)" xlink:href="#J"/><use transform="matrix(0.04938271604938272,0,0,0.04938271604938272,46.370370370370374,0)" xlink:href="#K"/></g><g id="C"><use transform="matrix(0.04938271604938272,0,0,0.04938271604938272,0,0)" xlink:href="#K"/><use transform="matrix(0.04938271604938272,0,0,0.04938271604938272,6.913580246913581,0)" xlink:href="#J"/><use transform="matrix(0.04938271604938272,0,0,0.04938271604938272,16.790123456790127,0)" xlink:href="#V"/><use transform="matrix(0.04938271604938272,0,0,0.04938271604938272,26.666666666666668,0)" xlink:href="#S"/><use transform="matrix(0.04938271604938272,0,0,0.04938271604938272,31.60493827160494,0)" xlink:href="#R"/><use transform="matrix(0.04938271604938272,0,0,0.04938271604938272,41.48148148148149,0)" xlink:href="#W"/><use transform="matrix(0.04938271604938272,0,0,0.04938271604938272,57.283950617283956,0)" xlink:href="#O"/><use transform="matrix(0.04938271604938272,0,0,0.04938271604938272,68.09876543209877,0)" xlink:href="#ae"/></g><g id="D"><use transform="matrix(0.049382716049382706,0,0,0.049382716049382706,0,0)" xlink:href="#G"/><use transform="matrix(0.049382716049382706,0,0,0.049382716049382706,9.87654320987654,0)" xlink:href="#aQ"/><use transform="matrix(0.049382716049382706,0,0,0.049382716049382706,19.75308641975308,0)" xlink:href="#H"/><use transform="matrix(0.049382716049382706,0,0,0.049382716049382706,25.629629629629626,0)" xlink:href="#W"/><use transform="matrix(0.049382716049382706,0,0,0.049382716049382706,41.43209876543209,0)" xlink:href="#O"/><use transform="matrix(0.049382716049382706,0,0,0.049382716049382706,52.24691358024689,0)" xlink:href="#ae"/><use transform="matrix(0.049382716049382706,0,0,0.049382716049382706,62.12345679012344,0)" xlink:href="#N"/><use transform="matrix(0.049382716049382706,0,0,0.049382716049382706,67.99999999999999,0)" xlink:href="#K"/><use transform="matrix(0.049382716049382706,0,0,0.049382716049382706,74.91358024691357,0)" xlink:href="#R"/><use transform="matrix(0.049382716049382706,0,0,0.049382716049382706,84.79012345679011,0)" xlink:href="#K"/><use transform="matrix(0.049382716049382706,0,0,0.049382716049382706,91.7037037037037,0)" xlink:href="#Y"/><use transform="matrix(0.049382716049382706,0,0,0.049382716049382706,101.58024691358025,0)" xlink:href="#K"/><use transform="matrix(0.049382716049382706,0,0,0.049382716049382706,108.49382716049382,0)" xlink:href="#J"/><use transform="matrix(0.049382716049382706,0,0,0.049382716049382706,118.37037037037037,0)" xlink:href="#V"/><use transform="matrix(0.049382716049382706,0,0,0.049382716049382706,128.2469135802469,0)" xlink:href="#S"/><use transform="matrix(0.049382716049382706,0,0,0.049382716049382706,133.1851851851852,0)" xlink:href="#R"/><use transform="matrix(0.049382716049382706,0,0,0.049382716049382706,143.06172839506172,0)" xlink:href="#W"/><use transform="matrix(0.049382716049382706,0,0,0.049382716049382706,158.86419753086417,0)" xlink:href="#O"/><use transform="matrix(0.049382716049382706,0,0,0.049382716049382706,169.67901234567898,0)" xlink:href="#ae"/><use transform="matrix(0.049382716049382706,0,0,0.049382716049382706,179.55555555555551,0)" xlink:href="#Z"/><use transform="matrix(0.049382716049382706,0,0,0.049382716049382706,185.43209876543204,0)" xlink:href="#aa"/><use transform="matrix(0.049382716049382706,0,0,0.049382716049382706,191.30864197530857,0)" xlink:href="#H"/><use transform="matrix(0.049382716049382706,0,0,0.049382716049382706,197.1851851851851,0)" xlink:href="#L"/><use transform="matrix(0.049382716049382706,0,0,0.049382716049382706,207.06172839506164,0)" xlink:href="#O"/><use transform="matrix(0.049382716049382706,0,0,0.049382716049382706,217.87654320987644,0)" xlink:href="#T"/><use transform="matrix(0.049382716049382706,0,0,0.049382716049382706,222.81481481481472,0)" xlink:href="#ab"/></g><g id="E"><use transform="matrix(0.04320987654320987,0,0,0.04320987654320987,0,0)" xlink:href="#G"/><use transform="matrix(0.04320987654320987,0,0,0.04320987654320987,8.641975308641973,0)" xlink:href="#P"/><use transform="matrix(0.04320987654320987,0,0,0.04320987654320987,17.283950617283946,0)" xlink:href="#H"/><use transform="matrix(0.04320987654320987,0,0,0.04320987654320987,22.42592592592592,0)" xlink:href="#O"/><use transform="matrix(0.04320987654320987,0,0,0.04320987654320987,31.88888888888888,0)" xlink:href="#aP"/><use transform="matrix(0.04320987654320987,0,0,0.04320987654320987,41.35185185185184,0)" xlink:href="#N"/><use transform="matrix(0.04320987654320987,0,0,0.04320987654320987,46.493827160493815,0)" xlink:href="#J"/><use transform="matrix(0.04320987654320987,0,0,0.04320987654320987,55.13580246913579,0)" xlink:href="#M"/><use transform="matrix(0.04320987654320987,0,0,0.04320987654320987,64.59876543209874,0)" xlink:href="#J"/><use transform="matrix(0.04320987654320987,0,0,0.04320987654320987,73.24074074074072,0)" xlink:href="#K"/><use transform="matrix(0.04320987654320987,0,0,0.04320987654320987,79.2901234567901,0)" xlink:href="#Y"/><use transform="matrix(0.04320987654320987,0,0,0.04320987654320987,87.93209876543207,0)" xlink:href="#K"/><use transform="matrix(0.04320987654320987,0,0,0.04320987654320987,93.98148148148147,0)" xlink:href="#J"/><use transform="matrix(0.04320987654320987,0,0,0.04320987654320987,102.62345679012344,0)" xlink:href="#V"/><use transform="matrix(0.04320987654320987,0,0,0.04320987654320987,111.2654320987654,0)" xlink:href="#S"/><use transform="matrix(0.04320987654320987,0,0,0.04320987654320987,115.58641975308639,0)" xlink:href="#R"/><use transform="matrix(0.04320987654320987,0,0,0.04320987654320987,124.22839506172836,0)" xlink:href="#W"/><use transform="matrix(0.04320987654320987,0,0,0.04320987654320987,138.05555555555551,0)" xlink:href="#O"/><use transform="matrix(0.04320987654320987,0,0,0.04320987654320987,147.51851851851848,0)" xlink:href="#ae"/><use transform="matrix(0.04320987654320987,0,0,0.04320987654320987,156.16049382716045,0)" xlink:href="#Z"/><use transform="matrix(0.04320987654320987,0,0,0.04320987654320987,161.30246913580243,0)" xlink:href="#ah"/><use transform="matrix(0.04320987654320987,0,0,0.04320987654320987,170.7654320987654,0)" xlink:href="#ae"/><use transform="matrix(0.04320987654320987,0,0,0.04320987654320987,179.40740740740736,0)" xlink:href="#ah"/><use transform="matrix(0.04320987654320987,0,0,0.04320987654320987,188.87037037037032,0)" xlink:href="#R"/><use transform="matrix(0.04320987654320987,0,0,0.04320987654320987,197.5123456790123,0)" xlink:href="#K"/><use transform="matrix(0.04320987654320987,0,0,0.04320987654320987,203.5617283950617,0)" xlink:href="#T"/><use transform="matrix(0.04320987654320987,0,0,0.04320987654320987,207.88271604938268,0)" xlink:href="#O"/><use transform="matrix(0.04320987654320987,0,0,0.04320987654320987,217.34567901234564,0)" xlink:href="#bc"/><use transform="matrix(0.04320987654320987,0,0,0.04320987654320987,221.66666666666663,0)" xlink:href="#ae"/><use transform="matrix(0.04320987654320987,0,0,0.04320987654320987,230.3086419753086,0)" xlink:href="#ah"/><use transform="matrix(0.04320987654320987,0,0,0.04320987654320987,239.77160493827157,0)" xlink:href="#bd"/><use transform="matrix(0.04320987654320987,0,0,0.04320987654320987,249.23456790123453,0)" xlink:href="#J"/><use transform="matrix(0.04320987654320987,0,0,0.04320987654320987,257.8765432098765,0)" xlink:href="#K"/><use transform="matrix(0.04320987654320987,0,0,0.04320987654320987,263.92592592592587,0)" xlink:href="#L"/><use transform="matrix(0.04320987654320987,0,0,0.04320987654320987,272.56790123456784,0)" xlink:href="#T"/><use transform="matrix(0.04320987654320987,0,0,0.04320987654320987,276.8888888888888,0)" xlink:href="#ae"/><use transform="matrix(0.04320987654320987,0,0,0.04320987654320987,285.5308641975308,0)" xlink:href="#O"/><use transform="matrix(0.04320987654320987,0,0,0.04320987654320987,294.9938271604937,0)" xlink:href="#K"/><use transform="matrix(0.04320987654320987,0,0,0.04320987654320987,301.0432098765431,0)" xlink:href="#aa"/><use transform="matrix(0.04320987654320987,0,0,0.04320987654320987,306.18518518518505,0)" xlink:href="#H"/><use transform="matrix(0.04320987654320987,0,0,0.04320987654320987,311.327160493827,0)" xlink:href="#L"/><use transform="matrix(0.04320987654320987,0,0,0.04320987654320987,319.969135802469,0)" xlink:href="#O"/><use transform="matrix(0.04320987654320987,0,0,0.04320987654320987,329.43209876543193,0)" xlink:href="#T"/><use transform="matrix(0.04320987654320987,0,0,0.04320987654320987,333.7530864197529,0)" xlink:href="#ab"/></g><g id="F"><use transform="matrix(0.04938271604938272,0,0,0.04938271604938272,0,0)" xlink:href="#G"/><use transform="matrix(0.04938271604938272,0,0,0.04938271604938272,9.876543209876544,0)" xlink:href="#X"/><use transform="matrix(0.04938271604938272,0,0,0.04938271604938272,19.75308641975309,0)" xlink:href="#H"/><use transform="matrix(0.04938271604938272,0,0,0.04938271604938272,25.629629629629633,0)" xlink:href="#ag"/><use transform="matrix(0.04938271604938272,0,0,0.04938271604938272,37.48148148148149,0)" xlink:href="#ad"/><use transform="matrix(0.04938271604938272,0,0,0.04938271604938272,42.41975308641976,0)" xlink:href="#J"/><use transform="matrix(0.04938271604938272,0,0,0.04938271604938272,52.2962962962963,0)" xlink:href="#V"/><use transform="matrix(0.04938271604938272,0,0,0.04938271604938272,62.17283950617284,0)" xlink:href="#ah"/><use transform="matrix(0.04938271604938272,0,0,0.04938271604938272,72.98765432098766,0)" xlink:href="#V"/><use transform="matrix(0.04938271604938272,0,0,0.04938271604938272,82.8641975308642,0)" xlink:href="#T"/><use transform="matrix(0.04938271604938272,0,0,0.04938271604938272,87.80246913580248,0)" xlink:href="#O"/><use transform="matrix(0.04938271604938272,0,0,0.04938271604938272,98.61728395061729,0)" xlink:href="#M"/></g></defs></g></svg>